<svg width="128" height="128" viewBox="0 0 128 128" fill="none" xmlns="http://www.w3.org/2000/svg">
<circle cx="64" cy="64" r="64" fill="#283739"/>
<path d="M73.9962 98.8H55.5038V76.8205L36.8 30.9594H55.7151L64.5915 59.5962L72.8338 30.9594H91.6432L73.9962 76.6092V98.8Z" fill="#FAF5E9"/>
<path d="M73.9962 98.8V100.497H75.6931V98.8H73.9962ZM55.5038 98.8H53.8068V100.497H55.5038V98.8ZM55.5038 76.8205H57.2007V76.4878L57.0751 76.1797L55.5038 76.8205ZM36.8 30.9594V29.2625H34.2753L35.2287 31.6003L36.8 30.9594ZM55.7151 30.9594L57.336 30.457L56.9657 29.2625H55.7151V30.9594ZM64.5915 59.5962L62.9706 60.0986L64.6517 65.5222L66.2222 60.0656L64.5915 59.5962ZM72.8338 30.9594V29.2625H71.5563L71.203 30.4901L72.8338 30.9594ZM91.6432 30.9594L93.226 31.5713L94.1185 29.2625H91.6432V30.9594ZM73.9962 76.6092L72.4133 75.9973L72.2992 76.2926V76.6092H73.9962ZM73.9962 97.1031H55.5038V100.497H73.9962V97.1031ZM57.2007 98.8V76.8205H53.8068V98.8H57.2007ZM57.0751 76.1797L38.3714 30.3186L35.2287 31.6003L53.9325 77.4614L57.0751 76.1797ZM36.8 32.6564H55.7151V29.2625H36.8V32.6564ZM54.0942 31.4618L62.9706 60.0986L66.2123 59.0938L57.336 30.457L54.0942 31.4618ZM66.2222 60.0656L74.4645 31.4288L71.203 30.4901L62.9607 59.1268L66.2222 60.0656ZM72.8338 32.6564H91.6432V29.2625H72.8338V32.6564ZM90.0604 30.3475L72.4133 75.9973L75.579 77.2211L93.226 31.5713L90.0604 30.3475ZM72.2992 76.6092V98.8H75.6931V76.6092H72.2992Z" fill="#283739"/>
</svg>
