<svg xmlns="http://www.w3.org/2000/svg" width="96" height="96" fill="none"><path fill="currentColor" d="M47.16 46h-8.28V32.76h9.88c5.04 0 7.84 2.24 7.84 6.36 0 4.48-3.32 6.88-9.44 6.88m1.48 4.52h-9.76v14.56h10.24c6.24 0 9.52-2.52 9.52-7.32s-3.4-7.24-10-7.24M88 21.24v53.52C88 82 82 88 74.76 88H21.24C14 88 8 82 8 74.76V21.24C8 14 14 8 21.24 8h53.52C82 8 88 14 88 21.24M64 58c0-5.52-3.68-9.48-9.32-10.2v-.24c4-.72 7.16-4.72 7.16-9.04 0-6.2-4.8-10.32-11.84-10.32H33.72v41.44h16.16C58.72 69.64 64 65.28 64 58"/></svg>