<svg xmlns="http://www.w3.org/2000/svg" width="96" height="96" fill="none"><g fill="currentColor" clip-path="url(#a)"><path d="M30.008 0H40.32v4.312h-6v4.312h6v4.312H30.008zM42.38 0h10.316v3.752h-6V4.5h6v8.624H42.38V9.188h6v-.752h-6zm12.38 0h10.308v3.752h-6V4.5h6v8.624H54.76V9.188h6v-.752h-6z"/><path fill-rule="evenodd" d="m47.964 96-27.776-7.712L12 18.868h72L75.816 88.28zM28.188 50.292l.764 8.512H58.46l-.988 11.04-9.496 2.568h-.008l-9.48-2.56-.608-6.788h-8.548l1.192 13.368 17.44 4.84 17.468-4.84 2.128-23.856.208-2.284 1.536-17.236H26.656l.776 8.516h32.544l-.776 8.72z" clip-rule="evenodd"/></g><defs><clipPath id="a"><path fill="currentColor" d="M0 0h96v96H0z"/></clipPath></defs></svg>