<svg xmlns="http://www.w3.org/2000/svg" width="96" height="96" fill="none"><path fill="currentColor" d="M33.154 5h14.098v28.195H33.154c-18.59-.727-18.779-27.432 0-28.195m0 57.596h14.098V34.401H33.154c-18.778.763-18.59 27.468 0 28.195M62.555 5H48.458v28.195h14.097c18.842-1.008 18.607-27.62 0-28.195M47.252 77.9V63.802H33.154c-11.504 0-18.778 13.488-10.778 23.175 7.628 9.602 24.876 4.815 24.876-9.077m29.43-29.401c0-10.835-11.81-17.643-21.206-12.225-9.396 5.417-9.396 19.033 0 24.45s21.206-1.391 21.206-12.225"/></svg>