<svg xmlns="http://www.w3.org/2000/svg" width="1365.333" height="1365.333" version="1.0" viewBox="0 0 1024 1024"><path fill="currentColor" d="M215.8 68.6c-.2 37.7 0 69 .3 69.5s10.2.8 23.5.7l22.9-.3.3-22.8.2-22.7 20.6.2 20.5.3.2 22.5.2 22.5h46l.3-69.3L351 0h-47v46h-41V0h-47zm155.4-45.4.3 23.3 19.7.3 19.8.2.2 45.8.3 45.7h46l.3-45.8.2-45.7h19.5c14.8 0 19.7-.3 20-1.3.3-.6.6-11.2.7-23.5l.3-22.2H371zM518 69v69l2.3.5c1.2.3 11.4.4 22.7.3l20.5-.3.5-33.4.5-33.5 15.4 23.7c8.4 13 15.7 23.7 16.1 23.7s3.9-4.8 7.6-10.8c12.4-19.5 22.6-34.7 23.5-35 .5-.2 1 13.8 1.1 32.5l.3 32.8h45l.3-69.3L674 0h-24.2l-24.3.1-3.9 6.7c-11.8 20.3-24.9 41.1-25.7 40.6-.5-.3-2.4-3.1-4.2-6.2-1.9-3.1-8-13.2-13.5-22.3C572.6 9.7 568 1.7 568 1.1c0-.8-7.3-1.1-25-1.1h-25zm179.2.2.3 69.3h111l.3-22.1c.2-17.6 0-22.4-1.1-23.2-.9-.8-11.4-1.3-32.8-1.4l-31.4-.3.4-45.8.3-45.7H697zM147.4 200.9c-.9.9-.4 9 .6 9.6.6.4 1 5.3 1 11.5s.4 11.1 1 11.5 1 5.3 1 11.5.4 11.1 1 11.5c.6.3 1 5.2 1 11s.4 10.7 1 11 1 5.2 1 11 .4 10.7 1 11 1 5.2 1 11 .4 10.7 1 11c.6.4 1 5.5 1 12s.4 11.6 1 12c.6.3 1 5.2 1 11s.4 10.7 1 11 1 5.2 1 11 .4 10.7 1 11 1 5.2 1 11 .4 10.7 1 11c.6.4 1 5.3 1 11.5s.4 11.1 1 11.5 1 5.3 1 11.5.4 11.1 1 11.5c.6.3 1 5.2 1 11s.4 10.7 1 11 1 5.2 1 11 .4 10.7 1 11 1 5.2 1 11 .4 10.7 1 11c.6.4 1 5.5 1 12s.4 11.6 1 12c.6.3 1 5.2 1 11s.4 10.7 1 11 1 5.2 1 11 .4 10.7 1 11 1 5.2 1 11 .4 10.7 1 11c.6.4 1 5.3 1 11.5s.4 11.1 1 11.5 1 5.3 1 11.5.4 11.1 1 11.5c.6.3 1 5.2 1 11s.4 10.7 1 11 1 5.2 1 11 .4 10.7 1 11 1 5.2 1 11 .4 10.7 1 11c.6.4 1 5.5 1 12s.4 11.6 1 12c.6.3 1 5.2 1 11s.4 10.7 1 11 1 5.2 1 11 .4 10.7 1 11 1 5.2 1 11 .4 10.7 1 11c.6.4 1 5.3 1 11.5s.4 11.1 1 11.5 1 5.3 1 11.5.4 11.1 1 11.5c.6.3 1 5.2 1 11s.4 10.7 1 11 1 5.2 1 11 .4 10.7 1 11 1 5.3 1 11.4c0 5.9.4 11.1.9 11.7.6.5 1.1 4 1.3 7.9l.3 7 3.5.3c1.9.2 3.9.8 4.5 1.3.5.5 2.4.9 4.1.9 1.8 0 3.6.4 3.9 1 .3.5 1.7 1 3 1s2.7.4 3 1c.3.5 2.1 1 4 1s3.7.5 4 1c.3.6 1.7 1 3 1s2.7.5 3 1c.3.6 2.1 1 4 1s3.7.5 4 1.1c.4.6 1.9.9 3.5.7 1.5-.1 3.5.3 4.4 1.1.8.7 2.2 1.1 3 .8s2 .1 2.7.9 2.6 1.4 4.3 1.2c1.8-.1 3.8.2 4.6.7s2.2.8 3.2.7c.9-.2 1.9.2 2.3.8.3.5 2.1 1 3.9 1 1.9 0 3.9.6 4.5 1.3.6.8 2.3 1.2 3.9.9 1.7-.2 3.3.2 4.1 1.2.7.8 1.9 1.2 2.7.9s2.2.1 3 .8c.9.8 2.9 1.2 4.4 1.1 1.6-.2 3.1.1 3.5.7.3.6 2.1 1.1 4 1.1s3.7.4 4 1c.3.5 1.7 1 3 1s2.7.4 3 1c.3.5 2.1 1 4 1s3.7.4 4 1c.3.5 1.7 1 3 1s2.7.4 3 1c.3.5 2.1 1 4 1s3.7.4 4 1c.3.5 2.1 1 4 1s3.7.5 4 1c.3.6 1.7 1 3 1s2.7.4 3 1c.3.5 2.1 1 4 1s3.7.4 4 1c.3.5 1.7 1 3 1s2.7.4 3 1c.3.5 2.1 1 4 1s3.7.4 4 1c.3.5 2.1 1 4 1s3.7.4 4 1c.3.5 1.7 1 3 1s2.7.4 3 1c.3.5 2.1 1 4 1s3.7.5 4 1c.3.6 1.7 1 3 1s2.7.4 3 1c.3.5 2.1 1 4 1s3.7.4 4 1c.3.5 2.1 1 4 1s3.7.4 4 1c.3.5 1.7 1 3 1s2.7.4 3 1c.3.5 2.1 1 4 1s3.7.4 4 1c.3.5 2.1 1 4 1s3.7.5 4 1c.3.6 1.7 1 3 1s2.7.4 3 1c.3.5 2.1 1 4 1s3.7.4 4 1c.3.5 1.7 1 3 1s2.7.4 3 1c.3.5 2.1 1 4 1s3.7.5 4 1c.3.6 2.1 1 4 1s3.7.4 4 1c.3.5 1.7 1 3 1s2.7.4 3 1c.3.5 2.1 1 4 1s3.7.4 4 1c.8 1.3 15.2 1.3 16 0 .3-.6 1.7-1 3-1s2.7-.4 3-1c.3-.5 2.1-1 4-1s3.7-.5 4-1c.3-.6 2.1-1 4-1s3.7-.5 4-1c.3-.6 1.7-1 3-1s2.7-.5 3-1c.3-.6 2.1-1 4-1s3.7-.5 4-1c.3-.6 1.7-1 3-1s2.7-.4 3-1c.3-.5 2.1-1 4-1s3.7-.4 4-1c.3-.5 2.1-1 4-1s3.7-.5 4-1c.3-.6 1.7-1 3-1s2.7-.5 3-1c.3-.6 2.1-1 4-1s3.7-.5 4-1c.3-.6 1.7-1 3-1s2.7-.5 3-1c.3-.6 2.1-1 4-1s3.7-.5 4-1c.3-.6 2.1-1 4-1s3.7-.5 4-1c.3-.6 1.7-1 3-1s2.7-.5 3-1c.3-.6 2.1-1 4-1s3.7-.5 4-1c.3-.6 1.7-1 3-1s2.7-.5 3-1c.3-.6 2.1-1 4-1s3.7-.4 4-1c.3-.5 2.1-1 4-1s3.7-.5 4-1c.3-.6 1.7-1 3-1s2.7-.5 3-1c.3-.6 2.1-1 4-1s3.7-.5 4-1c.3-.6 2.1-1 4-1s3.7-.5 4-1c.3-.6 1.7-1 3-1s2.7-.5 3-1c.3-.6 2.1-1 4-1s3.7-.5 4-1c.3-.6 1.7-1 3-1s2.7-.5 3.1-1.1c.3-.6 1.9-.9 3.5-.7 1.7.3 3.4-.1 4-.9.6-.7 2.6-1.3 4.5-1.3 1.8 0 3.6-.5 4-1.1.3-.6 1.5-.9 2.5-.6s2.4-.2 3-1c.7-.8 2.5-1.3 3.9-1.1 1.5.1 3.5-.3 4.4-1.1.8-.7 2.2-1.1 2.9-.8s2.1-.1 3-.8c1-.7 2.6-1.1 3.7-.8 1 .3 2.8-.2 4-1s3-1.3 4-1 2.9-.2 4.1-1c1.1-.9 2.8-1.3 3.5-1 .8.3 2.2-.1 3-.8.9-.8 2.9-1.2 4.4-1.1 1.6.2 3.1-.1 3.5-.7.3-.6 1.7-1.1 3-1.1s2.7-.5 3-1c.3-.6 2.1-1 4-1s3.7-.5 4-1c.3-.6 2.1-1 4-1s3.7-.5 4-1c.3-.6 1.7-1 3-1s2.7-.5 3-1c.3-.6 2.1-1 4-1s3.7-.5 4-1c.3-.6 1.9-1 3.5-1s3.2-.5 3.5-1c.3-.6 1.9-1 3.4-1 4.4 0 6.1-2.7 6.1-9.8 0-3.3.5-6.4 1-6.7.6-.3 1-5.2 1-11s.4-10.7 1-11 1-5.2 1-11 .4-10.7 1-11 1-5.2 1-11 .4-10.7 1-11c.6-.4 1-5.5 1-12s.4-11.6 1-12c.6-.3 1-5.2 1-11s.4-10.7 1-11 1-5.2 1-11 .4-10.7 1-11 1-5.2 1-11 .4-10.7 1-11c.6-.4 1-5.3 1-11.5s.4-11.1 1-11.5 1-5.3 1-11.5.4-11.1 1-11.5c.6-.3 1-5.2 1-11s.4-10.7 1-11 1-5.2 1-11 .4-10.7 1-11 1-5.2 1-11 .4-10.7 1-11c.6-.4 1-5.5 1-12s.4-11.6 1-12c.6-.3 1-5.2 1-11s.4-10.7 1-11 1-5.2 1-11 .4-10.7 1-11 1-5.2 1-11 .4-10.7 1-11c.6-.4 1-5.3 1-11.5s.4-11.1 1-11.5 1-5.3 1-11.5.4-11.1 1-11.5c.6-.3 1-5.2 1-11s.4-10.7 1-11c.6-.4 1-5.3 1-11.5s.4-11.1 1-11.5c.6-.3 1-5 1-10.5s.4-10.2 1-10.5c.6-.4 1-5.3 1-11.5s.4-11.1 1-11.5 1-5.3 1-11.5.4-11.1 1-11.5c.6-.3 1-5.2 1-11s.4-10.7 1-11 1-5.2 1-11 .4-10.7 1-11 1-5.2 1-11 .4-10.7 1-11c.6-.4 1-5.5 1-12s.4-11.6 1-12c.6-.3 1-5.2 1-11s.4-10.7 1-11 1-5.2 1-11 .4-10.7 1-11 1-5.2 1-11 .4-10.7 1-11c.6-.4 1-5.3 1-11.5s.4-11.1 1-11.5c.6-.3 1-5.3 1-11.4 0-6.2.4-11.1 1.1-11.8.5-.5.9-3 .7-5.3l-.3-4.3-363.8-.1c-200.1 0-364.1.1-364.3.3M738 354c.5.9.1 8.5-2 30-2.4 25.7-3 32-4 44-.6 6.9-1.3 13.2-1.5 14.1-.5 1.4-9.3 1.6-90 2.1-49.2.4-127 .4-173 0l-83.5-.5v2.4c-.1 3.1 7 85.7 7.6 88.5l.4 2.2 163.9-.5c128.5-.3 164.1-.1 164.7.8 1 1.8.5 24.2-.6 25.3-.6.6-1 5.5-1 11.1s-.4 10.5-.9 11c-.5.6-1.2 5.3-1.5 10.5-.5 9.1-1.3 19.3-3.6 44-.6 6.3-1.5 16.7-2.1 23-1.2 13.6-2.4 27.1-3.9 43.5-.6 6.6-1.5 16.9-2.1 23-.5 6-1.4 15.7-1.9 21.5s-1.4 15.7-2 22c-.5 6.3-1.4 16.7-1.9 23-1.8 20.1-1.9 20.5-5.5 21.8-1.8.7-4.1 1.2-5.2 1.2s-2.4.4-3 .9c-.5.4-3.1 1.4-5.9 2.1-2.7.7-7 1.9-9.5 2.6s-11.9 3.4-21 5.9-18.7 5.3-21.5 6c-2.7.8-11.5 3.3-19.5 5.5s-16.1 4.5-18 5-10 2.8-18 5c-12.8 3.5-21 5.9-31.5 9-1.6.5-7.3 2.1-12.5 3.4-5.2 1.4-11.2 3-13.3 3.6-3.3 1-5.7.5-22-4.1-10-2.8-22.9-6.4-28.7-7.9-9.9-2.6-14.5-3.9-32.3-9-3.9-1.1-11-3.1-15.7-4.4s-15.5-4.4-24-6.8c-8.5-2.5-19.3-5.5-24-6.8-4.7-1.2-10.5-2.8-13-3.7-2.5-.8-5.6-1.7-7-1.9-1.4-.3-4.5-1.2-7-2.1-2.5-.8-5.8-1.7-7.5-2-1.6-.2-4.3-1.2-6-2.2-2.9-1.7-3-1.9-3.3-10.7-.1-4.9-.6-9.8-1.1-10.9-.6-1.1-1.2-7.2-1.5-13.5s-1-16-1.6-21.5c-.5-5.5-1.4-15.2-1.9-21.5-.6-6.3-1.5-16.7-2.1-23s-1.5-16.5-2-22.5c-.5-6.1-1.3-12.9-1.6-15.3l-.6-4.2h45.5c34.7 0 45.8.3 46.3 1.2.8 1.2 1.1 4.1 3.4 33.3.6 8.2 1.7 20.1 2.3 26.4l1.2 11.5 3 .8c1.7.5 12.2 3.3 23.5 6.2 19.7 5.2 36.9 9.8 62.3 16.6l11.9 3.1 9.6-2.5c5.4-1.4 14.9-4 21.2-5.7s13.1-3.5 15-3.9c1.9-.5 10.3-2.7 18.5-4.9 24.7-6.6 29.9-8 32.9-8.5 1.6-.3 3-.6 3.1-.8.2-.2.8-5.9 1.4-12.8s1.5-17 2.1-22.5c4.9-51.9 6.4-69.2 6.4-75.5l.1-6.5-54.5-.2c-30-.2-100.5-.3-156.7-.3H308v-6.4c0-3.6-.4-6.8-1-7.1s-1-5.1-1-10.9c0-5.6-.4-10.6-.9-11.2-.6-.5-1.2-5.6-1.5-11.4s-.8-15-1.1-20.5-1-10.9-1.5-12-1.1-7-1.4-13c-.3-6.1-1-15.7-1.5-21.5-2.6-27.4-4.8-52-6-66.5-.6-6.6-1.2-12.9-1.5-14s-.7-5.2-1-9c-.5-7.9-4.2-50-5.4-61.8-.4-4.3-.5-8.2-.2-8.7 1.1-1.8 452.8-1.9 454 0"/></svg>