<svg xmlns="http://www.w3.org/2000/svg" width="96" height="96" fill="none"><path fill="currentColor" d="M6 6v84h84V6zm45.714 65.511c0 8.175-4.8 11.907-11.793 11.907-6.318 0-9.975-3.261-11.85-7.218l6.432-3.882c1.239 2.193 2.364 4.05 5.082 4.05 2.586 0 4.236-1.014 4.236-4.968V44.568h7.893zm18.672 11.907c-7.332 0-12.075-3.486-14.382-8.064l6.432-3.711c1.689 2.757 3.9 4.8 7.782 4.8 3.261 0 5.364-1.632 5.364-3.9 0-2.7-2.139-3.657-5.757-5.25l-1.968-.843c-5.7-2.418-9.468-5.475-9.468-11.907 0-5.925 4.518-10.425 11.55-10.425 5.025 0 8.625 1.743 11.214 6.318l-6.15 3.939C73.653 51.957 72.189 51 69.921 51c-2.304 0-3.768 1.464-3.768 3.375 0 2.364 1.464 3.318 4.857 4.8l1.968.843c6.714 2.868 10.482 5.814 10.482 12.411 0 7.089-5.589 10.986-13.071 10.986z"/></svg>