<svg xmlns="http://www.w3.org/2000/svg" width="136" height="136" fill="none"><g clip-path="url(#a)"><path fill="currentColor" d="m39.716 79.314 33.94 33.941-11.313 11.314-33.941-33.942zM84.97 101.94a8 8 0 0 1-11.313 0L45.372 73.657A7.82 7.82 0 0 1 43.053 68l-.028-37.25h5.996c1.527 0 3.055.565 4.214 1.725l.82.99 10.24 15.613L82.142 31.23a8 8 0 0 1 11.314 0l5.656 5.657a7.9 7.9 0 0 1 1.669 2.461L112.18 67.83a7.945 7.945 0 0 1-1.754 8.655zm-5.656-5.657 25.54-25.54-11.398-28.2-5.657-5.657L62.937 61.75 51.086 43.506l.028 24.579z"/></g><defs><clipPath id="a"><path fill="#fff" d="M.118 68 68 .118 135.882 68 68 135.882z"/></clipPath></defs></svg>