<svg xmlns="http://www.w3.org/2000/svg" width="96" height="96" fill="none"><g clip-path="url(#a)"><path fill="currentColor" d="M0 6.876C0 3.078 3.156 0 7.05 0h81.9C92.844 0 96 3.078 96 6.876v82.248C96 92.922 92.844 96 88.95 96H7.05C3.156 96 0 92.922 0 89.124zm29.658 73.488v-43.35H15.252v43.35zm-7.2-49.272c5.022 0 8.148-3.324 8.148-7.488-.09-4.254-3.12-7.488-8.052-7.488s-8.154 3.24-8.154 7.488c0 4.164 3.126 7.488 7.962 7.488zm29.448 49.272v-24.21c0-1.296.096-2.592.48-3.516 1.038-2.586 3.408-5.268 7.392-5.268 5.214 0 7.296 3.972 7.296 9.804v23.19H81.48V55.5c0-13.32-7.104-19.512-16.584-19.512-7.644 0-11.07 4.2-12.99 7.158v.15h-.096l.096-.15v-6.132h-14.4c.18 4.068 0 43.35 0 43.35z"/></g><defs><clipPath id="a"><path fill="transparent" d="M0 0h96v96H0z"/></clipPath></defs></svg>