<svg xmlns="http://www.w3.org/2000/svg" width="110" height="43" fill="none"><path fill="#283739" d="M51.92 29h-3.937v-4.68L44 14.555h4.028l1.89 6.098 1.755-6.098h4.005l-3.758 9.72zm9.868-11.227h3.757V29H61.72v-1.215Q61.292 29 59.74 29h-.405q-2.992 0-2.992-2.79v-5.648q0-2.79 2.992-2.79h.405q1.732 0 2.047 1.44zm-1.058 8.415h.383q.607 0 .607-.675V21.26q0-.675-.608-.675h-.382q-.562 0-.562.495v4.613q0 .495.562.494m9.687-8.415h2.857q1.71 0 2.453.72t.742 2.07v5.647q0 1.35-.742 2.07-.743.72-2.453.72h-2.857q-1.71 0-2.453-.72t-.742-2.07v-5.648q0-1.35.742-2.07.743-.72 2.453-.72m2.295 8.077v-4.928q0-.495-.563-.495h-.607q-.563 0-.563.495v4.928q0 .495.563.495h.607q.563 0 .563-.495m10.99-.158v-2.047q0-.495-.563-.495h-2.16q-1.665 0-2.362-.72-.675-.742-.675-2.115v-2.97q0-2.79 3.285-2.79h3.082q3.285 0 3.285 2.79v1.733h-3.937v-1.215q0-.495-.563-.495h-.652q-.563 0-.563.495V20q0 .495.563.495h2.115q1.665 0 2.362.697.72.698.72 2.048v2.97q0 2.79-3.285 2.79h-3.06q-3.307 0-3.307-2.79v-1.733h3.937v1.215q0 .495.563.495h.652q.563 0 .563-.495m10.737-7.92h3.757V29h-3.825v-1.215Q93.944 29 92.391 29h-.405q-2.992 0-2.992-2.79v-5.648q0-2.79 2.992-2.79h.405q1.733 0 2.048 1.44zm-1.058 8.416h.383q.607 0 .607-.675V21.26q0-.675-.607-.675h-.383q-.562 0-.562.495v4.613q0 .495.562.494m12.409-8.415h.405q2.993 0 2.993 2.79V29h-3.825v-7.92q0-.495-.563-.495h-.382q-.608 0-.608.675V29h-3.825V17.773h3.758v1.44q.315-1.44 2.047-1.44M7.441 8.04c-.625.128-.863.206-1.308.429-.973.48-1.793 1.527-2.059 2.633-.066.277-.07.804-.07 10.937v10.645l.094.332c.351 1.257 1.21 2.238 2.39 2.722.274.11.38.14.817.227.437.086 24.89.086 25.37 0 .743-.133 1.337-.418 1.927-.922.566-.48 1.05-1.262 1.261-2.027l.094-.332V11.356l-.094-.333c-.43-1.546-1.656-2.68-3.187-2.949-.266-.05-2.153-.054-12.735-.054-6.832.003-12.457.011-12.5.02m5.145 6.07c.14.042.355.144.484.23.149.098 1.375 1.297 3.418 3.348 2.778 2.789 3.2 3.226 3.293 3.425a2.03 2.03 0 0 1 0 1.813c-.093.199-.515.637-3.312 3.441-1.766 1.766-3.29 3.266-3.39 3.332-.618.399-1.524.418-2.118.047a2.04 2.04 0 0 1-.941-1.308 1.6 1.6 0 0 1 .003-.852c.141-.598-.113-.316 4.286-4.73.445-.45.808-.825.808-.837 0-.011-.91-.93-2.02-2.042-2.644-2.649-2.784-2.793-2.91-3.055-.124-.258-.226-.656-.226-.899 0-.671.394-1.351 1.004-1.73.422-.266 1.11-.344 1.62-.184m15.68 11.913c.5.09.843.278 1.191.657.25.265.398.547.48.906.079.32.079.539.004.852a2 2 0 0 1-1.074 1.37c-.449.227-.328.22-3.906.22h-3.3l-.274-.09c-1.34-.45-1.848-2.016-1.012-3.118.324-.425.71-.668 1.246-.78.305-.063 6.293-.075 6.645-.017"/></svg>