<svg xmlns="http://www.w3.org/2000/svg" width="96" height="96" fill="none"><path fill="currentColor" d="M48 40.44c4.12 0 7.48 3.36 7.48 7.56 0 4-3.36 7.4-7.48 7.4S40.52 52 40.52 48c0-4.2 3.36-7.56 7.48-7.56M29.48 80c2.52 1.52 8.04-.8 14.4-6.8a97 97 0 0 1-6.04-7.6 91 91 0 0 1-9.6-1.44C26.2 72.72 26.96 78.6 29.48 80m2.84-22.96L31.16 55c-.44 1.16-.88 2.32-1.16 3.44 1.08.24 2.28.44 3.52.64zM58.48 54l3.24-6-3.24-6c-1.2-2.12-2.48-4-3.64-5.88C52.68 36 50.4 36 48 36s-4.68 0-6.84.12C40 38 38.72 39.88 37.52 42l-3.24 6 3.24 6c1.2 2.12 2.48 4 3.64 5.88C43.32 60 45.6 60 48 60s4.68 0 6.84-.12C56 58 57.28 56.12 58.48 54M48 27.12c-.76.88-1.56 1.8-2.36 2.88h4.72c-.8-1.08-1.6-2-2.36-2.88m0 41.76c.76-.88 1.56-1.8 2.36-2.88h-4.72c.8 1.08 1.6 2 2.36 2.88M66.48 16c-2.48-1.52-8 .8-14.36 6.8 2.08 2.36 4.12 4.92 6.04 7.6 3.28.32 6.52.8 9.6 1.44C69.8 23.28 69.04 17.4 66.48 16m-2.8 22.96L64.84 41c.44-1.16.88-2.32 1.16-3.44-1.08-.24-2.28-.44-3.52-.64zm5.8-28.2c5.88 3.36 6.52 12.2 4.04 22.52C83.68 36.28 91 41.24 91 48s-7.32 11.72-17.48 14.72c2.48 10.32 1.84 19.16-4.04 22.52-5.84 3.36-13.8-.48-21.48-7.8-7.68 7.32-15.64 11.16-21.52 7.8-5.84-3.36-6.48-12.2-4-22.52C12.32 59.72 5 54.76 5 48s7.32-11.72 17.48-14.72c-2.48-10.32-1.84-19.16 4-22.52 5.88-3.36 13.84.48 21.52 7.8 7.68-7.32 15.64-11.16 21.48-7.8M68.32 48c1.36 3 2.56 6 3.56 9.04C80.28 54.52 85 50.92 85 48s-4.72-6.52-13.12-9.04c-1 3.04-2.2 6.04-3.56 9.04m-40.64 0c-1.36-3-2.56-6-3.56-9.04C15.72 41.48 11 45.08 11 48s4.72 6.52 13.12 9.04c1-3.04 2.2-6.04 3.56-9.04m36 9.04-1.2 2.04c1.24-.2 2.44-.4 3.52-.64-.28-1.12-.72-2.28-1.16-3.44zM52.12 73.2c6.36 6 11.88 8.32 14.36 6.8 2.56-1.4 3.32-7.28 1.28-15.84-3.08.64-6.32 1.12-9.6 1.44a97 97 0 0 1-6.04 7.6m-19.8-34.24 1.2-2.04c-1.24.2-2.44.4-3.52.64.28 1.12.72 2.28 1.16 3.44zM43.88 22.8c-6.36-6-11.88-8.32-14.4-6.8-2.52 1.4-3.28 7.28-1.24 15.84a91 91 0 0 1 9.6-1.44c1.92-2.68 3.96-5.24 6.04-7.6"/></svg>