<svg xmlns="http://www.w3.org/2000/svg" width="96" height="96" fill="none"><path fill="currentColor" d="M45.435 15.042c-4.242-.225-9.009.426-13.67 2.043-7.41 2.571-15.427 6.615-21.19 11.883-6.846 6.27-7.944 11.73-7.494 14.01 1.602 8.1 13.02 13.38 17.592 17.286-.225.12-.435.228-.633.339-2.292 1.113-10.797 5.487-12.975 10.191-2.46 5.334.408 9.15 2.292 9.672 5.88 1.596 11.694-1.191 14.925-5.904 3.234-4.716 2.844-10.872 1.35-13.68-.012-.039-.042-.066-.057-.108.591-.345 1.194-.69 1.8-1.038 1.167-.675 2.307-1.29 3.306-1.83-.564 1.488-.972 3.279-1.185 5.862-.252 3.024 1.026 6.936 2.685 8.478.732.675 1.614.69 2.16.69 1.941 0 2.814-1.566 3.78-3.438 1.194-2.283 2.25-4.935 2.25-4.935s-1.32 7.173 2.298 7.173c1.32 0 2.64-1.662 3.234-2.514v.012s.021-.054.093-.165a6 6 0 0 0 .21-.327V68.7c.534-.894 1.707-2.94 3.465-6.321 2.277-4.371 4.452-9.831 4.452-9.831q.315 1.8.873 3.543c.393 1.305 1.227 2.736 1.887 4.125a53 53 0 0 1-.86 1.125q.002.02.017.03c-.423.549-.903 1.14-1.395 1.716-1.8 2.091-3.939 4.488-4.218 5.175-.339.81-.255 1.41.39 1.881.48.357 1.33.411 2.211.345a10 10 0 0 0 3.303-.744c1.009-.35 1.964-.84 2.838-1.452 1.758-1.266 2.83-3.084 2.73-5.475-.06-1.32-.498-2.64-1.032-3.879.156-.219.33-.45.48-.684a72.5 72.5 0 0 0 4.935-8.331q.316 1.8.87 3.543c.342 1.113 1.002 2.337 1.608 3.534-2.613 2.076-4.236 4.482-4.8 6.063-1.04 2.928-.219 4.245 1.314 4.548.69.138 1.671-.174 2.4-.474a11.2 11.2 0 0 0 3.036-1.53c1.758-1.266 3.462-3.036 3.348-5.442-.042-1.086-.348-2.175-.756-3.219 2.208-.906 5.07-1.401 8.73-.99 7.83.894 9.363 5.679 9.07 7.671-.295 1.995-1.942 3.108-2.49 3.438-.55.33-.715.456-.673.705.07.357.318.342.783.258.648-.111 4.104-1.62 4.26-5.322.225-4.671-4.365-9.81-12.504-9.771h-.012c-2.823 0-5.61.633-8.145 1.857-.83-1.635-1.689-3.066-1.827-4.14-.168-1.248-.348-1.989-.15-3.471.195-1.485 1.08-3.591 1.065-3.744-.015-.15-.198-.906-2.01-.921s-3.378.342-3.558.81q-.481 1.28-.744 2.622c-.324 1.608-3.627 7.359-5.496 10.356-.618-1.17-1.137-2.199-1.248-3.024-.168-1.251-.354-1.992-.159-3.474.198-1.485 1.09-3.591 1.074-3.744-.015-.15-.198-.906-2.01-.921s-3.38.342-3.564.81c-.18.465-.38 1.563-.744 2.622-.366 1.059-4.764 10.632-5.916 13.119a64 64 0 0 1-1.467 2.97c-.057.114-.096.18-.12.237.04-.069.07-.138.07-.111-.31.591-.493.918-.493.918v.012c-.24.441-.51.846-.633.846-.084 0-.27-1.158.042-2.739.66-3.327 2.22-8.496 2.208-8.676-.015-.096.288-.99-1.032-1.47-1.28-.453-1.74.303-1.85.303-.115 0-.199.276-.199.276s1.413-5.829-2.73-5.829c-2.592 0-6.192 2.775-7.959 5.289-1.11.591-3.516 1.872-6.048 3.234l-2.904 1.566c-.069-.069-.129-.138-.2-.207-5.035-5.25-14.326-8.964-13.933-16.02.141-2.568 1.06-9.315 17.871-17.511 13.782-6.708 24.798-4.869 26.694-.774 2.73 5.844-5.892 16.722-20.202 18.288-5.454.591-7.968-1.713-8.685-2.484-.744-.81-.86-.855-1.14-.705-.468.246-.17.963 0 1.389.42 1.086 2.301 2.787 5.295 3.75 2.631.84 8.67 1.545 16.407-1.38 8.688-3.276 15.324-12.168 13.341-19.797-1.26-4.845-6.867-7.653-13.932-8.025m-4.614 36.825c.222.015.384.099.477.252.492.813-1.71 6.798-2.274 8.145-.9 2.16-2.802 7.662-3.957 7.371-.984-.246-1.59-4.44-.198-8.568.702-2.076 2.193-4.548 3.081-5.511 1.065-1.167 2.214-1.74 2.871-1.689m29.22 6.786c.168.48.255.984.267 1.488-.015 3.096-2.28 4.248-3.639 4.728-.282-.192-.246-.84.696-2.85.366-.78 1.212-2.1 2.676-3.366m-47.226 3.411c1.167 4.179.042 7.863-2.685 10.77-2.586 2.76-6.216 3.807-7.776 2.928-1.674-.951-1.01-5.022 2.181-7.968 1.941-1.788 4.446-3.438 6.105-4.455.381-.219.924-.549 1.6-.948q.081-.051.17-.093c.126-.081.264-.15.405-.234m35.331.48c0 .069.018.141.018.222-.018 2.46-2.442 4.122-3.54 4.782h.012v.006c-.38.192-.735.312-.9.216-.129-.069.156-.33.156-.33s1.953-2.052 2.724-2.988c.45-.549.97-1.194 1.53-1.908"/></svg>