<svg xmlns="http://www.w3.org/2000/svg" width="96" height="96" fill="none"><path fill="currentColor" d="M27.064 46.334c-.328 4.131 3.302 7.174 5.779 7.174 2.48-.115 12.14-8.256 12.14-8.256 4.544-5.747 4.564-8.302 4.564-10.31-.379-8.866-16.533 4.638-22.483 11.392m39.96-3.432c2.193-4.64-.757-9.795-7.174-5.268-5.099 3.241-11.7 9.908-14.86 12.518-1.465 2.96 2.25 11.083 8.136 6.794 6.958-5.055 12.039-9.808 13.898-14.044m5.972-28.073L74.41 6H90v16.116l-5.714.069-6.88 23.302c.428 8.224-3.742 8.358-4.275 12.132-1.339 9.484-11.945 17.245-16 17.245-2.705-.079-4.682-3.178-5.346-5.88 7.626-8.434 17.88-15.062 17.88-15.062.64-4.436-.767-5.848 3.966-9.628l4.516-23.746c-3.857-2.547-5.657-2.508-5.15-5.72M42.565 54.155c3.954 7.967 9.667 8.175 18.526-1.969.21.938.44 1.92.018 4.28C43.089 72.583 26.116 88.269 20.95 90H6v-4.01c2.431-3.371 22.386-19.83 36.565-31.835M69.197 69.58c-.812 6.897-7.1 12.932-15.501 20.419H27.068l22.448-18.909c3.875 8.82 10.758 7.542 19.68-1.51m-31.49-15.653L6 80.953V63.419l18.659-15.19c.998 5.654 7.113 10.633 13.048 5.699"/></svg>