<svg xmlns="http://www.w3.org/2000/svg" width="96" height="96" fill="none"><path fill="currentColor" d="M6 48v42h84V6H6zm67.688-3.35a10.56 10.56 0 0 1 5.263 3.035c.767.819 1.914 2.323 2.011 2.693.026.11-3.622 2.557-5.838 3.925-.081.055-.41-.286-.766-.822-1.08-1.572-2.216-2.255-3.951-2.378-2.544-.166-4.184 1.163-4.171 3.391a3.3 3.3 0 0 0 .354 1.573c.562 1.163 1.615 1.858 4.867 3.268 6.017 2.583 8.586 4.292 10.185 6.712 1.79 2.706 2.187 7.027.984 10.253-1.338 3.486-4.648 5.864-9.297 6.644-1.436.26-4.854.218-6.4-.068-3.376-.601-6.576-2.27-8.544-4.458-.78-.847-2.284-3.076-2.187-3.226.042-.055.383-.273.766-.493l3.119-1.806 2.42-1.407.507.75c.711 1.08 2.255 2.557 3.187 3.048 2.68 1.423 6.357 1.218 8.176-.41a3.07 3.07 0 0 0 1.095-2.514c0-.971-.123-1.407-.63-2.134-.656-.93-1.982-1.722-5.77-3.363-4.334-1.874-6.208-3.021-7.901-4.867a11.1 11.1 0 0 1-2.31-4.197c-.315-1.189-.396-4.171-.15-5.36.89-4.197 4.061-7.109 8.613-7.97 1.478-.286 4.922-.178 6.37.179zm-19.714 3.515.027 3.431H43.062v31.078h-7.738V51.596H24.4v-3.362c0-1.875.042-3.431.095-3.473.042-.055 6.686-.082 14.752-.069l14.685.042z"/></svg>