<?xml version="1.0" standalone="no"?>
<!DOCTYPE svg PUBLIC "-//W3C//DTD SVG 20010904//EN"
 "http://www.w3.org/TR/2001/REC-SVG-20010904/DTD/svg10.dtd">
<svg version="1.0" xmlns="http://www.w3.org/2000/svg"
 width="128.000000pt" height="128.000000pt" viewBox="0 0 128.000000 128.000000"
 preserveAspectRatio="xMidYMid meet">

<g transform="translate(0.000000,128.000000) scale(0.100000,-0.100000)"
fill="#FAF5E9" stroke="none">
<path d="M538 1270 c-134 -24 -283 -102 -363 -191 -140 -155 -200 -364 -161
-559 64 -318 348 -538 663 -516 268 19 487 188 570 440 23 69 27 98 26 196 0
97 -4 128 -26 196 -46 140 -131 252 -254 334 -127 85 -314 126 -455 100z m57
-417 c20 -65 39 -129 44 -142 6 -19 15 4 47 115 l40 139 92 3 c51 1 92 -1 92
-6 0 -5 -38 -108 -85 -228 l-85 -219 0 -113 0 -113 -92 3 -93 3 -6 125 -6 125
-86 209 c-48 115 -87 210 -87 212 0 2 42 4 94 4 l94 0 37 -117z"/>
</g>
</svg>
