<svg width="96" height="96" viewBox="0 0 96 96" fill="none" xmlns="http://www.w3.org/2000/svg">
<g clip-path="url(#clip0_1976_4418)">
<path d="M30.0081 0H40.3201V4.312H34.3201V8.624H40.3201V12.936H30.0081V0ZM42.3801 0H52.6961V3.752H46.6961V4.5H52.6961V13.124H42.3801V9.188H48.3801V8.436H42.3801V0ZM54.7601 0H65.0681V3.752H59.0681V4.5H65.0681V13.124H54.7601V9.188H60.7601V8.436H54.7601V0Z" fill="currentColor"/>
<path fill-rule="evenodd" clip-rule="evenodd" d="M47.964 96L20.188 88.288L12 18.868H84L75.816 88.28L47.964 96ZM28.188 50.292L28.952 58.804H58.46L57.472 69.844L47.976 72.412H47.968L38.488 69.852L37.88 63.064H29.332L30.524 76.432L47.964 81.272L65.432 76.432L67.56 52.576L67.768 50.292L69.304 33.056H26.656L27.432 41.572H59.976L59.2 50.292H28.188Z" fill="currentColor"/>
</g>
<defs>
<clipPath id="clip0_1976_4418">
<rect width="96" height="96" fill="currentColor"/>
</clipPath>
</defs>
</svg>
