<svg width="64" height="64" viewBox="0 0 64 64" fill="none" xmlns="http://www.w3.org/2000/svg">
<path d="M58.6668 37.3333H53.3335V19.3013L32.1922 38.2347L10.6668 19.2427V50.6667H37.3335V56H8.00016C7.29292 56 6.61464 55.7191 6.11454 55.219C5.61445 54.7189 5.3335 54.0406 5.3335 53.3333V10.6667C5.3335 9.95942 5.61445 9.28115 6.11454 8.78105C6.61464 8.28095 7.29292 8 8.00016 8H56.0002C56.7074 8 57.3857 8.28095 57.8858 8.78105C58.3859 9.28115 58.6668 9.95942 58.6668 10.6667V37.3333ZM12.0295 13.3333L32.1628 31.0987L52.0055 13.3333H12.0295ZM50.6668 58.6667L41.2375 49.24L45.0108 45.4667L50.6668 51.1253L60.0935 41.696L63.8668 45.4667L50.6668 58.6667Z" fill="currentColor"/>
</svg>
