<svg width="96" height="96" viewBox="0 0 96 96" fill="none" xmlns="http://www.w3.org/2000/svg">
<path d="M48 40.44C52.12 40.44 55.48 43.8 55.48 48C55.48 52 52.12 55.4 48 55.4C43.88 55.4 40.52 52 40.52 48C40.52 43.8 43.88 40.44 48 40.44ZM29.48 80C32 81.52 37.52 79.2 43.88 73.2C41.8 70.84 39.76 68.28 37.84 65.6C34.6166 65.2915 31.412 64.8108 28.24 64.16C26.2 72.72 26.96 78.6 29.48 80ZM32.32 57.04L31.16 55C30.72 56.16 30.28 57.32 30 58.44C31.08 58.68 32.28 58.88 33.52 59.08L32.32 57.04ZM58.48 54L61.72 48L58.48 42C57.28 39.88 56 38 54.84 36.12C52.68 36 50.4 36 48 36C45.6 36 43.32 36 41.16 36.12C40 38 38.72 39.88 37.52 42L34.28 48L37.52 54C38.72 56.12 40 58 41.16 59.88C43.32 60 45.6 60 48 60C50.4 60 52.68 60 54.84 59.88C56 58 57.28 56.12 58.48 54ZM48 27.12C47.24 28 46.44 28.92 45.64 30H50.36C49.56 28.92 48.76 28 48 27.12ZM48 68.88C48.76 68 49.56 67.08 50.36 66H45.64C46.44 67.08 47.24 68 48 68.88ZM66.48 16C64 14.48 58.48 16.8 52.12 22.8C54.2 25.16 56.24 27.72 58.16 30.4C61.44 30.72 64.68 31.2 67.76 31.84C69.8 23.28 69.04 17.4 66.48 16ZM63.68 38.96L64.84 41C65.28 39.84 65.72 38.68 66 37.56C64.92 37.32 63.72 37.12 62.48 36.92L63.68 38.96ZM69.48 10.76C75.36 14.12 76 22.96 73.52 33.28C83.68 36.28 91 41.24 91 48C91 54.76 83.68 59.72 73.52 62.72C76 73.04 75.36 81.88 69.48 85.24C63.64 88.6 55.68 84.76 48 77.44C40.32 84.76 32.36 88.6 26.48 85.24C20.64 81.88 20 73.04 22.48 62.72C12.32 59.72 5 54.76 5 48C5 41.24 12.32 36.28 22.48 33.28C20 22.96 20.64 14.12 26.48 10.76C32.36 7.39999 40.32 11.24 48 18.56C55.68 11.24 63.64 7.39999 69.48 10.76ZM68.32 48C69.68 51 70.88 54 71.88 57.04C80.28 54.52 85 50.92 85 48C85 45.08 80.28 41.48 71.88 38.96C70.88 42 69.68 45 68.32 48ZM27.68 48C26.32 45 25.12 42 24.12 38.96C15.72 41.48 11 45.08 11 48C11 50.92 15.72 54.52 24.12 57.04C25.12 54 26.32 51 27.68 48ZM63.68 57.04L62.48 59.08C63.72 58.88 64.92 58.68 66 58.44C65.72 57.32 65.28 56.16 64.84 55L63.68 57.04ZM52.12 73.2C58.48 79.2 64 81.52 66.48 80C69.04 78.6 69.8 72.72 67.76 64.16C64.68 64.8 61.44 65.28 58.16 65.6C56.24 68.28 54.2 70.84 52.12 73.2ZM32.32 38.96L33.52 36.92C32.28 37.12 31.08 37.32 30 37.56C30.28 38.68 30.72 39.84 31.16 41L32.32 38.96ZM43.88 22.8C37.52 16.8 32 14.48 29.48 16C26.96 17.4 26.2 23.28 28.24 31.84C31.412 31.1892 34.6166 30.7085 37.84 30.4C39.76 27.72 41.8 25.16 43.88 22.8Z" fill="currentColor"/>
</svg>
