<svg width="64" height="64" viewBox="0 0 64 64" fill="none" xmlns="http://www.w3.org/2000/svg">
<path fill-rule="evenodd" clip-rule="evenodd" d="M64 12.4608C61.5999 13.5073 59.0583 14.1931 56.4576 14.496C59.188 12.8954 61.2407 10.3535 62.2304 7.3472C59.6481 8.8544 56.8298 9.91464 53.8944 10.4832C52.6569 9.18877 51.1692 8.15935 49.5217 7.45744C47.8742 6.75553 46.1012 6.39577 44.3104 6.4C37.0592 6.4 31.1808 12.1856 31.1808 19.328C31.1808 20.3392 31.296 21.3248 31.52 22.272C26.3184 22.0251 21.2254 20.6967 16.5659 18.3716C11.9063 16.0465 7.78254 12.7758 4.4576 8.768C3.29147 10.7341 2.67685 12.9781 2.6784 15.264C2.68186 17.4015 3.21791 19.5045 4.2381 21.3829C5.2583 23.2613 6.73048 24.8558 8.5216 26.0224C6.43924 25.9586 4.40122 25.405 2.5728 24.4064V24.5664C2.5728 30.8288 7.0976 36.0544 13.1008 37.2416C11.1668 37.7578 9.14181 37.8344 7.1744 37.4656C8.8448 42.5984 13.6928 46.336 19.44 46.4416C14.768 50.0432 9.03184 51.9905 3.1328 51.9776C2.08581 51.9767 1.03977 51.9147 0 51.792C6.02341 55.5962 13.0039 57.6105 20.128 57.6C44.2784 57.6 57.4848 37.904 57.4848 20.8256C57.4848 20.2656 57.472 19.7056 57.4464 19.152C60.012 17.331 62.2315 15.0629 64 12.4608Z" fill="currentColor"/>
</svg>
