<svg width="64" height="64" viewBox="0 0 64 64" fill="none" xmlns="http://www.w3.org/2000/svg">
<path d="M6.54419 42.828C7.2943 43.5779 8.31154 43.9992 9.37219 43.9992C10.4328 43.9992 11.4501 43.5779 12.2002 42.828L32.0002 23.028L51.8002 42.828C52.5546 43.5566 53.565 43.9598 54.6138 43.9507C55.6626 43.9416 56.6658 43.5209 57.4075 42.7793C58.1491 42.0377 58.5698 41.0344 58.5789 39.9856C58.588 38.9368 58.1848 37.9264 57.4562 37.172L34.8282 14.544C34.0781 13.7941 33.0608 13.3729 32.0002 13.3729C30.9395 13.3729 29.9223 13.7941 29.1722 14.544L6.54419 37.172C5.79431 37.9221 5.37305 38.9394 5.37305 40C5.37305 41.0607 5.79431 42.0779 6.54419 42.828Z" fill="currentColor"/>
</svg>
