<?xml version="1.0" standalone="no"?>
<!DOCTYPE svg PUBLIC "-//W3C//DTD SVG 20010904//EN"
 "http://www.w3.org/TR/2001/REC-SVG-20010904/DTD/svg10.dtd">
<svg version="1.0" xmlns="http://www.w3.org/2000/svg"
 width="1024.000000pt" height="1024.000000pt" viewBox="0 0 1024.000000 1024.000000"
 preserveAspectRatio="xMidYMid meet">
<metadata>
Created by potrace 1.16, written by Peter Selinger 2001-2019
</metadata>
<g transform="translate(0.000000,1024.000000) scale(0.100000,-0.100000)"
fill="#000000" stroke="none">
<path d="M1622 10228 c-7 -7 -54 -16 -105 -19 -91 -8 -149 -17 -237 -39 -25
-6 -57 -14 -73 -17 -15 -3 -30 -9 -33 -14 -3 -5 -14 -9 -25 -9 -10 0 -27 -4
-37 -9 -9 -5 -37 -18 -62 -29 -92 -40 -185 -87 -188 -94 -2 -5 -8 -8 -13 -8
-9 0 -158 -96 -169 -109 -3 -3 -23 -19 -45 -36 -52 -39 -213 -199 -250 -250
-17 -22 -33 -42 -36 -45 -35 -30 -178 -282 -221 -390 -6 -14 -14 -33 -19 -42
-5 -10 -9 -27 -9 -37 0 -11 -4 -22 -9 -25 -5 -3 -11 -18 -14 -33 -3 -16 -11
-48 -17 -73 -19 -78 -31 -142 -42 -240 -16 -132 -16 -7053 0 -7190 11 -97 22
-160 42 -240 6 -25 14 -57 17 -73 3 -15 9 -30 14 -33 5 -3 9 -14 9 -25 0 -10
4 -27 9 -37 5 -9 13 -28 19 -42 21 -54 97 -205 104 -208 5 -2 8 -8 8 -13 0
-13 93 -151 144 -214 53 -66 201 -213 251 -250 22 -17 42 -32 45 -36 32 -37
275 -175 390 -221 14 -6 33 -14 42 -19 10 -5 27 -9 37 -9 11 0 22 -4 25 -9 3
-5 18 -11 33 -14 16 -3 48 -11 73 -17 80 -20 143 -31 240 -42 137 -16 7058
-16 7190 0 98 11 162 23 240 42 25 6 57 14 73 17 15 3 30 9 33 14 3 5 14 9 25
9 10 0 27 4 37 9 9 5 28 13 42 19 54 21 205 97 208 104 2 5 8 8 13 8 13 0 151
93 214 144 66 53 213 201 250 251 17 22 32 42 36 45 37 32 175 275 221 390 6
14 14 33 19 42 5 10 9 27 9 37 0 11 4 23 10 26 5 3 10 19 10 35 0 16 4 31 9
34 5 3 11 20 14 38 4 18 11 58 17 88 6 30 15 99 18 152 4 54 13 103 20 110 17
17 18 6954 0 6960 -7 3 -14 45 -19 109 -4 57 -13 129 -19 159 -6 30 -13 70
-17 88 -3 18 -9 35 -14 38 -5 3 -9 18 -9 34 0 16 -4 32 -10 35 -5 3 -10 15
-10 26 0 10 -4 27 -9 37 -5 9 -13 28 -19 42 -21 54 -97 205 -104 208 -5 2 -8
8 -8 13 0 9 -96 158 -109 169 -3 3 -19 23 -36 45 -38 52 -198 212 -250 250
-22 17 -42 33 -45 36 -11 13 -160 109 -169 109 -5 0 -11 3 -13 8 -3 7 -154 83
-208 104 -14 6 -33 14 -42 19 -10 5 -27 9 -37 9 -11 0 -23 5 -26 10 -3 6 -19
10 -35 10 -16 0 -31 4 -34 9 -3 5 -20 11 -38 14 -18 4 -58 11 -88 17 -30 6
-100 15 -154 19 -64 4 -101 11 -104 19 -6 18 -6962 18 -6980 0z m4278 -2218
c127 -11 222 -23 320 -41 103 -19 232 -54 295 -79 11 -4 47 -18 80 -31 59 -23
158 -72 242 -120 216 -123 411 -344 508 -574 9 -22 21 -48 26 -57 5 -10 9 -27
9 -37 0 -11 4 -22 9 -25 5 -3 11 -20 14 -38 3 -18 11 -53 17 -78 47 -193 52
-559 9 -725 -6 -22 -15 -58 -21 -80 -61 -235 -216 -474 -411 -634 -95 -77
-204 -147 -305 -196 -45 -22 -82 -42 -82 -45 0 -4 24 -12 53 -19 412 -101 722
-349 896 -716 53 -112 57 -121 72 -170 6 -22 15 -49 20 -60 4 -11 10 -33 14
-50 3 -16 10 -48 16 -70 45 -183 60 -578 28 -740 -5 -27 -14 -75 -20 -105 -6
-30 -15 -66 -19 -80 -4 -14 -13 -45 -21 -70 -7 -25 -16 -49 -21 -54 -4 -6 -8
-16 -8 -24 0 -33 -138 -294 -169 -322 -4 -3 -19 -23 -35 -45 -68 -93 -273
-274 -376 -332 -19 -11 -57 -33 -85 -50 -27 -16 -66 -36 -85 -45 -81 -37 -147
-65 -180 -77 -19 -7 -44 -17 -55 -22 -27 -11 -113 -40 -150 -49 -240 -64 -336
-81 -625 -110 -68 -6 -628 -10 -1597 -10 l-1493 0 0 2988 c0 1644 3 2992 7
2995 11 12 2985 8 3123 -3z"/>
<path d="M3832 6333 l3 -818 920 0 c853 0 925 2 995 18 41 10 86 21 100 24 58
12 228 104 286 155 138 121 192 211 245 403 10 35 14 108 13 240 0 164 -4 202
-23 280 -44 172 -112 279 -231 362 -41 29 -78 52 -83 53 -4 0 -26 9 -50 20
-53 24 -138 47 -247 65 -69 12 -254 15 -1008 15 l-922 0 2 -817z"/>
<path d="M3830 3825 l0 -925 998 0 c1020 0 1058 2 1202 39 295 76 512 281 594
561 60 206 60 473 0 670 -82 273 -303 471 -604 543 -145 35 -205 37 -1199 37
l-991 0 0 -925z"/>
</g>
</svg>
