<?xml version="1.0" standalone="no"?>
<!DOCTYPE svg PUBLIC "-//W3C//DTD SVG 20010904//EN"
 "http://www.w3.org/TR/2001/REC-SVG-20010904/DTD/svg10.dtd">
<svg version="1.0" xmlns="http://www.w3.org/2000/svg"
 width="1024.000000pt" height="1024.000000pt" viewBox="0 0 1024.000000 1024.000000"
 preserveAspectRatio="xMidYMid meet">
<metadata>
Created by potrace 1.16, written by Peter Selinger 2001-2019
</metadata>
<g transform="translate(0.000000,1024.000000) scale(0.100000,-0.100000)"
fill="#000000" stroke="none">
<path d="M3192 9548 l3 -693 550 0 550 0 0 230 0 230 -317 3 -318 2 0 225 0
225 318 2 317 3 3 233 2 232 -555 0 -555 0 2 -692z"/>
<path d="M4512 9788 l3 -453 318 -3 317 -2 0 -35 0 -35 -317 -2 -318 -3 0
-210 0 -210 550 0 550 0 0 460 0 460 -317 3 -318 2 0 35 0 35 318 2 317 3 3
203 2 202 -555 0 -555 0 2 -452z"/>
<path d="M5832 9788 l3 -453 318 -3 317 -2 0 -35 0 -35 -317 -2 -318 -3 0
-210 0 -210 550 0 550 0 0 460 0 460 -317 3 -318 2 0 35 0 35 318 2 317 3 3
203 2 202 -555 0 -555 0 2 -452z"/>
<path d="M1474 8231 c-9 -9 -4 -90 6 -96 6 -3 10 -52 10 -110 0 -58 4 -107 10
-110 6 -3 10 -52 10 -110 0 -58 4 -107 10 -110 6 -4 10 -53 10 -115 0 -62 4
-111 10 -115 6 -4 10 -53 10 -115 0 -62 4 -111 10 -115 6 -3 10 -52 10 -110 0
-58 4 -107 10 -110 6 -3 10 -52 10 -110 0 -58 4 -107 10 -110 6 -4 10 -53 10
-115 0 -62 4 -111 10 -115 6 -4 10 -53 10 -115 0 -62 4 -111 10 -115 6 -3 10
-52 10 -110 0 -58 4 -107 10 -110 6 -3 10 -52 10 -110 0 -58 4 -107 10 -110 6
-3 10 -52 10 -110 0 -58 4 -107 10 -110 6 -4 10 -53 10 -115 0 -62 4 -111 10
-115 6 -4 10 -53 10 -115 0 -62 4 -111 10 -115 6 -3 10 -52 10 -110 0 -58 4
-107 10 -110 6 -3 10 -52 10 -110 0 -58 4 -107 10 -110 6 -3 10 -52 10 -110 0
-58 4 -107 10 -110 6 -4 10 -53 10 -115 0 -62 4 -111 10 -115 6 -4 10 -53 10
-115 0 -62 4 -111 10 -115 6 -3 10 -52 10 -110 0 -58 4 -107 10 -110 6 -3 10
-52 10 -110 0 -58 4 -107 10 -110 6 -4 10 -53 10 -115 0 -62 4 -111 10 -115 6
-4 10 -53 10 -115 0 -62 4 -111 10 -115 6 -3 10 -52 10 -110 0 -58 4 -107 10
-110 6 -3 10 -52 10 -110 0 -58 4 -107 10 -110 6 -3 10 -52 10 -110 0 -58 4
-107 10 -110 6 -4 10 -53 10 -115 0 -62 4 -111 10 -115 6 -4 10 -53 10 -115 0
-62 4 -111 10 -115 6 -3 10 -52 10 -110 0 -58 4 -107 10 -110 6 -3 10 -52 10
-110 0 -58 4 -107 10 -110 6 -3 10 -52 10 -110 0 -58 4 -107 10 -110 6 -4 10
-55 10 -120 0 -65 4 -116 10 -120 6 -3 10 -52 10 -110 0 -58 4 -107 10 -110 6
-3 10 -34 10 -69 0 -68 17 -96 58 -96 11 0 24 -5 27 -10 3 -6 21 -10 40 -10
19 0 37 -4 40 -10 3 -5 21 -10 40 -10 19 0 37 -5 40 -10 3 -6 17 -10 30 -10
13 0 27 -5 30 -10 3 -6 21 -10 40 -10 19 0 37 -4 40 -10 3 -5 17 -10 30 -10
13 0 27 -5 30 -11 4 -6 19 -9 35 -7 15 1 35 -3 43 -11 9 -7 27 -11 40 -9 13 1
32 -3 40 -11 9 -7 23 -11 31 -8 7 3 23 -1 35 -10 13 -9 32 -12 45 -9 15 4 28
0 36 -9 6 -7 18 -11 26 -8 8 3 22 -1 31 -8 8 -8 27 -12 40 -11 13 2 31 -2 40
-9 8 -8 28 -12 43 -11 14 2 32 -3 39 -11 6 -8 20 -13 30 -10 10 3 22 0 25 -6
4 -6 22 -11 41 -11 19 0 37 -4 40 -10 3 -5 17 -10 30 -10 13 0 27 -4 30 -10 3
-5 21 -10 40 -10 19 0 37 -4 40 -10 3 -5 21 -10 40 -10 19 0 37 -4 40 -10 3
-5 17 -10 30 -10 13 0 27 -4 30 -10 3 -5 21 -10 40 -10 19 0 37 -5 40 -10 3
-6 17 -10 30 -10 13 0 27 -4 30 -10 3 -5 21 -10 40 -10 19 0 37 -4 40 -10 3
-5 21 -10 40 -10 19 0 37 -4 40 -10 3 -5 17 -10 30 -10 13 0 27 -4 30 -10 3
-5 21 -10 40 -10 19 0 37 -4 40 -10 3 -5 17 -10 30 -10 13 0 27 -4 30 -10 3
-5 21 -10 40 -10 19 0 37 -5 40 -10 3 -6 21 -10 40 -10 19 0 37 -5 40 -10 3
-6 17 -10 30 -10 13 0 27 -4 30 -10 3 -5 21 -10 40 -10 19 0 37 -4 40 -10 3
-5 17 -10 30 -10 13 0 27 -4 30 -10 3 -5 21 -10 40 -10 19 0 37 -4 40 -10 3
-5 21 -10 40 -10 19 0 37 -5 40 -10 3 -6 17 -10 30 -10 13 0 27 -4 30 -10 3
-5 21 -10 40 -10 19 0 37 -4 40 -10 3 -5 21 -10 40 -10 19 0 37 -4 40 -10 3
-5 17 -10 30 -10 13 0 27 -5 30 -10 3 -6 21 -10 40 -10 19 0 37 -4 40 -10 3
-5 17 -10 30 -10 13 0 27 -4 30 -10 3 -5 21 -10 40 -10 19 0 37 -4 40 -10 8
-13 152 -13 160 0 3 6 17 10 30 10 13 0 27 4 30 10 3 5 21 10 40 10 19 0 37 5
40 10 3 6 21 10 40 10 19 0 37 5 40 10 3 6 17 10 30 10 13 0 27 5 30 10 3 6
21 10 40 10 19 0 37 5 40 10 3 6 17 10 30 10 13 0 27 4 30 10 3 5 21 10 40 10
19 0 37 4 40 10 3 5 21 10 40 10 19 0 37 5 40 10 3 6 17 10 30 10 13 0 27 5
30 10 3 6 21 10 40 10 19 0 37 5 40 10 3 6 17 10 30 10 13 0 27 5 30 10 3 6
21 10 40 10 19 0 37 5 40 10 3 6 21 10 40 10 19 0 37 5 40 10 3 6 17 10 30 10
13 0 27 5 30 10 3 6 21 10 40 10 19 0 37 5 40 10 3 6 21 10 40 10 19 0 37 4
40 10 3 5 17 10 30 10 13 0 27 4 30 10 3 5 21 10 40 10 19 0 37 5 40 10 3 6
17 10 30 10 13 0 27 5 30 10 3 6 21 10 40 10 19 0 37 5 40 10 3 6 21 10 40 10
19 0 37 5 40 10 3 6 17 10 30 10 13 0 27 5 30 10 3 6 21 10 40 10 19 0 37 5
41 11 3 6 15 9 25 6 10 -3 24 2 31 10 7 9 23 13 40 11 16 -3 33 1 39 9 6 7 26
13 45 13 18 0 36 5 40 11 3 6 15 9 25 6 10 -3 24 2 30 10 7 8 24 13 38 12 14
-2 35 2 46 8 11 6 26 8 33 6 7 -3 20 1 29 8 9 8 27 12 40 11 13 -2 31 2 40 9
8 8 28 12 43 11 14 -2 32 4 39 12 7 8 19 12 27 9 8 -3 22 1 30 8 9 8 29 12 44
11 16 -2 31 1 35 7 3 6 17 11 30 11 13 0 27 5 30 10 3 6 21 10 40 10 19 0 37
5 40 10 3 6 21 10 40 10 19 0 37 5 40 10 3 6 17 10 30 10 13 0 27 5 30 10 3 6
21 10 40 10 19 0 37 5 40 10 3 6 19 10 35 10 16 0 32 5 35 10 3 6 19 10 34 10
46 0 61 27 61 108 0 39 5 74 10 77 6 3 10 52 10 110 0 58 4 107 10 110 6 3 10
52 10 110 0 58 4 107 10 110 6 3 10 52 10 110 0 58 4 107 10 110 6 3 10 52 10
110 0 58 4 107 10 110 6 4 10 55 10 120 0 65 4 116 10 120 6 3 10 52 10 110 0
58 4 107 10 110 6 3 10 52 10 110 0 58 4 107 10 110 6 3 10 52 10 110 0 58 4
107 10 110 6 3 10 52 10 110 0 58 4 107 10 110 6 4 10 55 10 120 0 65 4 116
10 120 6 3 10 52 10 110 0 58 4 107 10 110 6 3 10 52 10 110 0 58 4 107 10
110 6 3 10 52 10 110 0 58 4 107 10 110 6 3 10 52 10 110 0 58 4 107 10 110 6
4 10 55 10 120 0 65 4 116 10 120 6 3 10 52 10 110 0 58 4 107 10 110 6 3 10
52 10 110 0 58 4 107 10 110 6 3 10 52 10 110 0 58 4 107 10 110 6 4 10 53 10
115 0 62 4 111 10 115 6 4 10 53 10 115 0 62 4 111 10 115 6 3 10 52 10 110 0
58 4 107 10 110 6 3 10 52 10 110 0 58 4 107 10 110 6 3 10 52 10 110 0 58 4
107 10 110 6 4 10 53 10 115 0 62 4 111 10 115 6 4 10 53 10 115 0 62 4 111
10 115 6 3 10 52 10 110 0 58 4 107 10 110 6 3 10 52 10 110 0 58 4 107 10
110 6 3 10 52 10 110 0 58 4 107 10 110 6 4 10 53 10 115 0 62 4 111 10 115 6
4 10 53 10 115 0 62 4 111 10 115 6 3 10 52 10 110 0 58 4 107 10 110 6 3 10
51 10 109 0 59 5 107 11 113 5 5 9 30 7 54 l-3 44 -3638 0 c-2001 0 -3641 -2
-3643 -4z m5901 -1601 c0 -41 -6 -133 -13 -205 -27 -290 -45 -494 -62 -695 -6
-63 -15 -163 -20 -222 -6 -60 -14 -156 -20 -215 -5 -60 -14 -160 -19 -223 -6
-63 -15 -164 -21 -225 -6 -60 -15 -162 -21 -225 -5 -63 -14 -164 -19 -225 -5
-60 -14 -159 -20 -220 -5 -60 -14 -162 -20 -225 -5 -63 -14 -164 -20 -225 -14
-155 -29 -321 -40 -455 -14 -153 -27 -300 -39 -440 -45 -486 -52 -563 -59
-660 l-7 -85 -40 -13 c-42 -14 -130 -39 -255 -73 -41 -11 -88 -24 -105 -29
-16 -4 -57 -16 -90 -25 -33 -9 -91 -25 -130 -36 -38 -11 -88 -24 -110 -30 -22
-6 -51 -15 -65 -19 -25 -8 -47 -14 -180 -50 -133 -36 -155 -42 -180 -50 -14
-4 -43 -13 -65 -18 -22 -6 -74 -21 -115 -32 -41 -12 -93 -26 -115 -32 -22 -6
-51 -14 -65 -18 -14 -4 -43 -13 -65 -19 -22 -6 -88 -24 -146 -41 -127 -36
-140 -36 -233 -10 -39 11 -102 30 -141 41 -38 11 -86 24 -105 29 -95 26 -192
53 -255 71 -38 11 -86 24 -105 29 -42 12 -310 86 -360 100 -19 5 -116 32 -215
60 -99 28 -209 59 -245 69 -161 47 -289 81 -303 81 -36 0 -30 -51 -133 1107
-15 165 -24 308 -21 317 6 14 53 16 451 16 l446 0 4 -22 c3 -13 10 -79 16
-148 13 -149 25 -283 41 -440 l11 -116 81 -22 c45 -12 150 -40 232 -62 83 -22
200 -54 260 -70 466 -128 429 -121 535 -91 19 5 70 19 113 30 42 12 112 30
155 42 42 11 91 24 107 29 17 5 64 18 105 29 41 10 127 33 190 51 63 17 143
38 178 47 72 19 66 4 82 188 11 137 25 287 40 445 5 52 14 158 20 235 6 77 15
176 21 219 5 44 9 85 9 93 0 11 -263 13 -1562 13 -860 0 -1568 4 -1574 8 -9 5
-65 569 -87 867 l-2 30 1650 5 1650 5 11 100 c10 93 20 202 44 485 6 63 15
161 21 217 6 56 8 107 4 112 -4 8 -534 11 -1736 11 -1030 0 -1729 4 -1729 9 0
5 -18 206 -40 446 -22 240 -40 441 -40 446 0 5 909 8 2268 7 l2267 -3 0 -75z"/>
</g>
</svg>
