<?xml version="1.0" standalone="no"?>
<!DOCTYPE svg PUBLIC "-//W3C//DTD SVG 20010904//EN"
 "http://www.w3.org/TR/2001/REC-SVG-20010904/DTD/svg10.dtd">
<svg version="1.0" xmlns="http://www.w3.org/2000/svg"
 width="1024.000000pt" height="1024.000000pt" viewBox="0 0 1024.000000 1024.000000"
 preserveAspectRatio="xMidYMid meet">
<metadata>
Created by potrace 1.16, written by Peter Selinger 2001-2019
</metadata>
<g transform="translate(0.000000,1024.000000) scale(0.100000,-0.100000)"
fill="currentColor" stroke="none">
<path d="M5020 10230 c0 -5 -8 -10 -18 -10 -28 0 -136 -73 -165 -111 -35 -48
-63 -114 -76 -183 -15 -81 -15 -972 0 -1069 15 -95 42 -151 104 -212 58 -58
117 -89 196 -105 143 -28 308 63 376 207 l28 58 0 585 0 585 -24 50 c-14 28
-38 67 -55 88 -33 42 -130 107 -158 107 -10 0 -18 5 -18 10 0 6 -38 10 -95 10
-57 0 -95 -4 -95 -10z"/>
<path d="M1630 8831 c-8 -5 -28 -15 -45 -22 -65 -30 -134 -99 -164 -164 -7
-17 -17 -38 -22 -47 -12 -23 -12 -193 0 -216 5 -9 19 -37 30 -62 16 -33 126
-150 404 -426 210 -210 397 -391 415 -404 79 -53 218 -77 289 -49 137 56 196
115 252 252 28 71 4 210 -49 289 -13 18 -194 205 -404 415 -276 278 -393 388
-426 404 -25 11 -53 25 -62 30 -22 11 -198 11 -218 0z"/>
<path d="M8380 8830 c-8 -4 -33 -16 -55 -25 -28 -12 -152 -129 -418 -394 -366
-363 -445 -452 -462 -516 -14 -56 -17 -166 -5 -198 52 -137 113 -199 253 -256
71 -28 210 -4 289 49 18 13 205 194 415 404 278 276 388 393 404 426 11 25 25
53 30 62 12 23 12 193 0 216 -5 9 -17 34 -26 54 -9 21 -38 60 -65 88 -28 27
-67 56 -88 65 -20 9 -45 21 -54 26 -22 11 -198 11 -218 -1z"/>
<path d="M4835 7825 c-183 -22 -245 -33 -370 -66 -184 -47 -191 -49 -240 -69
-11 -4 -47 -18 -80 -30 -336 -124 -687 -352 -955 -620 -168 -167 -311 -355
-446 -585 -49 -82 -138 -272 -172 -365 -11 -30 -28 -75 -37 -100 -19 -49 -19
-49 -64 -225 -33 -128 -44 -187 -66 -385 -24 -211 -17 -437 24 -725 14 -101
78 -348 111 -430 4 -11 18 -47 30 -80 124 -336 352 -687 620 -955 168 -169
352 -309 590 -449 81 -48 262 -133 363 -170 279 -103 404 -132 707 -166 221
-24 435 -17 725 24 55 8 155 30 230 51 17 5 50 14 75 20 43 12 84 26 208 71
96 36 284 124 367 173 286 168 493 337 702 571 74 83 231 289 241 315 3 8 18
33 32 55 73 107 176 314 230 460 12 33 26 69 30 80 19 46 19 48 60 200 40 150
49 199 75 420 33 285 8 636 -66 920 -47 184 -49 191 -69 240 -4 11 -18 47 -30
80 -46 125 -127 292 -193 400 -28 44 -59 96 -69 115 -53 92 -239 321 -358 440
-115 116 -391 340 -440 358 -8 3 -33 18 -55 32 -105 72 -315 177 -455 228 -30
11 -75 28 -100 37 -49 19 -49 19 -225 64 -282 73 -650 99 -930 66z m453 -705
c120 -12 220 -28 292 -47 30 -8 71 -18 90 -23 35 -7 57 -14 95 -30 11 -4 36
-13 55 -20 72 -25 226 -98 310 -146 279 -162 562 -445 724 -724 48 -84 121
-238 146 -310 7 -19 16 -44 20 -55 16 -38 23 -60 30 -95 5 -19 15 -60 22 -90
33 -126 58 -328 58 -471 0 -128 -30 -359 -61 -474 -5 -22 -14 -56 -18 -75 -8
-35 -16 -57 -31 -95 -4 -11 -13 -36 -20 -55 -19 -55 -25 -69 -74 -170 -110
-225 -214 -371 -390 -546 -179 -178 -322 -280 -546 -390 -101 -49 -115 -55
-170 -74 -19 -7 -44 -16 -55 -20 -38 -16 -60 -23 -95 -30 -19 -5 -60 -15 -90
-22 -283 -75 -647 -75 -930 0 -30 7 -71 17 -90 22 -35 7 -57 14 -95 30 -11 4
-36 13 -55 20 -120 41 -292 130 -429 222 -42 28 -78 54 -81 57 -3 3 -23 19
-45 35 -56 42 -263 248 -305 304 -19 26 -38 49 -41 52 -9 8 -106 153 -133 201
-26 45 -112 218 -126 254 -4 11 -13 36 -20 55 -7 19 -16 44 -20 55 -16 38 -23
60 -30 95 -5 19 -15 60 -22 90 -75 283 -75 647 0 930 7 30 17 71 22 90 7 35
14 57 30 95 4 11 13 36 20 55 19 55 25 69 74 170 110 224 212 367 390 546 175
176 321 280 546 390 101 49 115 55 170 74 19 7 44 16 55 20 38 16 60 23 95 30
19 5 60 15 90 23 179 47 442 67 638 47z"/>
<path d="M270 5463 c-84 -15 -179 -85 -230 -169 -35 -58 -35 -59 -35 -179 0
-114 1 -123 28 -168 45 -76 83 -113 154 -149 l66 -33 591 0 591 0 54 29 c180
94 252 297 169 474 -28 59 -103 134 -169 169 l-54 28 -570 1 c-314 1 -581 0
-595 -3z"/>
<path d="M8810 5461 c-59 -12 -111 -43 -164 -95 -115 -115 -142 -264 -73 -406
29 -60 110 -140 172 -170 l50 -25 590 0 590 0 50 24 c28 12 65 34 84 48 38 29
111 137 111 165 0 10 5 18 10 18 6 0 10 38 10 95 0 57 -4 95 -10 95 -5 0 -10
8 -10 18 0 28 -65 125 -107 159 -21 17 -59 41 -83 54 l-45 24 -570 1 c-313 1
-586 -1 -605 -5z"/>
<path d="M2328 2780 c-25 -9 -61 -28 -80 -40 -18 -13 -205 -194 -415 -404
-278 -276 -388 -393 -404 -426 -11 -25 -25 -53 -30 -62 -12 -23 -12 -193 0
-216 5 -9 15 -30 22 -47 16 -35 34 -59 70 -94 46 -47 66 -59 142 -90 33 -13
190 -15 215 -2 9 5 37 19 62 30 33 16 150 126 426 404 210 210 391 397 404
415 53 79 77 218 49 289 -56 137 -115 196 -252 252 -41 16 -155 12 -209 -9z"/>
<path d="M7690 2788 c-138 -58 -194 -115 -249 -251 -28 -71 -4 -210 49 -289
13 -18 194 -205 404 -415 276 -278 393 -388 426 -404 25 -11 53 -25 62 -30 24
-12 205 -11 213 1 3 6 13 10 21 10 21 0 131 76 144 99 5 11 16 25 22 33 7 7
19 27 27 43 7 17 17 38 22 47 12 23 12 193 0 216 -5 9 -19 37 -30 62 -16 33
-126 150 -404 426 -210 210 -397 391 -415 404 -79 53 -223 77 -292 48z"/>
<path d="M5045 1686 c-78 -19 -126 -46 -181 -101 -108 -110 -113 -142 -113
-744 -1 -309 3 -497 10 -540 20 -115 67 -188 162 -253 l62 -43 125 0 126 0 58
35 c64 39 110 91 147 165 l24 50 0 585 0 585 -28 58 c-50 106 -146 181 -265
206 -62 13 -62 13 -127 -3z"/>
</g>
</svg>
