<?xml version="1.0" standalone="no"?>
<!DOCTYPE svg PUBLIC "-//W3C//DTD SVG 20010904//EN"
 "http://www.w3.org/TR/2001/REC-SVG-20010904/DTD/svg10.dtd">
<svg version="1.0" xmlns="http://www.w3.org/2000/svg"
 width="1024.000000pt" height="1024.000000pt" viewBox="0 0 1024.000000 1024.000000"
 preserveAspectRatio="xMidYMid meet">
<metadata>
Created by potrace 1.16, written by Peter Selinger 2001-2019
</metadata>
<g transform="translate(0.000000,1024.000000) scale(0.100000,-0.100000)"
fill="#000000" stroke="none">
<path d="M2158 9554 c-2 -377 0 -690 3 -695 3 -5 102 -8 235 -7 l229 3 3 228
2 227 206 -2 205 -3 2 -225 2 -225 230 0 230 0 3 693 2 692 -235 0 -235 0 0
-230 0 -230 -205 0 -205 0 0 230 0 230 -235 0 -235 0 -2 -686z"/>
<path d="M3712 10008 l3 -233 197 -3 198 -2 2 -458 3 -457 230 0 230 0 3 458
2 457 195 0 c148 0 197 3 200 13 3 6 6 112 7 235 l3 222 -638 0 -637 0 2 -232z"/>
<path d="M5180 9550 l0 -690 23 -5 c12 -3 114 -4 227 -3 l205 3 5 334 5 335
154 -237 c84 -130 157 -237 161 -237 4 0 39 48 76 108 124 195 226 347 235
350 5 2 10 -138 11 -325 l3 -328 225 0 225 0 3 693 2 692 -242 0 -243 -1 -39
-67 c-118 -203 -249 -411 -257 -406 -5 3 -24 31 -42 62 -19 31 -80 132 -135
223 -56 92 -102 172 -102 178 0 8 -73 11 -250 11 l-250 0 0 -690z"/>
<path d="M6972 9548 l3 -693 555 0 555 0 3 221 c2 176 0 224 -11 232 -9 8
-114 13 -328 14 l-314 3 4 458 3 457 -236 0 -236 0 2 -692z"/>
<path d="M1474 8231 c-9 -9 -4 -90 6 -96 6 -4 10 -53 10 -115 0 -62 4 -111 10
-115 6 -4 10 -53 10 -115 0 -62 4 -111 10 -115 6 -3 10 -52 10 -110 0 -58 4
-107 10 -110 6 -3 10 -52 10 -110 0 -58 4 -107 10 -110 6 -3 10 -52 10 -110 0
-58 4 -107 10 -110 6 -4 10 -55 10 -120 0 -65 4 -116 10 -120 6 -3 10 -52 10
-110 0 -58 4 -107 10 -110 6 -3 10 -52 10 -110 0 -58 4 -107 10 -110 6 -3 10
-52 10 -110 0 -58 4 -107 10 -110 6 -4 10 -53 10 -115 0 -62 4 -111 10 -115 6
-4 10 -53 10 -115 0 -62 4 -111 10 -115 6 -3 10 -52 10 -110 0 -58 4 -107 10
-110 6 -3 10 -52 10 -110 0 -58 4 -107 10 -110 6 -3 10 -52 10 -110 0 -58 4
-107 10 -110 6 -4 10 -55 10 -120 0 -65 4 -116 10 -120 6 -3 10 -52 10 -110 0
-58 4 -107 10 -110 6 -3 10 -52 10 -110 0 -58 4 -107 10 -110 6 -3 10 -52 10
-110 0 -58 4 -107 10 -110 6 -4 10 -53 10 -115 0 -62 4 -111 10 -115 6 -4 10
-53 10 -115 0 -62 4 -111 10 -115 6 -3 10 -52 10 -110 0 -58 4 -107 10 -110 6
-3 10 -52 10 -110 0 -58 4 -107 10 -110 6 -3 10 -52 10 -110 0 -58 4 -107 10
-110 6 -4 10 -55 10 -120 0 -65 4 -116 10 -120 6 -3 10 -52 10 -110 0 -58 4
-107 10 -110 6 -3 10 -52 10 -110 0 -58 4 -107 10 -110 6 -3 10 -52 10 -110 0
-58 4 -107 10 -110 6 -4 10 -53 10 -115 0 -62 4 -111 10 -115 6 -4 10 -53 10
-115 0 -62 4 -111 10 -115 6 -3 10 -52 10 -110 0 -58 4 -107 10 -110 6 -3 10
-52 10 -110 0 -58 4 -107 10 -110 6 -3 10 -53 10 -114 0 -59 4 -111 9 -117 6
-5 11 -40 13 -79 l3 -70 35 -3 c19 -2 39 -8 45 -13 5 -5 24 -9 41 -9 18 0 36
-4 39 -10 3 -5 17 -10 30 -10 13 0 27 -4 30 -10 3 -5 21 -10 40 -10 19 0 37
-5 40 -10 3 -6 17 -10 30 -10 13 0 27 -5 30 -10 3 -6 21 -10 40 -10 19 0 37
-5 40 -11 4 -6 19 -9 35 -7 15 1 35 -3 44 -11 8 -7 22 -11 30 -8 8 3 20 -1 27
-9 7 -8 26 -14 43 -12 18 1 38 -2 46 -7 8 -5 22 -8 32 -7 9 2 19 -2 23 -8 3
-5 21 -10 39 -10 19 0 39 -6 45 -13 6 -8 23 -12 39 -9 17 2 33 -2 41 -12 7 -8
19 -12 27 -9 8 3 22 -1 30 -8 9 -8 29 -12 44 -11 16 2 31 -1 35 -7 3 -6 21
-11 40 -11 19 0 37 -4 40 -10 3 -5 17 -10 30 -10 13 0 27 -4 30 -10 3 -5 21
-10 40 -10 19 0 37 -4 40 -10 3 -5 17 -10 30 -10 13 0 27 -4 30 -10 3 -5 21
-10 40 -10 19 0 37 -4 40 -10 3 -5 21 -10 40 -10 19 0 37 -5 40 -10 3 -6 17
-10 30 -10 13 0 27 -4 30 -10 3 -5 21 -10 40 -10 19 0 37 -4 40 -10 3 -5 17
-10 30 -10 13 0 27 -4 30 -10 3 -5 21 -10 40 -10 19 0 37 -4 40 -10 3 -5 21
-10 40 -10 19 0 37 -4 40 -10 3 -5 17 -10 30 -10 13 0 27 -4 30 -10 3 -5 21
-10 40 -10 19 0 37 -5 40 -10 3 -6 17 -10 30 -10 13 0 27 -4 30 -10 3 -5 21
-10 40 -10 19 0 37 -4 40 -10 3 -5 21 -10 40 -10 19 0 37 -4 40 -10 3 -5 17
-10 30 -10 13 0 27 -4 30 -10 3 -5 21 -10 40 -10 19 0 37 -4 40 -10 3 -5 21
-10 40 -10 19 0 37 -5 40 -10 3 -6 17 -10 30 -10 13 0 27 -4 30 -10 3 -5 21
-10 40 -10 19 0 37 -4 40 -10 3 -5 17 -10 30 -10 13 0 27 -4 30 -10 3 -5 21
-10 40 -10 19 0 37 -5 40 -10 3 -6 21 -10 40 -10 19 0 37 -4 40 -10 3 -5 17
-10 30 -10 13 0 27 -4 30 -10 3 -5 21 -10 40 -10 19 0 37 -4 40 -10 8 -13 152
-13 160 0 3 6 17 10 30 10 13 0 27 4 30 10 3 5 21 10 40 10 19 0 37 5 40 10 3
6 21 10 40 10 19 0 37 5 40 10 3 6 17 10 30 10 13 0 27 5 30 10 3 6 21 10 40
10 19 0 37 5 40 10 3 6 17 10 30 10 13 0 27 4 30 10 3 5 21 10 40 10 19 0 37
4 40 10 3 5 21 10 40 10 19 0 37 5 40 10 3 6 17 10 30 10 13 0 27 5 30 10 3 6
21 10 40 10 19 0 37 5 40 10 3 6 17 10 30 10 13 0 27 5 30 10 3 6 21 10 40 10
19 0 37 5 40 10 3 6 21 10 40 10 19 0 37 5 40 10 3 6 17 10 30 10 13 0 27 5
30 10 3 6 21 10 40 10 19 0 37 5 40 10 3 6 17 10 30 10 13 0 27 5 30 10 3 6
21 10 40 10 19 0 37 4 40 10 3 5 21 10 40 10 19 0 37 5 40 10 3 6 17 10 30 10
13 0 27 5 30 10 3 6 21 10 40 10 19 0 37 5 40 10 3 6 21 10 40 10 19 0 37 5
40 10 3 6 17 10 30 10 13 0 27 5 30 10 3 6 21 10 40 10 19 0 37 5 40 10 3 6
17 10 30 10 13 0 27 5 31 11 3 6 19 9 35 7 17 -3 34 1 40 9 6 7 26 13 45 13
18 0 36 5 40 11 3 6 15 9 25 6 10 -3 24 2 30 10 7 8 25 13 39 11 15 -1 35 3
44 11 8 7 22 11 29 8 7 -3 21 1 30 8 10 7 26 11 37 8 10 -3 28 2 40 10 12 8
30 13 40 10 10 -3 29 2 41 10 11 9 28 13 35 10 8 -3 22 1 30 8 9 8 29 12 44
11 16 -2 31 1 35 7 3 6 17 11 30 11 13 0 27 5 30 10 3 6 21 10 40 10 19 0 37
5 40 10 3 6 21 10 40 10 19 0 37 5 40 10 3 6 17 10 30 10 13 0 27 5 30 10 3 6
21 10 40 10 19 0 37 5 40 10 3 6 19 10 35 10 16 0 32 5 35 10 3 6 19 10 34 10
44 0 61 27 61 98 0 33 5 64 10 67 6 3 10 52 10 110 0 58 4 107 10 110 6 3 10
52 10 110 0 58 4 107 10 110 6 3 10 52 10 110 0 58 4 107 10 110 6 4 10 55 10
120 0 65 4 116 10 120 6 3 10 52 10 110 0 58 4 107 10 110 6 3 10 52 10 110 0
58 4 107 10 110 6 3 10 52 10 110 0 58 4 107 10 110 6 4 10 53 10 115 0 62 4
111 10 115 6 4 10 53 10 115 0 62 4 111 10 115 6 3 10 52 10 110 0 58 4 107
10 110 6 3 10 52 10 110 0 58 4 107 10 110 6 3 10 52 10 110 0 58 4 107 10
110 6 4 10 55 10 120 0 65 4 116 10 120 6 3 10 52 10 110 0 58 4 107 10 110 6
3 10 52 10 110 0 58 4 107 10 110 6 3 10 52 10 110 0 58 4 107 10 110 6 4 10
53 10 115 0 62 4 111 10 115 6 4 10 53 10 115 0 62 4 111 10 115 6 3 10 52 10
110 0 58 4 107 10 110 6 4 10 53 10 115 0 62 4 111 10 115 6 3 10 50 10 105 0
55 4 102 10 105 6 4 10 53 10 115 0 62 4 111 10 115 6 4 10 53 10 115 0 62 4
111 10 115 6 3 10 52 10 110 0 58 4 107 10 110 6 3 10 52 10 110 0 58 4 107
10 110 6 3 10 52 10 110 0 58 4 107 10 110 6 4 10 55 10 120 0 65 4 116 10
120 6 3 10 52 10 110 0 58 4 107 10 110 6 3 10 52 10 110 0 58 4 107 10 110 6
3 10 52 10 110 0 58 4 107 10 110 6 4 10 53 10 115 0 62 4 111 10 115 6 3 10
53 10 114 0 62 4 111 11 118 5 5 9 30 7 53 l-3 43 -3638 1 c-2001 0 -3641 -1
-3643 -3z m5906 -1531 c5 -9 1 -85 -20 -300 -24 -257 -30 -320 -40 -440 -6
-69 -13 -132 -15 -141 -5 -14 -93 -16 -900 -21 -492 -4 -1270 -4 -1730 0
l-835 5 0 -24 c-1 -31 70 -857 76 -885 l4 -22 1639 5 c1285 3 1641 1 1647 -8
10 -18 5 -242 -6 -253 -6 -6 -10 -55 -10 -111 0 -56 -4 -105 -9 -110 -5 -6
-12 -53 -15 -105 -5 -91 -13 -193 -36 -440 -6 -63 -15 -167 -21 -230 -12 -136
-24 -271 -39 -435 -6 -66 -15 -169 -21 -230 -5 -60 -14 -157 -19 -215 -5 -58
-14 -157 -20 -220 -5 -63 -14 -167 -19 -230 -18 -201 -19 -205 -55 -218 -18
-7 -41 -12 -52 -12 -11 0 -24 -4 -30 -9 -5 -4 -31 -14 -59 -21 -27 -7 -70 -19
-95 -26 -25 -7 -119 -34 -210 -59 -91 -25 -187 -53 -215 -60 -27 -8 -115 -33
-195 -55 -80 -22 -161 -45 -180 -50 -19 -5 -100 -28 -180 -50 -128 -35 -210
-59 -315 -90 -16 -5 -73 -21 -125 -34 -52 -14 -112 -30 -133 -36 -33 -10 -57
-5 -220 41 -100 28 -229 64 -287 79 -99 26 -145 39 -323 90 -39 11 -110 31
-157 44 -47 13 -155 44 -240 68 -85 25 -193 55 -240 68 -47 12 -105 28 -130
37 -25 8 -56 17 -70 19 -14 3 -45 12 -70 21 -25 8 -58 17 -75 20 -16 2 -43 12
-60 22 -29 17 -30 19 -33 107 -1 49 -6 98 -11 109 -6 11 -12 72 -15 135 -3 63
-10 160 -16 215 -5 55 -14 152 -19 215 -6 63 -15 167 -21 230 -6 63 -15 165
-20 225 -5 61 -13 129 -16 153 l-6 42 455 0 c347 0 458 -3 463 -12 8 -12 11
-41 34 -333 6 -82 17 -201 23 -264 l12 -115 30 -8 c17 -5 122 -33 235 -62 197
-52 369 -98 623 -166 l119 -31 96 25 c54 14 149 40 212 57 63 17 131 35 150
39 19 5 103 27 185 49 247 66 299 80 329 85 16 3 30 6 31 8 2 2 8 59 14 128 6
69 15 170 21 225 49 519 64 692 64 755 l1 65 -545 2 c-300 2 -1005 3 -1567 3
l-1023 0 0 64 c0 36 -4 68 -10 71 -6 3 -10 51 -10 109 0 56 -4 106 -9 112 -6
5 -12 56 -15 114 -3 58 -8 150 -11 205 -3 55 -10 109 -15 120 -5 11 -11 70
-14 130 -3 61 -10 157 -15 215 -26 274 -48 520 -60 665 -6 66 -12 129 -15 140
-3 11 -7 52 -10 90 -5 79 -42 500 -54 618 -4 43 -5 82 -2 87 11 18 4528 19
4540 0z"/>
</g>
</svg>
