<svg width="96" height="96" viewBox="0 0 96 96" fill="none" xmlns="http://www.w3.org/2000/svg">
<path d="M6 6V90H90V6H6ZM51.714 71.511C51.714 79.686 46.914 83.418 39.921 83.418C33.603 83.418 29.946 80.157 28.071 76.2L34.503 72.318C35.742 74.511 36.867 76.368 39.585 76.368C42.171 76.368 43.821 75.354 43.821 71.4V44.568H51.714V71.511ZM70.386 83.418C63.054 83.418 58.311 79.932 56.004 75.354L62.436 71.643C64.125 74.4 66.336 76.443 70.218 76.443C73.479 76.443 75.582 74.811 75.582 72.543C75.582 69.843 73.443 68.886 69.825 67.293L67.857 66.45C62.157 64.032 58.389 60.975 58.389 54.543C58.389 48.618 62.907 44.118 69.939 44.118C74.964 44.118 78.564 45.861 81.153 50.436L75.003 54.375C73.653 51.957 72.189 51 69.921 51C67.617 51 66.153 52.464 66.153 54.375C66.153 56.739 67.617 57.693 71.01 59.175L72.978 60.018C79.692 62.886 83.46 65.832 83.46 72.429C83.46 79.518 77.871 83.415 70.389 83.415L70.386 83.418Z" fill="currentColor"/>
</svg>
