<?xml version="1.0" standalone="no"?>
<!DOCTYPE svg PUBLIC "-//W3C//DTD SVG 20010904//EN"
 "http://www.w3.org/TR/2001/REC-SVG-20010904/DTD/svg10.dtd">
<svg version="1.0" xmlns="http://www.w3.org/2000/svg"
 width="1024.000000pt" height="1024.000000pt" viewBox="0 0 1024.000000 1024.000000"
 preserveAspectRatio="xMidYMid meet">
<metadata>
Created by potrace 1.16, written by Peter Selinger 2001-2019
</metadata>
<g transform="translate(0.000000,1024.000000) scale(0.100000,-0.100000)"
fill="#000000" stroke="none">
<path d="M7615 5589 c-162 -21 -222 -33 -345 -70 -226 -69 -451 -213 -598
-383 -171 -199 -262 -417 -292 -706 -18 -169 14 -441 71 -603 74 -212 216
-415 396 -566 144 -119 384 -262 608 -361 28 -12 74 -33 103 -46 29 -13 55
-24 57 -24 2 0 33 -13 67 -28 35 -16 99 -44 143 -63 319 -136 494 -247 575
-364 61 -89 90 -260 59 -356 -57 -179 -201 -294 -434 -345 -81 -18 -321 -18
-416 0 -283 55 -493 205 -688 494 -23 34 -46 62 -52 62 -9 0 -56 -26 -234
-130 -16 -10 -86 -50 -155 -90 -69 -40 -138 -80 -155 -90 -16 -10 -70 -41
-120 -70 -49 -28 -95 -56 -102 -62 -16 -13 7 -59 106 -208 114 -172 307 -361
482 -473 112 -72 164 -99 324 -168 34 -15 198 -66 248 -78 289 -68 541 -85
817 -56 209 22 279 36 465 97 302 100 572 307 720 553 124 206 175 406 175
689 0 320 -64 553 -213 776 -76 113 -250 280 -392 376 -155 105 -176 117 -385
222 -166 82 -201 99 -295 138 -22 9 -64 27 -93 40 -29 13 -55 24 -57 24 -32 0
-423 201 -488 250 -142 109 -202 253 -177 430 19 133 98 237 230 299 l75 35
150 1 c162 0 212 -11 322 -73 67 -37 168 -142 232 -240 29 -45 58 -82 64 -82
11 0 85 47 329 207 71 45 130 83 133 83 3 0 46 27 94 60 49 32 109 70 132 84
24 13 48 30 53 38 6 11 -14 49 -74 139 -168 250 -412 453 -650 538 -19 7 -44
17 -55 21 -19 7 -72 22 -145 40 -166 42 -448 59 -615 39z"/>
<path d="M4603 5524 c-3 -9 -3 -739 1 -1623 7 -1635 5 -1778 -30 -1910 -48
-185 -153 -284 -339 -317 -216 -39 -399 14 -534 155 -41 43 -181 242 -181 257
0 4 -12 22 -26 41 l-25 33 -27 -19 c-15 -10 -43 -28 -62 -39 -19 -11 -96 -57
-170 -102 -74 -45 -151 -91 -170 -102 -19 -11 -47 -29 -62 -39 -14 -11 -29
-19 -33 -19 -3 0 -26 -13 -50 -30 -24 -16 -46 -30 -50 -30 -4 0 -26 -13 -50
-30 -24 -16 -48 -30 -54 -30 -6 0 -11 -4 -11 -9 0 -5 -9 -11 -20 -14 -11 -3
-20 -12 -20 -20 0 -27 119 -240 150 -267 3 -3 18 -23 34 -45 52 -72 239 -250
316 -302 121 -81 268 -152 395 -190 133 -40 171 -48 360 -73 242 -31 598 11
830 100 55 21 198 94 253 129 79 52 218 185 282 271 82 111 164 287 205 445
65 246 66 305 63 2145 l-3 1645 -483 3 c-440 2 -483 1 -489 -14z"/>
</g>
</svg>
