<?xml version="1.0" standalone="no"?>
<!DOCTYPE svg PUBLIC "-//W3C//DTD SVG 20010904//EN"
 "http://www.w3.org/TR/2001/REC-SVG-20010904/DTD/svg10.dtd">
<svg version="1.0" xmlns="http://www.w3.org/2000/svg"
 width="1024.000000pt" height="1024.000000pt" viewBox="0 0 1024.000000 1024.000000"
 preserveAspectRatio="xMidYMid meet">
<metadata>
Created by potrace 1.16, written by Peter Selinger 2001-2019
</metadata>
<g transform="translate(0.000000,1024.000000) scale(0.100000,-0.100000)"
fill="currentColor" stroke="none">
<path d="M3798 10234 c-3 -3 -104 -38 -224 -78 -121 -41 -244 -85 -274 -99
-30 -14 -83 -37 -118 -51 -120 -48 -148 -61 -292 -134 -180 -92 -287 -150
-320 -172 -14 -10 -56 -37 -95 -60 -38 -24 -99 -61 -135 -83 -55 -34 -211
-146 -376 -271 -22 -17 -70 -56 -105 -87 -35 -31 -104 -91 -153 -134 -119
-103 -378 -372 -501 -520 -55 -66 -110 -131 -122 -146 -13 -14 -48 -61 -78
-105 -31 -43 -84 -119 -118 -167 -56 -80 -137 -205 -137 -212 0 -1 -32 -55
-71 -120 -77 -128 -247 -472 -296 -600 -17 -44 -51 -132 -76 -195 -38 -98 -65
-181 -117 -365 -59 -207 -129 -548 -150 -730 -6 -55 -16 -131 -23 -170 -8 -46
-12 -222 -12 -515 0 -407 2 -460 23 -620 39 -300 86 -532 163 -810 6 -19 14
-48 18 -65 13 -45 100 -307 113 -335 5 -14 14 -33 19 -42 5 -10 9 -22 9 -27 0
-37 238 -539 326 -686 144 -243 298 -475 396 -595 15 -19 49 -62 76 -96 197
-251 539 -594 793 -794 189 -149 455 -340 474 -340 4 0 27 -14 51 -31 150
-103 589 -327 794 -406 97 -37 103 -39 130 -51 28 -12 302 -102 365 -120 195
-55 368 -96 515 -122 36 -6 85 -15 110 -20 25 -5 83 -13 130 -19 47 -6 126
-16 175 -23 62 -9 222 -13 520 -13 390 0 447 2 615 23 295 38 603 100 865 177
198 57 212 62 360 120 66 26 147 57 180 70 74 29 444 208 494 239 20 13 92 57
161 97 69 41 132 78 141 84 16 9 77 52 274 190 118 83 372 301 536 459 140
136 370 388 454 499 181 237 351 490 456 674 49 86 218 425 239 478 13 33 36
88 52 123 15 34 28 65 28 67 0 3 9 24 19 48 26 55 141 401 141 421 0 9 5 16
10 16 13 0 13 164 1 188 -5 9 -21 42 -35 72 -31 67 -102 138 -176 177 -46 24
-69 29 -148 31 -105 4 -141 -6 -287 -85 -147 -79 -427 -213 -445 -213 -6 0
-18 -4 -28 -9 -70 -38 -362 -132 -527 -171 -49 -11 -106 -25 -125 -30 -19 -4
-66 -13 -105 -20 -38 -6 -95 -15 -125 -20 -178 -29 -274 -35 -570 -35 -204 0
-348 5 -410 13 -229 32 -292 43 -440 78 -58 14 -121 29 -140 34 -118 28 -220
58 -290 85 -25 9 -70 26 -100 37 -30 11 -64 24 -75 28 -11 4 -36 14 -55 21
-44 15 -399 189 -460 225 -25 15 -64 39 -87 55 -23 16 -44 29 -48 29 -4 0 -26
13 -50 30 -24 17 -46 30 -49 30 -3 0 -80 56 -171 125 -227 170 -414 342 -613
562 -73 81 -332 416 -332 429 0 3 -13 25 -30 49 -16 24 -30 46 -30 50 0 3 -18
33 -40 65 -22 32 -40 62 -40 65 0 4 -13 26 -30 50 -16 24 -30 46 -30 50 0 3
-35 79 -78 168 -44 89 -85 178 -91 197 -7 19 -17 44 -21 55 -4 11 -17 45 -28
75 -11 30 -28 75 -37 100 -20 54 -38 109 -54 170 -7 25 -16 59 -21 75 -37 131
-82 342 -99 460 -5 39 -16 108 -23 155 -17 117 -17 689 0 835 24 202 56 377
103 560 42 160 124 406 160 477 5 10 9 22 9 28 0 14 68 160 142 305 160 313
156 303 161 379 8 116 -25 208 -105 292 -49 52 -134 104 -170 104 -10 0 -18 5
-18 10 0 10 -162 15 -172 4z m-668 -1115 c0 -5 -16 -65 -36 -132 -50 -170 -53
-181 -74 -277 -39 -182 -69 -349 -80 -445 -6 -55 -16 -131 -22 -170 -19 -120
-15 -746 5 -910 20 -164 32 -247 47 -330 5 -33 13 -76 16 -95 5 -31 13 -69 56
-250 9 -41 17 -68 38 -140 4 -14 13 -45 20 -70 17 -62 49 -161 60 -185 5 -11
16 -40 24 -65 16 -51 69 -184 97 -247 10 -24 28 -64 40 -90 41 -95 134 -280
182 -363 27 -47 58 -99 68 -117 80 -141 329 -497 402 -575 6 -7 37 -43 67 -78
147 -175 368 -395 540 -540 36 -30 67 -57 70 -60 18 -18 196 -153 250 -190 36
-24 67 -47 70 -51 5 -7 204 -134 265 -169 17 -10 68 -40 115 -67 84 -48 268
-141 365 -183 28 -12 73 -32 100 -44 28 -13 77 -33 110 -45 33 -13 69 -27 80
-31 11 -5 63 -23 115 -40 52 -17 104 -35 115 -40 11 -4 31 -11 45 -15 14 -3
40 -11 58 -16 137 -39 166 -47 227 -60 28 -6 68 -15 90 -20 80 -18 241 -48
325 -59 268 -38 352 -43 690 -43 197 0 375 5 415 11 39 6 115 16 170 23 55 6
136 17 180 25 70 12 123 23 315 64 25 5 92 23 150 40 58 18 119 35 135 40 17
5 45 13 62 18 18 6 35 7 37 4 5 -10 -126 -236 -214 -367 -70 -106 -249 -349
-287 -390 -10 -11 -66 -74 -125 -140 -147 -166 -315 -326 -493 -471 -151 -123
-421 -311 -547 -383 -40 -22 -84 -47 -145 -83 -95 -54 -299 -151 -418 -198
-44 -17 -93 -37 -110 -45 -157 -68 -552 -183 -740 -215 -30 -6 -81 -15 -112
-20 -95 -17 -269 -38 -419 -51 -154 -13 -585 -7 -739 10 -173 19 -401 54 -490
75 -292 69 -501 131 -660 196 -11 4 -49 19 -85 33 -176 68 -419 190 -647 325
-67 40 -335 223 -373 255 -8 7 -35 28 -60 47 -139 108 -231 190 -405 365 -141
140 -177 179 -270 290 -119 142 -331 438 -395 550 -11 19 -30 52 -42 73 -151
263 -279 544 -363 797 -224 674 -286 1310 -196 2025 5 41 15 101 20 133 6 31
15 81 20 111 31 176 162 628 222 764 23 51 37 86 49 117 25 65 148 319 190
390 12 22 37 65 53 95 62 114 171 278 281 425 78 105 160 209 176 225 3 3 34
39 70 80 180 209 398 410 680 626 83 65 319 222 390 261 107 59 135 75 145 84
13 12 35 11 35 -2z"/>
</g>
</svg>
