<?xml version="1.0" standalone="no"?>
<!DOCTYPE svg PUBLIC "-//W3C//DTD SVG 20010904//EN"
 "http://www.w3.org/TR/2001/REC-SVG-20010904/DTD/svg10.dtd">
<svg version="1.0" xmlns="http://www.w3.org/2000/svg"
 width="1024.000000pt" height="1024.000000pt" viewBox="0 0 1024.000000 1024.000000"
 preserveAspectRatio="xMidYMid meet">
<metadata>
Created by potrace 1.16, written by Peter Selinger 2001-2019
</metadata>
<g transform="translate(0.000000,1024.000000) scale(0.100000,-0.100000)"
fill="#000000" stroke="none">
<path d="M4890 10230 c0 -5 -15 -10 -34 -10 -19 0 -38 -4 -41 -10 -3 -5 -19
-10 -35 -10 -16 0 -45 -9 -65 -20 -20 -11 -41 -20 -48 -20 -18 0 -194 -89
-207 -106 -7 -8 -18 -14 -25 -14 -6 0 -20 -9 -30 -20 -10 -11 -23 -20 -30 -20
-6 0 -24 -13 -40 -30 -16 -16 -33 -30 -39 -30 -14 0 -306 -292 -306 -305 0 -6
-18 -29 -40 -50 -22 -21 -40 -44 -40 -50 0 -6 -13 -24 -30 -40 -16 -16 -30
-34 -30 -40 0 -7 -9 -20 -20 -30 -11 -10 -20 -24 -20 -30 0 -7 -7 -18 -15 -25
-9 -7 -25 -33 -35 -56 -11 -24 -24 -46 -30 -49 -5 -3 -17 -23 -26 -43 -10 -20
-24 -45 -32 -54 -18 -22 -182 -349 -182 -364 0 -7 -13 -38 -30 -69 -16 -31
-30 -63 -30 -71 0 -7 -9 -29 -20 -49 -11 -20 -20 -42 -20 -50 0 -8 -9 -30 -20
-50 -11 -20 -20 -44 -20 -55 0 -10 -4 -22 -10 -25 -5 -3 -10 -17 -10 -30 0
-13 -4 -27 -10 -30 -5 -3 -10 -17 -10 -29 0 -27 -25 -53 -35 -36 -3 5 -26 10
-50 10 -24 0 -47 5 -50 10 -3 6 -35 10 -70 10 -35 0 -67 5 -70 10 -3 6 -35 10
-70 10 -35 0 -67 5 -70 10 -3 6 -48 10 -100 10 -52 0 -97 4 -100 10 -4 6 -132
10 -350 10 -218 0 -346 -4 -350 -10 -3 -5 -39 -10 -80 -10 -41 0 -77 -4 -80
-10 -3 -5 -26 -10 -50 -10 -24 0 -47 -4 -50 -10 -3 -5 -26 -10 -50 -10 -24 0
-47 -4 -50 -10 -3 -5 -21 -10 -40 -10 -19 0 -37 -4 -40 -10 -3 -5 -17 -10 -30
-10 -13 0 -27 -4 -30 -10 -3 -5 -17 -10 -30 -10 -13 0 -27 -4 -30 -10 -3 -5
-14 -10 -23 -10 -27 0 -317 -148 -342 -175 -13 -14 -29 -25 -35 -25 -6 0 -31
-21 -55 -46 -25 -25 -55 -50 -67 -55 -13 -5 -23 -14 -23 -22 0 -7 -27 -39 -60
-72 -33 -33 -60 -65 -60 -71 0 -6 -6 -17 -14 -23 -19 -16 -126 -231 -126 -253
0 -9 -4 -20 -10 -23 -5 -3 -10 -17 -10 -30 0 -13 -5 -27 -10 -30 -6 -3 -10
-21 -10 -40 0 -19 -5 -37 -10 -40 -6 -3 -10 -35 -10 -70 0 -35 -4 -67 -10 -70
-13 -8 -13 -272 0 -280 5 -3 10 -35 10 -70 0 -35 5 -67 10 -70 6 -3 10 -26 10
-50 0 -24 5 -47 10 -50 6 -3 10 -21 10 -40 0 -19 5 -37 10 -40 6 -3 10 -17 10
-30 0 -13 5 -27 10 -30 6 -3 10 -17 10 -30 0 -13 5 -27 10 -30 6 -3 10 -17 10
-30 0 -13 5 -27 10 -30 6 -3 10 -15 10 -25 0 -11 9 -35 20 -55 11 -20 20 -41
20 -48 0 -18 190 -394 206 -408 8 -6 14 -17 14 -24 0 -7 7 -18 15 -25 9 -7 25
-32 35 -55 10 -23 26 -48 35 -55 8 -7 15 -18 15 -25 0 -6 9 -20 20 -30 11 -10
20 -23 20 -30 0 -6 14 -24 30 -40 17 -16 30 -34 30 -40 0 -7 9 -20 20 -30 11
-10 20 -23 20 -30 0 -6 13 -24 30 -40 16 -16 30 -34 30 -40 0 -6 18 -29 40
-50 22 -21 40 -44 40 -50 0 -6 23 -33 50 -60 28 -27 50 -54 50 -61 0 -6 7 -17
16 -24 13 -12 6 -23 -60 -89 -42 -42 -76 -81 -76 -87 0 -5 -18 -28 -40 -49
-22 -21 -40 -44 -40 -50 0 -6 -18 -29 -40 -50 -22 -21 -40 -44 -40 -50 0 -6
-13 -24 -30 -40 -16 -16 -30 -34 -30 -40 0 -6 -13 -24 -30 -40 -16 -16 -30
-34 -30 -40 0 -7 -9 -20 -20 -30 -11 -10 -20 -23 -20 -30 0 -7 -9 -20 -20 -30
-11 -10 -20 -24 -20 -30 0 -7 -7 -18 -15 -25 -9 -7 -25 -33 -35 -56 -11 -24
-24 -46 -30 -49 -5 -3 -17 -23 -26 -43 -10 -20 -24 -45 -32 -54 -19 -22 -162
-309 -162 -325 0 -7 -9 -28 -20 -48 -11 -20 -20 -42 -20 -50 0 -8 -9 -30 -20
-50 -11 -20 -20 -44 -20 -55 0 -10 -4 -22 -10 -25 -5 -3 -10 -21 -10 -40 0
-19 -4 -37 -10 -40 -5 -3 -10 -17 -10 -30 0 -13 -5 -27 -10 -30 -6 -3 -10 -26
-10 -50 0 -24 -5 -47 -10 -50 -6 -3 -10 -30 -10 -60 0 -30 -4 -57 -10 -60 -6
-4 -10 -85 -10 -210 0 -125 4 -206 10 -210 6 -3 10 -26 10 -50 0 -24 4 -47 10
-50 5 -3 10 -21 10 -40 0 -19 5 -37 10 -40 6 -3 10 -15 10 -25 0 -11 9 -35 20
-55 11 -20 20 -42 20 -49 0 -17 28 -74 41 -81 5 -4 18 -25 28 -48 11 -23 31
-53 45 -66 14 -14 26 -29 26 -35 0 -15 212 -226 226 -226 6 0 19 -9 29 -20 10
-11 24 -20 30 -20 7 0 18 -6 24 -14 16 -19 271 -146 293 -146 9 0 20 -5 23
-10 3 -5 17 -10 30 -10 13 0 27 -5 30 -10 3 -5 17 -10 30 -10 13 0 27 -4 30
-10 3 -5 21 -10 40 -10 19 0 37 -4 40 -10 3 -5 21 -10 40 -10 19 0 37 -4 40
-10 3 -5 26 -10 50 -10 24 0 47 -5 50 -10 3 -6 35 -10 70 -10 35 0 67 -5 70
-10 4 -6 68 -10 160 -10 92 0 156 -4 160 -10 8 -13 132 -13 140 0 4 6 75 10
180 10 105 0 176 4 180 10 3 6 44 10 90 10 46 0 87 4 90 10 3 5 30 10 60 10
30 0 57 4 60 10 3 5 35 10 70 10 35 0 67 5 70 10 3 6 25 10 49 10 23 0 47 5
53 11 29 29 90 -22 92 -78 1 -12 6 -25 11 -28 5 -3 10 -17 10 -30 0 -13 5 -27
10 -30 6 -3 10 -15 10 -25 0 -11 9 -35 20 -55 11 -20 20 -42 20 -50 0 -8 9
-30 20 -50 11 -20 20 -42 20 -49 0 -8 14 -40 30 -71 17 -31 30 -62 30 -69 0
-15 144 -302 162 -324 8 -9 27 -43 42 -74 15 -32 32 -60 37 -63 5 -4 18 -25
29 -49 10 -23 26 -49 35 -56 8 -7 15 -18 15 -25 0 -6 9 -20 20 -30 11 -10 20
-23 20 -30 0 -6 13 -24 30 -40 17 -16 30 -34 30 -40 0 -6 18 -29 40 -50 22
-21 40 -44 40 -50 0 -13 292 -305 306 -305 6 0 23 -13 39 -30 16 -16 34 -30
40 -30 7 0 20 -9 30 -20 10 -11 24 -20 30 -20 7 0 18 -6 25 -14 13 -17 189
-106 207 -106 7 0 28 -9 48 -20 20 -11 48 -20 63 -20 16 0 34 -6 41 -12 18
-19 574 -19 592 -1 7 7 25 13 41 13 15 0 43 9 63 20 20 11 41 20 48 20 18 0
194 89 207 106 7 8 18 14 25 14 6 0 20 9 30 20 10 11 23 20 30 20 6 0 24 14
40 30 16 16 33 30 39 30 14 0 306 292 306 305 0 6 18 29 40 50 22 21 40 44 40
50 0 7 9 20 20 30 11 10 20 23 20 30 0 6 14 24 30 40 17 16 30 34 30 41 0 6 7
17 15 24 9 7 25 33 35 56 11 24 24 45 29 49 5 3 22 31 37 63 15 31 34 65 42
74 18 22 162 309 162 324 0 7 14 38 30 69 17 31 30 63 30 71 0 7 9 29 20 49
11 20 20 42 20 50 0 8 9 30 20 50 11 20 20 44 20 55 0 10 5 22 10 25 6 3 10
17 10 30 0 13 4 27 10 30 5 3 10 16 11 28 2 56 63 107 92 78 6 -6 30 -11 53
-11 24 0 46 -4 49 -10 3 -5 35 -10 70 -10 35 0 67 -5 70 -10 3 -6 30 -10 60
-10 30 0 57 -5 60 -10 3 -6 44 -10 90 -10 46 0 87 -4 90 -10 4 -6 75 -10 180
-10 105 0 176 -4 180 -10 8 -13 132 -13 140 0 4 6 68 10 160 10 92 0 156 4
160 10 3 5 35 10 70 10 35 0 67 4 70 10 3 5 26 10 50 10 24 0 47 5 50 10 3 6
21 10 40 10 19 0 37 5 40 10 3 6 21 10 40 10 19 0 37 5 40 10 3 6 17 10 30 10
13 0 27 5 30 10 3 5 17 10 30 10 13 0 27 5 30 10 3 5 14 10 23 10 22 0 277
127 293 146 6 8 17 14 23 14 7 0 25 13 41 30 16 17 34 30 40 30 14 0 205 192
205 206 0 6 12 21 26 35 14 13 34 43 45 66 10 23 23 44 28 48 13 7 41 64 41
81 0 7 9 29 20 49 11 20 20 44 20 55 0 10 5 22 10 25 6 3 10 21 10 40 0 19 5
37 10 40 6 3 10 26 10 50 0 24 5 47 10 50 6 4 10 85 10 210 0 125 -4 206 -10
210 -5 3 -10 30 -10 60 0 30 -4 57 -10 60 -5 3 -10 26 -10 50 0 24 -4 47 -10
50 -5 3 -10 17 -10 30 0 13 -4 27 -10 30 -5 3 -10 21 -10 40 0 19 -4 37 -10
40 -5 3 -10 15 -10 25 0 11 -9 35 -20 55 -11 20 -20 42 -20 50 0 8 -9 30 -20
50 -11 20 -20 41 -20 48 0 16 -143 303 -162 325 -8 9 -22 34 -32 54 -9 20 -21
40 -26 43 -6 3 -19 25 -30 49 -10 23 -26 49 -35 56 -8 7 -15 18 -15 25 0 6 -9
20 -20 30 -11 10 -20 23 -20 30 0 6 -13 24 -30 40 -16 16 -30 34 -30 40 0 7
-9 20 -20 30 -11 10 -20 23 -20 30 0 6 -13 24 -30 40 -16 16 -30 34 -30 40 0
6 -18 29 -40 50 -22 21 -40 44 -40 50 0 6 -18 29 -40 50 -22 21 -40 44 -40 49
0 6 -34 45 -76 87 -66 66 -73 77 -60 89 9 7 16 18 16 24 0 7 23 34 50 61 28
27 50 54 50 60 0 6 18 29 40 50 22 21 40 44 40 50 0 6 14 24 30 40 17 16 30
34 30 40 0 7 9 20 20 30 11 10 20 23 20 30 0 6 14 24 30 40 17 16 30 34 30 40
0 7 9 20 20 30 11 10 20 24 20 30 0 7 7 18 15 25 9 7 25 32 35 55 10 23 26 48
35 55 8 7 15 18 15 25 0 7 6 18 14 24 16 14 206 390 206 408 0 7 9 28 20 48
11 20 20 44 20 55 0 10 5 22 10 25 6 3 10 17 10 30 0 13 5 27 10 30 6 3 10 17
10 30 0 13 5 27 10 30 6 3 10 17 10 30 0 13 5 27 10 30 6 3 10 21 10 40 0 19
5 37 10 40 6 3 10 26 10 50 0 24 5 47 10 50 6 3 10 35 10 70 0 35 5 67 10 70
6 4 10 62 10 140 0 78 -4 136 -10 140 -5 3 -10 35 -10 70 0 35 -4 67 -10 70
-5 3 -10 21 -10 40 0 19 -4 37 -10 40 -5 3 -10 17 -10 30 0 13 -4 27 -10 30
-5 3 -10 14 -10 23 0 22 -107 237 -126 253 -8 6 -14 17 -14 23 0 6 -27 38 -60
71 -33 33 -60 65 -60 72 0 8 -10 17 -22 22 -13 5 -43 30 -68 55 -24 25 -49 46
-55 46 -6 0 -22 11 -35 25 -25 27 -315 175 -342 175 -9 0 -20 5 -23 10 -3 6
-17 10 -30 10 -13 0 -27 5 -30 10 -3 6 -17 10 -30 10 -13 0 -27 5 -30 10 -3 6
-21 10 -40 10 -19 0 -37 5 -40 10 -3 6 -26 10 -50 10 -24 0 -47 5 -50 10 -3 6
-26 10 -50 10 -24 0 -47 5 -50 10 -3 6 -39 10 -80 10 -41 0 -77 5 -80 10 -4 6
-132 10 -350 10 -218 0 -346 -4 -350 -10 -3 -6 -48 -10 -100 -10 -52 0 -97 -4
-100 -10 -3 -5 -35 -10 -70 -10 -35 0 -67 -4 -70 -10 -3 -5 -35 -10 -70 -10
-35 0 -67 -4 -70 -10 -3 -5 -26 -10 -50 -10 -24 0 -47 -5 -50 -10 -10 -17 -35
9 -35 36 0 12 -4 26 -10 29 -5 3 -10 17 -10 30 0 13 -4 27 -10 30 -5 3 -10 15
-10 25 0 11 -9 35 -20 55 -11 20 -20 42 -20 50 0 8 -9 30 -20 50 -11 20 -20
42 -20 49 0 8 -13 40 -30 71 -16 31 -30 62 -30 69 0 15 -144 302 -162 324 -8
9 -27 43 -42 74 -15 32 -32 60 -37 63 -5 4 -18 25 -29 49 -10 23 -26 49 -35
56 -8 7 -15 18 -15 25 0 6 -9 20 -20 30 -11 10 -20 23 -20 30 0 6 -13 24 -30
40 -16 16 -30 34 -30 40 0 6 -18 29 -40 50 -22 21 -40 44 -40 49 0 14 -292
306 -306 306 -5 0 -23 14 -39 30 -16 17 -34 30 -40 30 -7 0 -20 9 -30 20 -10
11 -24 20 -30 20 -7 0 -18 6 -24 14 -16 19 -231 126 -253 126 -9 0 -20 5 -23
10 -3 6 -21 10 -40 10 -19 0 -37 5 -40 10 -3 6 -22 10 -41 10 -19 0 -34 5 -34
10 0 6 -82 10 -225 10 -143 0 -225 -4 -225 -10z m365 -630 c3 -5 14 -10 23
-10 22 0 157 -67 172 -85 7 -8 18 -15 24 -15 7 0 25 -13 41 -30 16 -16 33 -30
39 -30 14 0 196 -182 196 -195 0 -6 18 -29 40 -50 22 -21 40 -44 40 -50 0 -7
9 -20 20 -30 11 -10 20 -23 20 -30 0 -7 9 -20 20 -30 11 -10 20 -24 20 -30 0
-7 7 -18 15 -25 9 -7 23 -29 32 -49 9 -20 23 -44 31 -53 19 -22 202 -389 202
-405 0 -7 9 -28 20 -48 11 -20 20 -42 20 -49 0 -17 28 -74 41 -81 5 -4 6 -11
3 -17 -6 -9 9 -48 30 -77 6 -7 11 -19 12 -26 3 -22 -35 -50 -65 -47 -15 2 -33
-3 -40 -11 -6 -8 -20 -13 -30 -10 -9 2 -23 -2 -30 -11 -7 -8 -19 -12 -27 -9
-8 3 -22 -1 -30 -8 -9 -8 -29 -12 -44 -11 -14 2 -32 -4 -39 -12 -7 -8 -19 -12
-27 -9 -8 3 -23 -2 -33 -11 -10 -9 -20 -13 -24 -10 -7 7 -73 -21 -82 -35 -3
-5 -13 -7 -23 -4 -10 2 -24 -2 -31 -10 -6 -8 -20 -13 -30 -10 -9 2 -23 -2 -30
-10 -6 -8 -20 -13 -30 -10 -9 2 -23 -2 -30 -10 -6 -8 -21 -13 -31 -10 -11 3
-20 1 -20 -5 0 -13 -68 -47 -77 -38 -4 3 -14 -1 -24 -10 -10 -9 -25 -14 -33
-11 -9 4 -18 2 -21 -3 -9 -15 -73 -42 -84 -36 -5 4 -12 2 -16 -3 -9 -16 -113
-63 -124 -57 -5 4 -12 2 -16 -3 -12 -20 -69 -41 -110 -41 -41 0 -98 21 -110
41 -4 5 -11 7 -16 3 -11 -6 -115 41 -124 57 -4 5 -11 7 -16 3 -11 -6 -75 21
-84 35 -3 5 -13 7 -23 4 -10 -2 -24 2 -31 11 -7 8 -19 12 -26 10 -8 -3 -30 6
-49 21 -23 17 -42 25 -54 21 -13 -5 -22 -1 -26 10 -4 10 -13 14 -26 11 -10 -3
-25 2 -31 10 -7 8 -21 12 -31 10 -10 -3 -20 -1 -23 4 -9 14 -75 42 -82 35 -4
-3 -14 1 -24 10 -10 9 -25 14 -33 11 -8 -3 -20 1 -27 9 -7 9 -21 13 -30 11
-10 -3 -24 2 -30 10 -7 8 -25 13 -39 11 -15 -1 -35 3 -44 11 -8 7 -22 11 -30
8 -8 -3 -20 1 -27 9 -7 9 -21 13 -30 11 -10 -3 -24 2 -30 10 -7 8 -25 13 -40
11 -29 -3 -68 24 -65 45 1 7 6 19 11 27 21 32 35 63 35 76 0 7 9 29 20 49 11
20 20 42 20 50 0 8 9 30 20 50 11 20 20 41 20 48 0 16 183 383 202 405 8 9 22
33 31 53 9 20 23 42 32 49 8 7 15 18 15 25 0 6 9 20 20 30 11 10 20 23 20 30
0 7 9 20 20 30 11 10 20 23 20 30 0 6 18 29 40 50 22 21 40 44 40 49 0 14 182
196 195 196 6 0 24 14 40 30 16 17 34 30 41 30 6 0 17 7 24 15 15 18 150 85
172 85 9 0 20 5 23 10 4 6 62 10 140 10 78 0 136 -4 140 -10z m-2580 -1840 c3
-5 44 -10 90 -10 46 0 87 -4 90 -10 3 -5 35 -10 70 -10 35 0 67 -4 70 -10 3
-5 30 -10 59 -10 52 0 54 -1 58 -30 3 -19 -1 -35 -9 -42 -8 -6 -13 -24 -11
-38 1 -15 -4 -35 -11 -44 -7 -9 -11 -27 -9 -41 3 -15 -1 -30 -9 -37 -9 -7 -13
-26 -12 -49 2 -20 -3 -44 -10 -53 -7 -8 -11 -30 -10 -49 2 -19 -3 -42 -10 -50
-7 -9 -11 -31 -10 -50 2 -19 -3 -42 -10 -50 -7 -9 -11 -35 -10 -61 2 -25 -3
-51 -10 -60 -7 -8 -11 -34 -10 -60 2 -25 -3 -51 -10 -60 -7 -8 -11 -34 -10
-60 2 -25 -3 -51 -10 -60 -9 -10 -11 -31 -6 -71 5 -39 4 -60 -5 -71 -9 -9 -12
-39 -11 -83 2 -50 -2 -71 -13 -80 -8 -7 -12 -19 -9 -27 6 -16 -62 -94 -82 -94
-6 0 -24 -13 -40 -30 -16 -16 -34 -30 -40 -30 -6 0 -24 -13 -40 -30 -16 -16
-34 -30 -40 -30 -6 0 -24 -13 -40 -30 -16 -16 -34 -30 -41 -30 -6 0 -29 -16
-50 -35 -21 -19 -43 -35 -49 -35 -6 0 -29 -18 -50 -40 -21 -22 -44 -40 -50
-40 -6 0 -37 -27 -70 -60 -33 -33 -64 -60 -70 -60 -6 0 -46 -36 -90 -80 -44
-44 -85 -80 -91 -80 -6 0 -41 -31 -78 -70 -37 -38 -70 -70 -72 -70 -8 0 -63
65 -64 75 0 6 -18 29 -40 50 -22 21 -40 44 -40 50 0 6 -13 24 -30 40 -16 16
-30 34 -30 40 0 6 -13 24 -30 40 -16 16 -30 34 -30 40 0 7 -9 20 -20 30 -11
10 -20 23 -20 30 0 7 -9 20 -20 30 -11 10 -20 24 -20 30 0 7 -7 18 -15 25 -9
7 -25 33 -35 56 -11 24 -24 45 -29 49 -5 3 -22 31 -37 63 -15 31 -34 65 -42
74 -19 23 -62 108 -62 124 0 6 -13 38 -30 69 -16 31 -30 65 -30 75 0 11 -4 22
-10 25 -5 3 -10 17 -10 30 0 13 -4 27 -10 30 -5 3 -10 17 -10 30 0 13 -5 27
-10 30 -5 3 -10 21 -10 40 0 19 -4 37 -10 40 -5 3 -10 30 -10 60 0 30 -4 57
-10 60 -13 8 -13 192 0 200 6 3 10 21 10 40 0 19 5 37 10 40 6 3 10 14 10 24
0 9 16 48 35 86 40 81 140 187 202 216 23 10 44 23 48 28 7 13 64 41 81 41 7
0 29 9 49 20 20 11 44 20 55 20 10 0 22 5 25 10 3 6 21 10 40 10 19 0 37 5 40
10 3 6 26 10 50 10 24 0 47 5 50 10 3 6 30 10 60 10 30 0 57 5 60 10 4 6 125
10 330 10 205 0 326 -4 330 -10z m5540 0 c3 -5 30 -10 60 -10 30 0 57 -4 60
-10 3 -5 26 -10 50 -10 24 0 47 -4 50 -10 3 -5 21 -10 40 -10 19 0 37 -4 40
-10 3 -5 15 -10 25 -10 11 0 35 -9 55 -20 20 -11 42 -20 49 -20 17 0 74 -28
81 -41 4 -5 25 -18 48 -28 62 -29 162 -135 202 -216 19 -38 35 -77 35 -86 0
-10 5 -21 10 -24 6 -3 10 -21 10 -40 0 -19 5 -37 10 -40 6 -3 10 -48 10 -100
0 -52 -4 -97 -10 -100 -5 -3 -10 -30 -10 -60 0 -30 -4 -57 -10 -60 -5 -3 -10
-21 -10 -40 0 -19 -4 -37 -10 -40 -5 -3 -10 -17 -10 -30 0 -13 -4 -27 -10 -30
-5 -3 -10 -17 -10 -30 0 -13 -4 -27 -10 -30 -5 -3 -10 -14 -10 -25 0 -10 -13
-44 -30 -75 -16 -31 -30 -63 -30 -69 0 -16 -43 -101 -62 -124 -8 -9 -27 -43
-42 -74 -15 -32 -32 -60 -37 -63 -5 -4 -18 -25 -29 -49 -10 -23 -26 -49 -35
-56 -8 -7 -15 -18 -15 -25 0 -6 -9 -20 -20 -30 -11 -10 -20 -23 -20 -30 0 -7
-9 -20 -20 -30 -11 -10 -20 -23 -20 -30 0 -6 -13 -24 -30 -40 -16 -16 -30 -34
-30 -40 0 -6 -13 -24 -30 -40 -16 -16 -30 -34 -30 -40 0 -6 -18 -29 -40 -50
-22 -21 -40 -44 -40 -50 -1 -10 -56 -75 -64 -75 -2 0 -39 36 -82 80 -42 44
-82 80 -89 80 -6 0 -42 32 -80 70 -38 39 -74 70 -80 70 -6 0 -37 27 -70 60
-33 33 -64 60 -70 60 -6 0 -29 18 -50 40 -21 22 -44 40 -50 40 -6 0 -29 18
-50 40 -21 22 -44 40 -50 40 -6 0 -24 14 -40 30 -16 17 -34 30 -40 30 -6 0
-24 14 -40 30 -16 17 -34 30 -40 30 -6 0 -24 14 -40 30 -16 17 -33 30 -39 30
-18 0 -85 72 -79 86 3 8 -1 21 -8 30 -8 9 -11 39 -10 80 2 41 -2 71 -10 80 -8
9 -12 37 -10 70 2 34 -3 61 -10 70 -7 9 -12 35 -10 60 1 26 -3 52 -10 60 -7 9
-12 35 -10 60 1 26 -3 52 -10 60 -7 9 -12 35 -10 60 1 26 -3 52 -10 61 -7 8
-12 31 -10 50 1 19 -3 41 -10 50 -7 8 -12 31 -10 50 1 19 -3 41 -10 49 -7 9
-12 33 -10 54 1 21 -2 41 -8 45 -6 3 -11 21 -11 40 0 19 -4 37 -10 40 -5 3
-10 21 -10 40 0 19 -4 37 -10 40 -5 3 -10 22 -10 41 l0 34 64 0 c36 0 68 5 71
10 3 6 30 10 60 10 30 0 57 5 60 10 3 6 44 10 90 10 46 0 87 5 90 10 4 6 125
10 330 10 205 0 326 -4 330 -10z m-4436 -213 c6 -8 23 -12 39 -9 17 2 33 -2
40 -11 7 -8 21 -13 31 -10 9 2 23 -2 30 -10 6 -8 20 -13 30 -10 9 2 23 -2 30
-10 6 -8 20 -13 30 -10 9 2 23 -2 30 -10 6 -8 20 -13 30 -10 9 2 23 -2 30 -10
6 -8 20 -13 30 -10 9 2 23 -2 30 -10 6 -8 20 -13 30 -10 9 2 23 -2 30 -11 7
-8 19 -12 27 -9 8 3 21 -1 30 -8 9 -7 26 -13 37 -14 12 0 23 -7 25 -16 2 -13
-25 -31 -102 -69 -58 -28 -108 -55 -111 -60 -3 -5 -35 -23 -70 -40 -35 -17
-67 -35 -70 -40 -3 -5 -35 -23 -70 -40 -35 -17 -67 -35 -70 -40 -4 -6 -26 -19
-50 -30 -24 -11 -47 -24 -50 -30 -3 -5 -23 -17 -43 -26 -20 -10 -47 -26 -59
-37 -12 -11 -29 -17 -37 -14 -19 7 -21 48 -4 65 7 7 11 32 9 58 -1 26 3 52 10
61 7 8 12 32 10 52 -1 23 3 42 12 49 8 7 12 22 9 37 -2 14 2 32 9 41 7 9 12
32 10 51 -1 19 3 41 10 50 8 8 12 28 11 43 -2 14 3 32 11 39 8 6 13 21 10 31
-3 11 -3 27 1 35 7 19 50 20 65 2z m2729 -1 c7 -4 12 -18 10 -31 -1 -12 3 -30
11 -39 7 -9 11 -27 9 -41 -3 -15 1 -30 9 -37 9 -7 13 -26 12 -49 -2 -20 3 -44
10 -53 7 -9 11 -27 9 -41 -3 -15 1 -30 9 -37 9 -7 13 -26 12 -49 -2 -20 3 -44
10 -52 7 -9 11 -35 10 -61 -2 -26 2 -51 9 -58 17 -17 15 -58 -4 -65 -8 -3 -25
3 -37 14 -12 11 -39 27 -59 37 -20 9 -40 21 -43 26 -3 6 -26 19 -50 30 -24 11
-46 24 -50 30 -3 5 -35 23 -70 40 -35 17 -67 35 -70 40 -3 5 -35 23 -70 40
-35 17 -67 35 -70 40 -3 5 -53 32 -111 60 -77 38 -104 56 -102 69 2 9 13 16
25 16 11 1 28 7 37 14 9 7 22 11 30 8 8 -3 20 1 27 9 7 9 21 13 30 11 10 -3
24 2 30 10 7 8 21 12 30 10 10 -3 24 2 30 10 7 8 21 12 30 10 10 -3 24 2 30
10 7 8 21 12 30 10 10 -3 24 2 30 10 7 8 21 12 30 10 10 -3 24 2 30 10 7 8 21
12 30 10 10 -3 24 2 31 10 7 9 23 13 40 11 16 -3 33 1 39 8 12 14 35 14 57 0z
m-1353 -526 c20 -11 41 -20 48 -20 16 0 342 -163 365 -182 9 -8 70 -41 135
-72 64 -32 119 -62 122 -67 3 -4 35 -22 70 -39 35 -17 67 -35 70 -40 3 -5 35
-23 70 -40 35 -17 67 -35 70 -40 4 -6 25 -19 49 -30 23 -10 49 -26 56 -35 7
-8 18 -15 25 -15 7 0 18 -7 25 -15 7 -9 32 -25 55 -35 23 -10 48 -26 55 -35 7
-8 18 -15 25 -15 7 0 18 -7 25 -15 7 -9 32 -25 55 -35 23 -10 48 -26 55 -35 7
-8 18 -15 25 -15 6 0 20 -9 30 -20 10 -11 23 -20 30 -20 7 0 20 -9 30 -20 10
-11 23 -20 30 -20 6 0 28 -17 49 -38 l37 -39 -2 -117 c-1 -76 3 -122 10 -129
7 -7 11 -85 11 -243 0 -145 4 -235 10 -239 6 -4 10 -95 10 -240 0 -145 -4
-236 -10 -240 -6 -4 -10 -95 -10 -240 0 -145 -4 -236 -10 -240 -5 -3 -10 -44
-10 -91 0 -79 -2 -85 -23 -93 -13 -5 -29 -16 -36 -25 -7 -9 -19 -16 -26 -16
-6 0 -20 -9 -30 -20 -10 -11 -23 -20 -30 -20 -6 0 -22 -12 -36 -26 -13 -14
-42 -34 -65 -44 -22 -11 -47 -26 -54 -35 -7 -8 -18 -15 -25 -15 -6 0 -20 -9
-30 -20 -10 -11 -23 -20 -30 -20 -7 0 -20 -9 -30 -20 -10 -11 -24 -20 -30 -20
-7 0 -18 -7 -25 -15 -7 -9 -32 -25 -55 -35 -23 -10 -48 -26 -55 -35 -7 -8 -18
-15 -25 -15 -7 0 -18 -7 -25 -15 -7 -8 -41 -29 -76 -45 -35 -17 -66 -35 -69
-40 -4 -6 -26 -19 -50 -30 -24 -11 -46 -24 -50 -30 -3 -5 -35 -23 -70 -40 -35
-17 -67 -35 -70 -39 -3 -5 -58 -35 -122 -67 -65 -31 -126 -64 -135 -72 -29
-24 -352 -182 -373 -182 -21 0 -344 158 -373 182 -9 8 -70 41 -135 72 -64 32
-119 62 -122 67 -3 4 -35 22 -70 39 -35 17 -67 35 -70 40 -4 6 -26 19 -50 30
-24 11 -46 24 -50 30 -3 5 -34 23 -69 40 -35 16 -69 37 -76 45 -7 8 -18 15
-25 15 -7 0 -18 7 -25 15 -7 9 -32 25 -55 35 -23 10 -48 26 -55 35 -7 8 -18
15 -25 15 -6 0 -20 9 -30 20 -10 11 -23 20 -30 20 -7 0 -20 9 -30 20 -10 11
-24 20 -30 20 -7 0 -18 7 -25 15 -7 9 -32 24 -54 35 -23 10 -52 30 -65 44 -14
14 -30 26 -36 26 -7 0 -20 9 -30 20 -10 11 -24 20 -30 20 -7 0 -19 7 -26 16
-7 9 -23 20 -36 25 -21 8 -23 14 -23 93 0 47 -4 88 -10 91 -6 4 -10 95 -10
240 0 145 -4 236 -10 240 -14 8 -14 492 0 500 6 4 10 92 10 230 0 138 4 226
10 230 6 4 10 57 10 128 l0 121 37 38 c20 21 42 38 48 38 7 0 20 9 30 20 10
11 23 20 30 20 7 0 20 9 30 20 10 11 24 20 30 20 7 0 18 7 25 15 7 9 32 25 55
35 23 10 48 26 55 35 7 8 18 15 25 15 7 0 18 7 25 15 7 9 32 25 55 35 23 10
48 26 55 35 7 8 18 15 25 15 7 0 18 7 25 15 7 9 33 25 56 35 24 11 45 24 49
30 3 5 35 23 70 40 35 17 67 35 70 40 3 5 35 23 70 40 35 17 67 35 70 39 3 5
58 35 122 67 65 31 126 64 135 72 23 20 309 162 328 163 8 0 38 13 65 29 61
35 57 34 100 10z m-2315 -1534 c0 -71 -4 -126 -10 -132 -7 -7 -11 -94 -11
-239 0 -145 4 -232 11 -239 5 -5 10 -38 10 -73 0 -89 -15 -92 -94 -14 -34 33
-66 61 -72 61 -5 0 -45 36 -89 80 -44 44 -84 80 -90 80 -13 0 -165 151 -165
164 0 14 112 126 125 126 6 0 46 36 90 80 44 44 84 80 90 80 6 0 33 23 60 50
27 28 54 50 60 50 6 0 24 13 40 30 15 16 32 27 37 24 4 -3 8 -60 8 -128z
m4636 74 c5 0 32 -22 59 -50 27 -27 55 -50 61 -50 7 0 47 -38 89 -85 43 -47
83 -85 89 -85 6 0 37 -26 68 -57 l57 -58 -81 -82 c-44 -46 -83 -83 -87 -83 -3
0 -42 -36 -86 -80 -44 -43 -84 -79 -90 -80 -5 0 -37 -28 -71 -61 -79 -78 -94
-75 -94 14 0 35 5 68 10 73 15 15 15 463 0 478 -11 11 -14 248 -3 260 4 3 21
-7 38 -24 17 -16 35 -30 41 -30z m-5361 -1050 c6 0 46 -36 90 -80 44 -44 86
-80 95 -80 8 0 34 -23 58 -50 24 -28 48 -50 53 -50 6 0 34 -20 62 -45 29 -25
57 -45 63 -45 6 0 30 -20 53 -45 23 -25 44 -45 47 -45 3 0 20 -11 38 -25 18
-14 37 -25 42 -25 6 0 28 -18 49 -40 21 -22 44 -40 50 -40 6 0 28 -17 49 -39
36 -37 37 -40 35 -104 -1 -41 2 -72 10 -81 8 -9 12 -40 10 -80 -1 -42 2 -71
11 -81 9 -11 11 -34 7 -75 -4 -46 -2 -62 10 -72 11 -9 14 -24 10 -59 -4 -28
-1 -51 6 -58 6 -6 10 -32 8 -57 -1 -26 3 -52 10 -60 7 -9 12 -35 10 -60 -1
-26 3 -52 10 -61 7 -8 12 -31 10 -50 -1 -19 3 -41 10 -50 7 -8 12 -31 10 -50
-1 -19 3 -41 10 -49 7 -9 12 -33 10 -53 -1 -23 3 -42 12 -49 8 -7 12 -22 9
-37 -2 -14 2 -32 9 -41 7 -9 12 -29 11 -45 -2 -16 1 -29 7 -29 6 0 11 -7 11
-15 0 -11 -8 -13 -30 -9 -18 4 -36 1 -46 -7 -9 -7 -32 -12 -51 -10 -19 1 -41
-3 -49 -10 -9 -8 -38 -11 -74 -10 -33 1 -61 -2 -65 -8 -3 -6 -38 -11 -80 -11
-41 0 -77 -4 -80 -10 -4 -6 -62 -10 -140 -10 -78 0 -136 -4 -140 -10 -8 -13
-232 -13 -240 0 -3 6 -52 10 -110 10 -58 0 -107 4 -110 10 -3 6 -30 10 -60 10
-30 0 -57 5 -60 10 -3 6 -21 10 -40 10 -19 0 -37 5 -40 10 -3 6 -21 10 -40 10
-19 0 -37 5 -40 10 -3 6 -15 10 -25 10 -11 0 -35 9 -55 20 -20 11 -42 20 -49
20 -19 0 -72 28 -86 45 -7 8 -18 15 -25 15 -6 0 -20 9 -30 20 -10 11 -23 20
-29 20 -14 0 -116 101 -116 116 0 6 -7 17 -15 24 -19 16 -45 68 -45 91 0 10
-4 21 -10 24 -5 3 -10 17 -10 30 0 13 -4 27 -10 30 -13 8 -13 312 0 320 5 3
10 26 10 50 0 24 5 47 10 50 6 3 10 17 10 30 0 13 5 27 10 30 6 3 10 17 10 30
0 13 5 27 10 30 6 3 10 17 10 30 0 13 5 27 10 30 6 3 10 14 10 23 0 19 160
344 182 370 8 9 22 33 31 53 9 20 23 42 32 49 8 7 15 18 15 25 0 6 9 20 20 30
11 10 20 23 20 30 0 7 9 20 20 30 11 10 20 23 20 30 0 6 14 24 30 40 17 16 30
34 30 40 0 6 14 24 30 40 17 16 30 34 30 40 0 6 14 24 30 40 17 16 30 34 30
40 0 6 23 33 50 60 28 27 50 54 50 59 0 6 17 27 37 48 l37 38 106 -105 c58
-58 110 -105 115 -105z m6295 125 c0 -6 23 -33 50 -60 28 -27 50 -54 50 -60 0
-6 14 -24 30 -40 17 -16 30 -34 30 -40 0 -6 14 -24 30 -40 17 -16 30 -34 30
-40 0 -6 14 -24 30 -40 17 -16 30 -34 30 -40 0 -7 9 -20 20 -30 11 -10 20 -23
20 -30 0 -7 9 -20 20 -30 11 -10 20 -24 20 -30 0 -7 7 -18 15 -25 9 -7 23 -29
32 -49 9 -20 23 -44 31 -53 22 -26 182 -351 182 -370 0 -9 5 -20 10 -23 6 -3
10 -17 10 -30 0 -13 5 -27 10 -30 6 -3 10 -17 10 -30 0 -13 5 -27 10 -30 6 -3
10 -17 10 -30 0 -13 5 -27 10 -30 6 -3 10 -26 10 -50 0 -24 5 -47 10 -50 6 -4
10 -68 10 -160 0 -92 -4 -156 -10 -160 -5 -3 -10 -17 -10 -30 0 -13 -4 -27
-10 -30 -5 -3 -10 -14 -10 -24 0 -23 -26 -75 -45 -91 -8 -7 -15 -17 -15 -23 0
-15 -101 -117 -116 -117 -6 0 -19 -9 -29 -20 -10 -11 -24 -20 -30 -20 -7 0
-18 -7 -25 -15 -14 -17 -67 -45 -86 -45 -7 0 -29 -9 -49 -20 -20 -11 -44 -20
-55 -20 -10 0 -22 -4 -25 -10 -3 -5 -21 -10 -40 -10 -19 0 -37 -4 -40 -10 -3
-5 -21 -10 -40 -10 -19 0 -37 -4 -40 -10 -3 -5 -30 -10 -60 -10 -30 0 -57 -4
-60 -10 -3 -6 -52 -10 -110 -10 -58 0 -107 -4 -110 -10 -8 -13 -232 -13 -240
0 -4 6 -62 10 -140 10 -78 0 -136 4 -140 10 -3 6 -39 10 -80 10 -41 0 -77 5
-80 10 -3 6 -35 10 -70 10 -35 0 -67 5 -70 10 -3 6 -26 10 -50 10 -24 0 -47 5
-51 11 -4 7 -21 9 -40 6 -25 -4 -34 -2 -34 9 0 8 5 14 11 14 6 0 9 13 7 29 -1
16 4 36 11 45 7 9 11 27 9 41 -3 15 1 30 9 37 9 7 13 26 12 49 -2 20 3 44 10
53 7 8 11 30 10 49 -2 19 3 42 10 50 7 9 11 31 10 50 -2 19 3 42 10 50 7 9 11
35 10 61 -2 25 3 51 10 60 7 8 11 34 10 60 -2 25 3 51 10 60 7 8 11 34 10 60
-2 25 3 51 10 60 7 9 12 36 10 70 -2 33 2 61 10 70 8 9 12 39 10 79 -1 35 2
70 6 78 5 7 10 44 11 82 1 60 5 72 33 107 18 22 40 40 50 40 9 0 32 16 51 35
19 19 39 35 45 35 6 0 24 14 40 30 16 17 34 30 40 30 6 0 29 18 50 40 21 22
44 40 50 40 6 0 33 23 60 50 27 28 54 50 60 50 6 0 33 23 60 50 27 28 54 50
60 50 6 0 46 36 90 80 44 44 84 80 90 80 6 0 57 47 115 105 l104 105 38 -37
c21 -20 38 -42 38 -48z m-4783 -1250 c17 -9 36 -22 43 -30 7 -8 18 -15 25 -15
7 0 18 -7 25 -15 7 -9 33 -25 56 -35 24 -11 46 -24 49 -30 3 -6 26 -19 50 -30
24 -11 46 -24 50 -30 3 -5 35 -23 70 -40 35 -17 67 -35 70 -40 3 -5 44 -27 90
-50 46 -23 87 -45 90 -51 4 -5 25 -18 49 -29 65 -29 74 -45 35 -64 -18 -9 -40
-16 -50 -16 -10 0 -21 -5 -25 -11 -3 -6 -15 -9 -25 -6 -10 3 -24 -2 -30 -10
-7 -8 -21 -12 -30 -10 -10 3 -24 -2 -30 -10 -7 -8 -21 -12 -31 -10 -10 3 -20
1 -23 -4 -9 -14 -73 -41 -83 -35 -6 3 -16 -1 -23 -10 -7 -8 -24 -14 -39 -12
-15 1 -35 -3 -44 -11 -8 -7 -22 -11 -30 -8 -8 3 -20 -1 -27 -9 -7 -9 -21 -13
-30 -11 -10 3 -23 -1 -30 -9 -30 -36 -96 2 -87 51 3 15 -1 30 -9 37 -9 7 -13
26 -12 49 2 20 -3 44 -10 53 -7 9 -11 27 -9 41 3 15 -1 30 -9 37 -9 7 -13 26
-12 49 2 20 -3 44 -10 52 -7 9 -11 35 -10 61 2 25 -3 51 -10 60 -7 8 -11 31
-10 50 2 20 -2 41 -9 48 -20 20 -14 68 8 68 4 0 21 -7 37 -15z m3031 -13 c2
-13 -2 -30 -9 -39 -7 -8 -12 -31 -10 -50 1 -19 -3 -41 -10 -49 -7 -9 -12 -35
-10 -60 1 -26 -3 -52 -10 -61 -7 -8 -12 -32 -10 -52 1 -23 -3 -42 -12 -49 -8
-7 -12 -22 -9 -37 2 -14 -2 -32 -9 -41 -7 -9 -12 -33 -10 -53 1 -23 -3 -42
-12 -49 -8 -7 -12 -22 -9 -37 9 -49 -57 -87 -87 -51 -7 8 -20 12 -30 9 -9 -2
-23 2 -30 11 -7 8 -19 12 -27 9 -8 -3 -22 1 -30 8 -9 8 -29 12 -44 11 -15 -2
-32 4 -39 12 -7 9 -17 13 -23 10 -10 -6 -74 21 -83 35 -3 5 -13 7 -23 4 -10
-2 -24 2 -31 10 -6 8 -20 13 -30 10 -9 -2 -23 2 -30 11 -7 8 -19 12 -27 9 -8
-3 -23 2 -33 11 -10 9 -20 13 -24 10 -3 -4 -22 1 -42 10 -46 22 -37 34 51 76
35 17 66 35 69 40 3 5 35 23 70 40 35 17 67 35 70 40 3 5 35 23 70 40 35 17
67 35 70 40 4 6 26 19 50 30 24 11 47 24 50 30 3 6 25 19 49 30 23 10 49 26
56 35 7 8 17 15 23 15 6 0 19 7 29 17 50 45 91 51 96 15z m-1490 -808 c18 -8
34 -20 37 -25 4 -5 11 -7 16 -3 11 6 115 -41 124 -57 4 -5 11 -7 16 -3 11 6
75 -21 84 -36 4 -6 11 -8 16 -4 11 6 75 -21 84 -36 3 -5 12 -7 21 -3 8 3 23
-2 33 -11 10 -9 20 -13 24 -10 7 7 73 -21 82 -35 3 -5 13 -7 23 -4 10 2 24 -2
31 -10 6 -8 21 -13 31 -10 12 3 22 -1 26 -10 6 -16 48 -32 72 -28 8 1 23 -5
33 -15 11 -9 22 -14 26 -11 3 4 14 0 24 -9 10 -9 25 -14 33 -11 8 3 20 -1 27
-9 7 -9 21 -13 30 -11 10 3 24 -2 30 -10 7 -8 21 -12 30 -10 10 3 24 -2 30
-10 7 -8 25 -13 39 -11 15 1 35 -3 44 -11 8 -7 22 -11 31 -8 8 4 17 2 21 -4 3
-6 16 -14 29 -19 25 -10 27 -28 6 -54 -7 -9 -11 -22 -8 -31 4 -8 2 -17 -3 -20
-15 -9 -42 -73 -36 -84 4 -5 2 -12 -3 -16 -13 -7 -41 -64 -41 -81 0 -7 -9 -29
-20 -49 -11 -20 -20 -41 -20 -48 0 -16 -183 -383 -202 -405 -8 -9 -22 -33 -31
-53 -9 -20 -23 -42 -32 -49 -8 -7 -15 -18 -15 -25 0 -6 -9 -20 -20 -30 -11
-10 -20 -23 -20 -30 0 -6 -13 -24 -30 -40 -16 -16 -30 -34 -30 -40 0 -6 -13
-24 -30 -40 -16 -16 -30 -33 -30 -39 0 -14 -182 -196 -195 -196 -6 0 -24 -14
-40 -30 -16 -17 -34 -30 -41 -30 -6 0 -17 -7 -24 -15 -15 -18 -150 -85 -172
-85 -9 0 -20 -4 -23 -10 -8 -13 -272 -13 -280 0 -3 5 -14 10 -23 10 -22 0
-157 67 -172 85 -7 8 -18 15 -24 15 -7 0 -25 13 -41 30 -16 16 -33 30 -39 30
-14 0 -196 182 -196 195 0 6 -13 24 -30 40 -16 16 -30 34 -30 40 0 6 -13 24
-30 40 -16 16 -30 34 -30 40 0 7 -9 20 -20 30 -11 10 -20 24 -20 30 0 7 -7 18
-15 25 -9 7 -23 29 -32 49 -9 20 -23 44 -31 53 -18 21 -182 349 -182 363 0 15
-50 114 -61 121 -5 3 -7 10 -3 15 6 11 -21 75 -36 84 -6 4 -8 11 -4 16 6 11
-21 75 -36 84 -5 3 -7 12 -3 20 3 9 -1 22 -8 31 -19 24 -20 44 -1 51 9 3 23
11 31 17 7 6 26 9 41 8 14 -2 32 4 39 12 7 8 20 12 28 9 9 -4 21 1 29 12 8 11
19 15 30 11 10 -4 25 1 36 10 10 10 21 14 24 11 4 -3 16 -1 28 5 11 7 28 11
37 10 9 -2 21 4 28 12 7 8 19 12 27 9 8 -3 21 3 28 12 8 11 20 16 29 12 8 -3
21 1 28 9 7 9 21 13 31 11 10 -3 20 -1 23 4 9 14 75 42 82 35 4 -3 14 1 24 10
10 9 25 14 33 11 9 -4 18 -2 21 3 9 15 73 42 84 36 5 -4 12 -2 16 4 9 15 73
42 84 36 5 -4 12 -2 16 4 9 15 73 42 84 36 5 -4 12 -2 16 3 9 15 115 65 122
57 3 -3 13 0 21 6 47 40 92 47 140 22z"/>
<path d="M4995 6040 c-3 -5 -26 -10 -50 -10 -24 0 -47 -4 -50 -10 -3 -5 -21
-10 -40 -10 -19 0 -37 -4 -40 -10 -3 -5 -14 -10 -23 -10 -22 0 -157 -67 -172
-85 -7 -8 -18 -15 -25 -15 -6 0 -20 -9 -30 -20 -10 -11 -23 -20 -29 -20 -15 0
-156 -142 -156 -156 0 -6 -9 -19 -20 -29 -11 -10 -20 -24 -20 -30 0 -7 -7 -18
-15 -25 -18 -15 -85 -150 -85 -172 0 -9 -4 -20 -10 -23 -5 -3 -10 -21 -10 -40
0 -19 -4 -37 -10 -40 -5 -3 -10 -26 -10 -50 0 -24 -4 -47 -10 -50 -6 -4 -10
-55 -10 -120 0 -65 4 -116 10 -120 6 -3 10 -26 10 -50 0 -24 5 -47 10 -50 6
-3 10 -21 10 -40 0 -19 5 -37 10 -40 6 -3 10 -14 10 -23 0 -22 67 -157 85
-172 8 -7 15 -18 15 -25 0 -6 9 -20 20 -30 11 -10 20 -23 20 -29 0 -14 141
-156 156 -156 6 0 19 -9 29 -20 10 -11 24 -20 30 -20 7 0 18 -7 25 -15 15 -18
150 -85 172 -85 9 0 20 -4 23 -10 3 -5 21 -10 40 -10 19 0 37 -4 40 -10 3 -5
26 -10 50 -10 24 0 47 -4 50 -10 4 -6 55 -10 120 -10 65 0 116 4 120 10 3 6
26 10 50 10 24 0 47 5 50 10 3 6 21 10 40 10 19 0 37 5 40 10 3 6 14 10 23 10
22 0 157 67 172 85 7 8 18 15 25 15 6 0 20 9 30 20 10 11 23 20 29 20 15 0
156 142 156 156 0 6 9 19 20 29 11 10 20 24 20 30 0 7 7 18 15 25 18 15 85
150 85 172 0 9 5 20 10 23 6 3 10 21 10 40 0 19 5 37 10 40 6 3 10 26 10 50 0
24 5 47 10 50 6 4 10 55 10 120 0 65 -4 116 -10 120 -5 3 -10 26 -10 50 0 24
-4 47 -10 50 -5 3 -10 21 -10 40 0 19 -4 37 -10 40 -5 3 -10 14 -10 23 0 22
-67 157 -85 172 -8 7 -15 18 -15 25 0 6 -9 20 -20 30 -11 10 -20 23 -20 29 0
15 -142 156 -156 156 -6 0 -19 9 -29 20 -10 11 -24 20 -30 20 -7 0 -18 7 -25
15 -15 18 -150 85 -172 85 -9 0 -20 5 -23 10 -3 6 -21 10 -40 10 -19 0 -37 5
-40 10 -3 6 -26 10 -50 10 -24 0 -47 5 -50 10 -4 6 -55 10 -120 10 -65 0 -116
-4 -120 -10z"/>
</g>
</svg>
