<?xml version="1.0" standalone="no"?>
<!DOCTYPE svg PUBLIC "-//W3C//DTD SVG 20010904//EN"
 "http://www.w3.org/TR/2001/REC-SVG-20010904/DTD/svg10.dtd">
<svg version="1.0" xmlns="http://www.w3.org/2000/svg"
 width="1024.000000pt" height="768.000000pt" viewBox="0 0 1024.000000 768.000000"
 preserveAspectRatio="xMidYMid meet">
<metadata>
Created by potrace 1.16, written by Peter Selinger 2001-2019
</metadata>
<g transform="translate(0.000000,768.000000) scale(0.100000,-0.100000)"
fill="#000000" stroke="none">
<path d="M4345 7670 c-3 -5 -29 -10 -57 -10 -28 0 -81 -5 -117 -10 -36 -6 -97
-15 -136 -21 -492 -75 -1051 -269 -1710 -595 -180 -89 -226 -114 -425 -227
-963 -550 -1638 -1253 -1853 -1932 -38 -121 -49 -213 -45 -363 5 -133 8 -156
37 -242 118 -345 378 -672 813 -1020 196 -158 308 -239 628 -459 308 -211 510
-362 507 -379 -1 -7 -65 -46 -142 -86 -736 -381 -1236 -787 -1405 -1141 -82
-173 -114 -328 -107 -518 5 -151 20 -216 77 -332 80 -165 191 -266 330 -298
145 -33 221 -40 390 -34 236 8 412 53 625 160 455 227 780 635 895 1122 83
349 57 786 -61 1017 -12 23 -17 44 -12 49 11 11 308 185 412 241 42 22 88 49
103 59 47 33 47 31 9 -96 -53 -173 -93 -454 -93 -650 1 -404 175 -839 377
-940 48 -24 76 -31 138 -34 252 -11 370 132 651 792 25 59 46 113 46 119 0 8
3 8 9 3 5 -6 5 -42 -1 -85 -13 -100 -3 -370 16 -439 47 -168 135 -251 265
-251 114 0 296 158 403 350 14 25 35 63 48 85 22 39 48 86 115 210 157 290
333 641 428 855 35 78 66 148 89 200 11 25 26 59 34 75 25 55 105 249 142 343
19 51 39 89 42 85 4 -5 15 -46 24 -93 44 -216 99 -376 203 -591 l85 -177 -105
-138 c-58 -77 -161 -205 -229 -285 -324 -384 -386 -465 -413 -544 -20 -60 -13
-107 22 -154 100 -132 471 -98 814 73 115 58 166 94 257 180 159 151 232 320
232 536 0 127 -46 319 -106 447 l-15 31 90 136 c86 128 251 393 251 402 0 2
11 21 23 42 13 20 39 64 57 97 18 33 47 85 63 115 17 30 52 97 78 149 l47 94
12 -59 c36 -166 96 -384 125 -449 42 -95 71 -158 102 -222 l35 -72 -134 -133
c-74 -73 -171 -182 -215 -242 -80 -107 -186 -298 -203 -366 -4 -19 -15 -61
-24 -93 -20 -71 -21 -198 -2 -251 19 -55 58 -101 114 -133 97 -57 254 -28 512
95 94 44 251 157 334 239 222 220 281 426 204 718 -19 70 -32 110 -40 120 -16
19 -7 43 20 53 209 80 398 112 664 112 255 0 450 -27 653 -92 76 -25 233 -100
295 -141 161 -108 277 -254 335 -422 15 -41 35 -151 35 -187 0 -57 -24 -148
-53 -203 -6 -11 -17 -33 -26 -50 -22 -45 -138 -155 -214 -204 -65 -42 -68 -46
-65 -80 3 -36 3 -36 55 -39 140 -8 382 188 471 380 12 26 22 54 22 62 0 8 5
18 10 21 6 3 10 19 10 35 0 16 5 32 10 35 6 4 10 60 10 136 0 79 -4 129 -10
129 -5 0 -10 13 -10 30 0 16 -4 39 -9 52 -5 13 -15 43 -22 68 -35 119 -132
278 -246 400 -111 120 -299 244 -470 311 -13 5 -33 13 -45 18 -66 26 -185 56
-323 82 -92 17 -485 17 -580 0 -147 -26 -202 -38 -320 -71 -83 -23 -177 -58
-279 -106 -19 -9 -39 -13 -45 -10 -16 10 -158 307 -179 376 -12 36 -26 103
-34 150 -16 108 -16 330 1 395 23 93 33 130 41 150 25 66 70 216 70 234 0 30
-60 84 -108 99 -84 25 -276 14 -449 -25 -12 -3 -37 -19 -56 -37 -39 -36 -60
-95 -118 -330 -12 -48 -27 -100 -34 -115 -7 -14 -23 -48 -35 -76 -64 -146
-194 -394 -343 -655 -120 -211 -198 -340 -206 -340 -4 0 -25 37 -46 83 -72
158 -80 180 -94 267 -47 287 -35 395 81 742 27 83 28 89 12 113 -46 70 -156
95 -342 76 -135 -13 -233 -40 -269 -73 -12 -11 -27 -43 -33 -72 -36 -154 -85
-300 -146 -434 -13 -29 -24 -55 -24 -57 0 -2 -11 -28 -24 -57 -13 -29 -56
-127 -96 -218 -40 -91 -87 -198 -106 -238 -19 -41 -34 -76 -34 -78 0 -2 -14
-34 -31 -71 -17 -38 -57 -126 -89 -198 -32 -71 -70 -156 -84 -187 -14 -32 -38
-84 -52 -115 -98 -216 -135 -296 -207 -438 -95 -190 -134 -252 -150 -236 -22
22 -11 207 22 367 30 146 119 504 181 729 17 61 38 145 47 187 17 77 17 78 -4
115 -52 90 -208 129 -284 72 l-35 -27 0 182 c1 236 -19 304 -114 390 -64 58
-101 70 -220 70 -86 1 -117 -4 -170 -23 -224 -80 -469 -262 -659 -489 -65 -77
-103 -114 -138 -132 -26 -13 -68 -36 -93 -50 -25 -15 -94 -52 -155 -85 -60
-32 -114 -61 -120 -65 -5 -4 -46 -26 -90 -50 -44 -23 -174 -94 -288 -157
l-208 -115 -32 37 c-71 84 -334 308 -611 520 -556 426 -773 653 -889 929 -64
151 -84 286 -68 444 38 353 191 642 516 968 171 171 258 247 428 372 31 23 81
59 110 81 101 75 320 213 527 331 140 81 558 296 650 334 25 11 72 31 105 46
33 15 92 39 130 53 39 14 108 40 155 57 134 50 441 141 550 163 14 3 72 14
130 26 637 131 1248 75 1570 -142 136 -92 203 -197 239 -375 38 -188 -30 -455
-187 -724 -28 -50 -128 -189 -159 -223 -10 -11 -45 -51 -78 -89 -128 -148
-389 -360 -585 -476 -174 -104 -309 -169 -504 -245 -363 -142 -816 -227 -1125
-210 -314 16 -554 105 -730 271 -49 46 -98 84 -108 84 -54 0 -67 -72 -31 -161
89 -220 390 -438 696 -503 166 -36 220 -41 487 -40 288 0 397 11 645 60 329
66 719 196 920 306 30 17 75 42 100 56 80 44 253 163 355 246 106 86 281 255
356 346 94 112 214 279 232 320 4 8 20 38 37 65 39 65 84 158 130 270 33 79
79 242 101 360 26 140 15 442 -21 555 -4 14 -14 45 -21 70 -18 63 -86 194
-138 265 -64 87 -193 209 -291 275 -168 113 -438 225 -635 264 -16 3 -52 11
-80 16 -87 19 -237 40 -281 40 -24 0 -46 5 -49 10 -4 6 -110 10 -285 10 -175
0 -281 -4 -285 -10z m1 -4315 c19 -29 14 -78 -22 -231 -54 -229 -258 -810
-389 -1109 -8 -16 -23 -54 -35 -84 -66 -169 -170 -343 -220 -368 -75 -37 -135
108 -146 352 -14 294 52 588 196 882 182 368 384 579 557 582 35 1 46 -4 59
-24z m3290 -850 c12 -72 3 -201 -18 -260 -55 -158 -148 -258 -313 -337 -69
-32 -84 -30 -85 13 0 18 35 131 55 174 7 17 21 50 31 75 23 58 73 143 122 208
65 87 174 203 186 199 6 -2 16 -35 22 -72z m-5372 -383 c58 -257 38 -521 -59
-761 -148 -364 -472 -665 -820 -762 -93 -26 -221 -31 -278 -11 -119 42 -167
164 -137 348 18 113 48 193 131 342 115 210 467 504 972 814 88 54 164 98 168
98 4 0 14 -30 23 -68z m4006 -5 c0 -18 -32 -143 -46 -177 -52 -131 -249 -328
-387 -388 -30 -13 -67 -16 -67 -6 0 7 40 53 134 154 83 89 176 198 266 313 70
89 100 121 100 104z"/>
</g>
</svg>
