<svg width="0" height="0" class="hidden">
  <symbol fill="none" xmlns="http://www.w3.org/2000/svg" viewBox="0 0 90 43" id="logo">
    <rect width="90" height="43" fill="#243234"></rect>
    <path d="M19.92 27H15.9825V22.32L12 12.555H16.0275L17.9175 18.6525L19.6725 12.555H23.6775L19.92 22.275V27ZM29.7875 15.7725H33.545V27H29.72V25.785C29.435 26.595 28.775 27 27.74 27H27.335C25.34 27 24.3425 26.07 24.3425 24.21V18.5625C24.3425 16.7025 25.34 15.7725 27.335 15.7725H27.74C28.895 15.7725 29.5775 16.2525 29.7875 17.2125V15.7725ZM28.73 24.1875H29.1125C29.5175 24.1875 29.72 23.9625 29.72 23.5125V19.26C29.72 18.81 29.5175 18.585 29.1125 18.585H28.73C28.355 18.585 28.1675 18.75 28.1675 19.08V23.6925C28.1675 24.0225 28.355 24.1875 28.73 24.1875ZM38.4166 15.7725H41.2741C42.4141 15.7725 43.2316 16.0125 43.7266 16.4925C44.2216 16.9725 44.4691 17.6625 44.4691 18.5625V24.21C44.4691 25.11 44.2216 25.8 43.7266 26.28C43.2316 26.76 42.4141 27 41.2741 27H38.4166C37.2766 27 36.4591 26.76 35.9641 26.28C35.4691 25.8 35.2216 25.11 35.2216 24.21V18.5625C35.2216 17.6625 35.4691 16.9725 35.9641 16.4925C36.4591 16.0125 37.2766 15.7725 38.4166 15.7725ZM40.7116 23.85V18.9225C40.7116 18.5925 40.5241 18.4275 40.1491 18.4275H39.5416C39.1666 18.4275 38.9791 18.5925 38.9791 18.9225V23.85C38.9791 24.18 39.1666 24.345 39.5416 24.345H40.1491C40.5241 24.345 40.7116 24.18 40.7116 23.85ZM51.7016 23.6925V21.645C51.7016 21.315 51.5141 21.15 51.1391 21.15H48.9791C47.8691 21.15 47.0816 20.91 46.6166 20.43C46.1666 19.935 45.9416 19.23 45.9416 18.315V15.345C45.9416 13.485 47.0366 12.555 49.2266 12.555H52.3091C54.4991 12.555 55.5941 13.485 55.5941 15.345V17.0775H51.6566V15.8625C51.6566 15.5325 51.4691 15.3675 51.0941 15.3675H50.4416C50.0666 15.3675 49.8791 15.5325 49.8791 15.8625V18C49.8791 18.33 50.0666 18.495 50.4416 18.495H52.5566C53.6666 18.495 54.4541 18.7275 54.9191 19.1925C55.3991 19.6575 55.6391 20.34 55.6391 21.24V24.21C55.6391 26.07 54.5441 27 52.3541 27H49.2941C47.0891 27 45.9866 26.07 45.9866 24.21V22.4775H49.9241V23.6925C49.9241 24.0225 50.1116 24.1875 50.4866 24.1875H51.1391C51.5141 24.1875 51.7016 24.0225 51.7016 23.6925ZM62.4388 15.7725H66.1963V27H62.3713V25.785C62.0863 26.595 61.4263 27 60.3913 27H59.9863C57.9913 27 56.9938 26.07 56.9938 24.21V18.5625C56.9938 16.7025 57.9913 15.7725 59.9863 15.7725H60.3913C61.5463 15.7725 62.2288 16.2525 62.4388 17.2125V15.7725ZM61.3813 24.1875H61.7638C62.1688 24.1875 62.3713 23.9625 62.3713 23.5125V19.26C62.3713 18.81 62.1688 18.585 61.7638 18.585H61.3813C61.0063 18.585 60.8188 18.75 60.8188 19.08V23.6925C60.8188 24.0225 61.0063 24.1875 61.3813 24.1875ZM73.7904 15.7725H74.1954C76.1904 15.7725 77.1879 16.7025 77.1879 18.5625V27H73.3629V19.08C73.3629 18.75 73.1754 18.585 72.8004 18.585H72.4179C72.0129 18.585 71.8104 18.81 71.8104 19.26V27H67.9854V15.7725H71.7429V17.2125C71.9529 16.2525 72.6354 15.7725 73.7904 15.7725Z" fill="#FAF5E9"></path>
  </symbol>
</svg>