<?xml version="1.0" standalone="no"?>
<!DOCTYPE svg PUBLIC "-//W3C//DTD SVG 20010904//EN"
 "http://www.w3.org/TR/2001/REC-SVG-20010904/DTD/svg10.dtd">
<svg version="1.0" xmlns="http://www.w3.org/2000/svg"
 width="1024.000000pt" height="1024.000000pt" viewBox="0 0 1024.000000 1024.000000"
 preserveAspectRatio="xMidYMid meet">
<metadata>
Created by potrace 1.16, written by Peter Selinger 2001-2019
</metadata>
<g transform="translate(0.000000,1024.000000) scale(0.100000,-0.100000)"
fill="#000000" stroke="none">
<path d="M810 10225 c0 -11 -12 -15 -45 -15 -25 0 -45 -4 -45 -10 0 -5 -13
-10 -30 -10 -16 0 -30 -4 -30 -10 0 -5 -13 -10 -30 -10 -16 0 -30 -4 -30 -10
0 -5 -9 -10 -20 -10 -11 0 -20 -4 -20 -10 0 -5 -9 -10 -20 -10 -11 0 -20 -4
-20 -10 0 -5 -8 -10 -18 -10 -10 0 -24 -9 -32 -20 -8 -11 -21 -20 -30 -20 -9
0 -22 -9 -30 -20 -8 -11 -20 -20 -27 -20 -17 0 -183 -166 -183 -183 0 -7 -9
-19 -20 -27 -11 -8 -20 -21 -20 -30 0 -9 -9 -22 -20 -30 -11 -8 -20 -22 -20
-32 0 -10 -4 -18 -10 -18 -5 0 -10 -9 -10 -20 0 -11 -4 -20 -10 -20 -5 0 -10
-9 -10 -20 0 -11 -4 -20 -10 -20 -5 0 -10 -13 -10 -30 0 -16 -4 -30 -10 -30
-5 0 -10 -13 -10 -30 0 -16 -4 -30 -10 -30 -5 0 -10 -18 -10 -40 0 -22 -4 -40
-10 -40 -7 0 -10 -1445 -10 -4315 0 -2870 3 -4315 10 -4315 6 0 10 -18 10 -40
0 -22 5 -40 10 -40 6 0 10 -13 10 -30 0 -16 5 -30 10 -30 6 0 10 -13 10 -30 0
-16 5 -30 10 -30 6 0 10 -9 10 -20 0 -11 5 -20 10 -20 6 0 10 -9 10 -20 0 -11
5 -20 10 -20 6 0 10 -8 10 -18 0 -10 9 -24 20 -32 11 -8 20 -21 20 -30 0 -9 9
-22 20 -30 11 -8 20 -20 20 -27 0 -17 166 -183 183 -183 7 0 19 -9 27 -20 8
-11 21 -20 30 -20 9 0 22 -9 30 -20 8 -11 22 -20 32 -20 10 0 18 -4 18 -10 0
-5 9 -10 20 -10 11 0 20 -4 20 -10 0 -5 9 -10 20 -10 11 0 20 -4 20 -10 0 -5
14 -10 30 -10 17 0 30 -4 30 -10 0 -5 14 -10 30 -10 17 0 30 -4 30 -10 0 -5
18 -10 40 -10 22 0 40 -4 40 -10 0 -7 1445 -10 4315 -10 2870 0 4315 3 4315
10 0 6 18 10 39 10 22 0 43 5 46 10 3 5 17 10 30 10 13 0 27 4 30 10 3 5 14
10 23 10 22 0 157 67 172 85 7 8 18 15 25 15 6 0 20 9 30 20 10 11 23 20 29
20 15 0 176 162 176 176 0 6 9 19 20 29 11 10 20 24 20 30 0 7 7 18 15 25 18
15 85 150 85 172 0 9 5 20 10 23 5 3 10 17 10 30 0 13 5 27 10 30 6 3 10 22
10 41 0 22 6 37 15 40 13 5 15 495 15 4320 0 3828 -2 4314 -15 4314 -11 0 -15
11 -15 40 0 22 -4 40 -10 40 -5 0 -10 14 -10 30 0 17 -4 30 -10 30 -5 0 -10
14 -10 30 0 17 -4 30 -10 30 -5 0 -10 9 -10 20 0 11 -4 20 -10 20 -5 0 -10 9
-10 20 0 11 -4 20 -10 20 -5 0 -10 8 -10 18 0 10 -9 24 -20 32 -11 8 -20 21
-20 30 0 9 -9 22 -20 30 -11 8 -20 20 -20 27 0 16 -165 183 -181 183 -6 0 -24
14 -39 30 -15 17 -35 30 -44 30 -9 0 -16 5 -16 10 0 6 -9 10 -20 10 -11 0 -20
5 -20 10 0 6 -9 10 -20 10 -11 0 -20 5 -20 10 0 6 -9 10 -20 10 -11 0 -20 5
-20 10 0 6 -13 10 -30 10 -16 0 -30 5 -30 10 0 6 -13 10 -30 10 -16 0 -30 5
-30 10 0 6 -18 10 -40 10 -29 0 -40 4 -40 15 0 13 -374 15 -3305 15 l-3305 0
0 -33 c0 -41 -27 -100 -42 -91 -6 4 -8 22 -5 40 7 44 -17 47 -32 3 -12 -36
-33 -30 -31 9 4 54 0 72 -15 72 -15 0 -21 -51 -15 -132 2 -33 -19 -48 -27 -19
-5 22 -23 29 -23 10 0 -6 -12 -9 -27 -7 -27 3 -28 5 -31 76 -3 69 -4 72 -27
72 -24 0 -25 -2 -25 -68 0 -54 -4 -72 -18 -85 -21 -19 -34 -13 -25 10 4 11 2
14 -8 11 -8 -3 -14 -10 -14 -16 0 -7 -4 -11 -10 -9 -10 2 -13 18 -14 105 -1
39 -5 52 -16 52 -12 0 -15 -15 -16 -72 -1 -40 -1 -77 0 -82 1 -5 -1 -16 -4
-24 -4 -12 -8 -12 -21 -1 -13 10 -17 10 -24 -1 -4 -7 -15 -10 -24 -7 -13 5
-16 23 -16 97 0 73 -3 90 -15 90 -12 0 -15 -15 -16 -72 -1 -40 0 -85 1 -100 2
-36 -18 -45 -30 -12 -10 26 -11 26 -30 9 -23 -21 -22 -25 -20 88 1 75 -1 87
-15 87 -14 0 -16 -12 -15 -87 2 -111 3 -108 -17 -92 -9 8 -24 13 -35 11 -16
-3 -18 5 -18 82 0 72 -3 86 -16 86 -13 0 -15 -13 -14 -77 3 -100 3 -98 -17
-82 -9 8 -24 13 -35 11 -16 -3 -18 4 -18 72 0 63 -3 76 -16 76 -13 0 -15 -13
-14 -77 3 -101 3 -99 -19 -79 -16 15 -20 15 -31 1 -22 -26 -27 -8 -22 75 4 69
2 80 -12 80 -13 0 -16 -12 -16 -64 0 -40 -5 -68 -13 -75 -23 -19 -37 9 -37 76
0 49 -3 63 -15 63 -12 0 -15 -14 -15 -65 0 -63 -1 -65 -25 -65 -24 0 -25 2
-25 65 0 53 -3 65 -16 65 -13 0 -15 -11 -14 -57 3 -75 2 -77 -13 -64 -10 8
-17 7 -25 -1 -14 -14 -15 -10 -12 65 1 46 -1 57 -14 57 -13 0 -16 -11 -16 -55
0 -52 -1 -55 -25 -55 -14 0 -25 5 -25 10 0 14 -27 13 -32 -2 -2 -6 -11 -9 -20
-6 -12 5 -14 17 -10 57 4 42 2 51 -12 51 -12 0 -16 -10 -16 -44 0 -48 -20 -76
-38 -53 -7 8 -24 12 -42 9 -30 -4 -30 -4 -30 42 0 34 -4 46 -15 46 -11 0 -15
-12 -15 -46 0 -38 -3 -45 -17 -42 -15 3 -17 12 -15 46 3 33 0 42 -12 42 -11 0
-16 -10 -16 -34 0 -31 -20 -63 -32 -50 -3 3 -4 23 -1 45 5 32 3 39 -11 39 -12
0 -16 -9 -16 -35 0 -24 -5 -35 -15 -35 -10 0 -15 11 -15 35 0 24 -5 35 -15 35
-10 0 -15 -11 -15 -35 0 -30 -3 -35 -24 -35 -13 0 -26 6 -29 13 -3 9 -7 9 -19
-1 -12 -10 -18 -9 -28 3 -7 8 -16 12 -21 9 -5 -3 -9 6 -9 20 0 16 -6 26 -15
26 -9 0 -15 -9 -15 -25 0 -20 -5 -25 -25 -25 -14 0 -25 5 -25 10 0 6 -7 10
-15 10 -8 0 -15 -4 -15 -10 0 -15 -26 -12 -39 4 -7 8 -21 12 -31 9 -14 -4 -20
0 -20 11 0 9 -7 16 -15 16 -8 0 -15 -7 -15 -15z m4687 -670 c-3 -150 -21 -158
-25 -11 -3 113 1 142 18 131 5 -3 8 -55 7 -120z m82 0 c0 -63 -4 -117 -9 -120
-14 -9 -50 79 -50 120 0 41 36 129 50 120 5 -3 9 -57 9 -120z m2701 -4085 c0
-6 50 -10 130 -10 80 0 130 -4 130 -10 0 -6 30 -10 70 -10 40 0 70 -4 70 -10
0 -6 27 -10 60 -10 33 0 60 -4 60 -10 0 -5 18 -10 40 -10 22 0 40 -4 40 -10 0
-5 23 -10 50 -10 28 0 50 -4 50 -10 0 -5 14 -10 30 -10 17 0 30 -4 30 -10 0
-5 14 -10 30 -10 17 0 30 -4 30 -10 0 -5 14 -10 30 -10 17 0 30 -4 30 -10 0
-5 9 -10 20 -10 20 0 20 -7 20 -455 0 -438 -1 -455 -19 -455 -10 0 -24 6 -30
14 -16 19 -271 146 -293 146 -9 0 -20 5 -23 10 -3 6 -17 10 -30 10 -13 0 -27
5 -30 10 -3 6 -17 10 -30 10 -13 0 -27 5 -30 10 -3 6 -21 10 -40 10 -19 0 -37
5 -40 10 -3 6 -21 10 -40 10 -19 0 -37 5 -40 10 -3 6 -30 10 -60 10 -30 0 -57
5 -60 10 -3 6 -39 10 -80 10 -41 0 -77 5 -80 10 -4 6 -62 10 -140 10 -78 0
-136 -4 -140 -10 -3 -5 -35 -10 -70 -10 -35 0 -67 -4 -70 -10 -3 -5 -21 -10
-40 -10 -19 0 -37 -4 -40 -10 -3 -5 -18 -10 -34 -10 -44 0 -199 -84 -253 -137
-26 -26 -48 -52 -48 -59 0 -6 -9 -19 -20 -29 -11 -10 -20 -28 -20 -41 0 -13
-4 -26 -10 -29 -6 -3 -10 -52 -10 -110 0 -58 4 -107 10 -110 6 -3 10 -14 10
-24 0 -29 26 -73 65 -111 19 -18 35 -40 35 -47 0 -7 6 -13 13 -13 7 0 31 -18
52 -40 21 -22 44 -40 50 -40 7 0 20 -9 30 -20 10 -11 24 -20 30 -20 7 0 18 -6
24 -14 13 -16 269 -146 287 -146 6 0 55 -22 109 -50 54 -27 104 -50 110 -50 7
0 47 -18 90 -40 43 -22 83 -40 89 -40 15 0 222 -104 244 -122 9 -8 42 -27 73
-42 32 -14 62 -33 69 -41 7 -8 18 -15 24 -15 7 0 25 -13 41 -30 16 -16 34 -30
40 -30 6 0 29 -18 50 -40 21 -22 44 -40 49 -40 14 0 126 -112 126 -125 0 -6
18 -29 40 -50 22 -21 40 -44 40 -51 0 -6 7 -17 15 -24 9 -7 25 -33 35 -56 11
-24 24 -45 29 -49 14 -8 41 -65 41 -86 0 -10 5 -21 10 -24 6 -3 10 -17 10 -30
0 -13 5 -27 10 -30 6 -3 10 -17 10 -30 0 -13 5 -27 10 -30 6 -3 10 -26 10 -50
0 -24 5 -47 10 -50 6 -4 10 -98 10 -250 0 -152 -4 -246 -10 -250 -5 -3 -10
-26 -10 -50 0 -24 -4 -47 -10 -50 -5 -3 -10 -17 -10 -30 0 -13 -4 -27 -10 -30
-5 -3 -10 -17 -10 -30 0 -13 -4 -27 -10 -30 -5 -3 -10 -14 -10 -23 0 -22 -67
-157 -85 -172 -8 -7 -15 -18 -15 -24 0 -7 -13 -25 -30 -41 -16 -16 -30 -34
-30 -40 0 -13 -172 -185 -186 -185 -6 0 -23 -13 -39 -30 -16 -17 -34 -30 -41
-30 -6 0 -17 -6 -23 -14 -16 -19 -271 -146 -293 -146 -9 0 -20 -4 -23 -10 -3
-5 -17 -10 -30 -10 -13 0 -27 -4 -30 -10 -3 -5 -17 -10 -30 -10 -13 0 -27 -4
-30 -10 -3 -5 -21 -10 -40 -10 -19 0 -37 -4 -40 -10 -3 -5 -26 -10 -50 -10
-24 0 -47 -4 -50 -10 -3 -5 -26 -10 -50 -10 -24 0 -47 -4 -50 -10 -3 -5 -35
-10 -70 -10 -35 0 -67 -4 -70 -10 -4 -6 -62 -10 -140 -10 -78 0 -136 -4 -140
-10 -8 -13 -212 -13 -220 0 -4 6 -62 10 -140 10 -78 0 -136 4 -140 10 -3 6
-39 10 -80 10 -41 0 -77 5 -80 10 -3 6 -30 10 -60 10 -30 0 -57 5 -60 10 -3 6
-26 10 -50 10 -24 0 -47 5 -50 10 -3 6 -21 10 -40 10 -19 0 -37 5 -40 10 -3 6
-21 10 -40 10 -19 0 -37 5 -40 10 -3 6 -17 10 -30 10 -13 0 -27 5 -30 10 -3 6
-17 10 -30 10 -13 0 -27 5 -30 10 -3 6 -14 10 -25 10 -10 0 -44 14 -75 30 -31
17 -64 30 -73 30 -8 0 -24 7 -34 17 -17 15 -18 44 -18 495 0 263 2 478 3 478
14 0 67 -34 87 -55 13 -14 29 -25 35 -25 7 0 20 -9 30 -20 10 -11 24 -20 30
-20 7 0 18 -6 24 -14 14 -16 310 -166 328 -166 7 0 28 -9 48 -20 20 -11 49
-20 65 -20 16 0 32 -4 35 -10 3 -5 17 -10 30 -10 13 0 27 -5 30 -10 3 -6 21
-10 40 -10 19 0 37 -4 40 -10 3 -5 26 -10 50 -10 24 0 47 -4 50 -10 3 -5 44
-10 90 -10 46 0 87 -4 90 -10 8 -13 272 -13 280 0 3 6 39 10 80 10 41 0 77 5
80 10 3 6 21 10 40 10 19 0 37 5 40 10 3 6 17 10 30 10 13 0 27 4 30 10 3 5
14 10 24 10 23 0 75 26 91 45 7 8 18 15 24 15 14 0 125 115 144 147 6 13 12
32 12 42 0 11 5 23 10 26 6 3 10 52 10 110 0 58 -4 107 -10 110 -5 3 -10 14
-10 24 0 23 -26 75 -45 91 -8 7 -15 17 -15 23 0 15 -141 157 -156 157 -6 0
-19 9 -29 20 -10 11 -24 20 -30 20 -7 0 -18 6 -24 14 -13 16 -349 186 -368
186 -6 0 -37 14 -68 30 -31 17 -63 30 -70 30 -7 0 -39 14 -70 30 -31 17 -62
30 -68 30 -19 0 -355 170 -368 186 -6 8 -17 14 -24 14 -6 0 -20 9 -30 20 -10
11 -23 20 -30 20 -7 0 -20 9 -30 20 -10 11 -23 20 -30 20 -6 0 -29 18 -50 40
-21 22 -44 40 -49 40 -14 0 -166 152 -166 165 0 6 -13 24 -30 40 -16 16 -30
34 -30 41 0 6 -6 17 -14 23 -19 16 -126 231 -126 253 0 9 -4 20 -10 23 -5 3
-10 21 -10 40 0 19 -4 37 -10 40 -5 3 -10 21 -10 40 0 19 -4 37 -10 40 -5 3
-10 35 -10 70 0 35 -4 67 -10 70 -6 3 -10 48 -10 100 0 52 4 97 10 100 6 3 10
35 10 70 0 35 5 67 10 70 6 3 10 26 10 50 0 24 5 47 10 50 6 3 10 17 10 30 0
13 5 27 10 30 6 3 10 14 10 23 0 22 87 197 106 212 8 7 14 18 14 24 0 7 14 25
30 41 17 16 30 34 30 40 0 13 172 185 186 185 6 0 23 14 39 30 16 17 34 30 40
30 7 0 20 9 30 20 10 11 24 20 30 20 7 0 18 6 25 14 13 17 189 106 207 106 7
0 28 9 48 20 20 11 44 20 55 20 10 0 22 5 25 10 3 6 17 10 30 10 13 0 27 5 30
10 3 6 22 10 41 10 19 0 34 5 34 10 0 6 23 10 50 10 28 0 50 5 50 10 0 6 23
10 50 10 28 0 50 5 50 10 0 6 27 10 60 10 33 0 60 4 60 10 0 6 50 10 130 10
80 0 130 4 130 10 0 6 58 10 155 10 97 0 155 -4 155 -10z m-2342 -502 l-3
-413 -647 -3 -648 -2 0 -1830 0 -1830 -505 0 -505 0 0 1830 0 1830 -640 0
-640 0 0 415 0 415 1795 0 1795 0 -2 -412z"/>
</g>
</svg>
