<svg version="1.0" xmlns="http://www.w3.org/2000/svg" width="1365.333" height="1365.333" viewBox="0 0 1024 1024"><path d="M81 1.5C81 2.6 79.8 3 76.5 3 74 3 72 3.4 72 4c0 .5-1.3 1-3 1-1.6 0-3 .4-3 1 0 .5-1.3 1-3 1-1.6 0-3 .4-3 1 0 .5-.9 1-2 1s-2 .4-2 1c0 .5-.9 1-2 1s-2 .4-2 1c0 .5-.8 1-1.8 1s-2.4.9-3.2 2c-.8 1.1-2.1 2-3 2-.9 0-2.2.9-3 2-.8 1.1-2 2-2.7 2C36.6 21 20 37.6 20 39.3c0 .7-.9 1.9-2 2.7-1.1.8-2 2.1-2 3 0 .9-.9 2.2-2 3-1.1.8-2 2.2-2 3.2s-.4 1.8-1 1.8c-.5 0-1 .9-1 2s-.4 2-1 2c-.5 0-1 .9-1 2s-.4 2-1 2c-.5 0-1 1.3-1 3 0 1.6-.4 3-1 3-.5 0-1 1.3-1 3 0 1.6-.4 3-1 3-.5 0-1 1.8-1 4s-.4 4-1 4c-.7 0-1 144.5-1 431.5S.3 944 1 944c.6 0 1 1.8 1 4s.5 4 1 4c.6 0 1 1.3 1 3 0 1.6.5 3 1 3 .6 0 1 1.3 1 3 0 1.6.5 3 1 3 .6 0 1 .9 1 2s.5 2 1 2c.6 0 1 .9 1 2s.5 2 1 2c.6 0 1 .8 1 1.8s.9 2.4 2 3.2c1.1.8 2 2.1 2 3 0 .9.9 2.2 2 3 1.1.8 2 2 2 2.7 0 1.7 16.6 18.3 18.3 18.3.7 0 1.9.9 2.7 2 .8 1.1 2.1 2 3 2 .9 0 2.2.9 3 2 .8 1.1 2.2 2 3.2 2s1.8.4 1.8 1c0 .5.9 1 2 1s2 .4 2 1c0 .5.9 1 2 1s2 .4 2 1c0 .5 1.4 1 3 1 1.7 0 3 .4 3 1 0 .5 1.4 1 3 1 1.7 0 3 .4 3 1 0 .5 1.8 1 4 1s4 .4 4 1c0 .7 144.5 1 431.5 1s431.5-.3 431.5-1c0-.6 1.8-1 3.9-1 2.2 0 4.3-.5 4.6-1 .3-.5 1.7-1 3-1s2.7-.4 3-1c.3-.5 1.4-1 2.3-1 2.2 0 15.7-6.7 17.2-8.5.7-.8 1.8-1.5 2.5-1.5.6 0 2-.9 3-2s2.3-2 2.9-2c1.5 0 17.6-16.2 17.6-17.6 0-.6.9-1.9 2-2.9s2-2.4 2-3c0-.7.7-1.8 1.5-2.5 1.8-1.5 8.5-15 8.5-17.2 0-.9.5-2 1-2.3.5-.3 1-1.7 1-3s.5-2.7 1-3c.6-.3 1-2.2 1-4.1 0-2.2.6-3.7 1.5-4 1.3-.5 1.5-49.5 1.5-432 0-382.8-.2-431.4-1.5-431.4-1.1 0-1.5-1.1-1.5-4 0-2.2-.4-4-1-4-.5 0-1-1.4-1-3 0-1.7-.4-3-1-3-.5 0-1-1.4-1-3 0-1.7-.4-3-1-3-.5 0-1-.9-1-2s-.4-2-1-2c-.5 0-1-.9-1-2s-.4-2-1-2c-.5 0-1-.8-1-1.8s-.9-2.4-2-3.2c-1.1-.8-2-2.1-2-3 0-.9-.9-2.2-2-3-1.1-.8-2-2-2-2.7 0-1.6-16.5-18.3-18.1-18.3-.6 0-2.4-1.4-3.9-3-1.5-1.7-3.5-3-4.4-3-.9 0-1.6-.5-1.6-1 0-.6-.9-1-2-1s-2-.5-2-1c0-.6-.9-1-2-1s-2-.5-2-1c0-.6-.9-1-2-1s-2-.5-2-1c0-.6-1.3-1-3-1-1.6 0-3-.5-3-1 0-.6-1.3-1-3-1-1.6 0-3-.5-3-1 0-.6-1.8-1-4-1-2.9 0-4-.4-4-1.5C943 .2 905.6 0 612.5 0H282v3.3c0 4.1-2.7 10-4.2 9.1-.6-.4-.8-2.2-.5-4 .7-4.4-1.7-4.7-3.2-.3-1.2 3.6-3.3 3-3.1-.9.4-5.4 0-7.2-1.5-7.2s-2.1 5.1-1.5 13.2c.2 3.3-1.9 4.8-2.7 1.9-.5-2.2-2.3-2.9-2.3-1 0 .6-1.2.9-2.7.7-2.7-.3-2.8-.5-3.1-7.6-.3-6.9-.4-7.2-2.7-7.2-2.4 0-2.5.2-2.5 6.8 0 5.4-.4 7.2-1.8 8.5-2.1 1.9-3.4 1.3-2.5-1 .4-1.1.2-1.4-.8-1.1-.8.3-1.4 1-1.4 1.6 0 .7-.4 1.1-1 .9-1-.2-1.3-1.8-1.4-10.5-.1-3.9-.5-5.2-1.6-5.2-1.2 0-1.5 1.5-1.6 7.2-.1 4-.1 7.7 0 8.2.1.5-.1 1.6-.4 2.4-.4 1.2-.8 1.2-2.1.1-1.3-1-1.7-1-2.4.1-.4.7-1.5 1-2.4.7-1.3-.5-1.6-2.3-1.6-9.7 0-7.3-.3-9-1.5-9s-1.5 1.5-1.6 7.2c-.1 4 0 8.5.1 10 .2 3.6-1.8 4.5-3 1.2-1-2.6-1.1-2.6-3-.9-2.3 2.1-2.2 2.5-2-8.8.1-7.5-.1-8.7-1.5-8.7s-1.6 1.2-1.5 8.7c.2 11.1.3 10.8-1.7 9.2-.9-.8-2.4-1.3-3.5-1.1-1.6.3-1.8-.5-1.8-8.2 0-7.2-.3-8.6-1.6-8.6s-1.5 1.3-1.4 7.7c.3 10 .3 9.8-1.7 8.2-.9-.8-2.4-1.3-3.5-1.1-1.6.3-1.8-.4-1.8-7.2 0-6.3-.3-7.6-1.6-7.6s-1.5 1.3-1.4 7.7c.3 10.1.3 9.9-1.9 7.9-1.6-1.5-2-1.5-3.1-.1-2.2 2.6-2.7.8-2.2-7.5.4-6.9.2-8-1.2-8-1.3 0-1.6 1.2-1.6 6.4 0 4-.5 6.8-1.3 7.5-2.3 1.9-3.7-.9-3.7-7.6 0-4.9-.3-6.3-1.5-6.3S179 1.4 179 6.5c0 6.3-.1 6.5-2.5 6.5s-2.5-.2-2.5-6.5c0-5.3-.3-6.5-1.6-6.5s-1.5 1.1-1.4 5.7c.3 7.5.2 7.7-1.3 6.4-1-.8-1.7-.7-2.5.1-1.4 1.4-1.5 1-1.2-6.5.1-4.6-.1-5.7-1.4-5.7-1.3 0-1.6 1.1-1.6 5.5 0 5.2-.1 5.5-2.5 5.5-1.4 0-2.5-.5-2.5-1 0-1.4-2.7-1.3-3.2.2-.2.6-1.1.9-2 .6-1.2-.5-1.4-1.7-1-5.7.4-4.2.2-5.1-1.2-5.1-1.2 0-1.6 1-1.6 4.4 0 4.8-2 7.6-3.8 5.3-.7-.8-2.4-1.2-4.2-.9-3 .4-3 .4-3-4.2 0-3.4-.4-4.6-1.5-4.6S135 1.2 135 4.6c0 3.8-.3 4.5-1.7 4.2-1.5-.3-1.7-1.2-1.5-4.6.3-3.3 0-4.2-1.2-4.2-1.1 0-1.6 1-1.6 3.4 0 3.1-2 6.3-3.2 5-.3-.3-.4-2.3-.1-4.5.5-3.2.3-3.9-1.1-3.9-1.2 0-1.6.9-1.6 3.5 0 2.4-.5 3.5-1.5 3.5S120 5.9 120 3.5s-.5-3.5-1.5-3.5-1.5 1.1-1.5 3.5c0 3-.3 3.5-2.4 3.5-1.3 0-2.6-.6-2.9-1.3-.3-.9-.7-.9-1.9.1s-1.8.9-2.8-.3c-.7-.8-1.6-1.2-2.1-.9-.5.3-.9-.6-.9-2 0-1.6-.6-2.6-1.5-2.6s-1.5.9-1.5 2.5c0 2-.5 2.5-2.5 2.5-1.4 0-2.5-.5-2.5-1 0-.6-.7-1-1.5-1S93 3.4 93 4c0 1.5-2.6 1.2-3.9-.4-.7-.8-2.1-1.2-3.1-.9-1.4.4-2 0-2-1.1 0-.9-.7-1.6-1.5-1.6S81 .7 81 1.5zm468.7 67c-.3 15-2.1 15.8-2.5 1.1-.3-11.3.1-14.2 1.8-13.1.5.3.8 5.5.7 12zm8.2 0c0 6.3-.4 11.7-.9 12-1.4.9-5-7.9-5-12s3.6-12.9 5-12c.5.3.9 5.7.9 12zM828 477c0 .6 5 1 13 1s13 .4 13 1 3 1 7 1 7 .4 7 1 2.7 1 6 1 6 .4 6 1c0 .5 1.8 1 4 1s4 .4 4 1c0 .5 2.3 1 5 1 2.8 0 5 .4 5 1 0 .5 1.4 1 3 1 1.7 0 3 .4 3 1 0 .5 1.4 1 3 1 1.7 0 3 .4 3 1 0 .5 1.4 1 3 1 1.7 0 3 .4 3 1 0 .5.9 1 2 1 2 0 2 .7 2 45.5 0 43.8-.1 45.5-1.9 45.5-1 0-2.4-.6-3-1.4-1.6-1.9-27.1-14.6-29.3-14.6-.9 0-2-.5-2.3-1-.3-.6-1.7-1-3-1s-2.7-.5-3-1c-.3-.6-1.7-1-3-1s-2.7-.5-3-1c-.3-.6-2.1-1-4-1s-3.7-.5-4-1c-.3-.6-2.1-1-4-1s-3.7-.5-4-1c-.3-.6-3-1-6-1s-5.7-.5-6-1c-.3-.6-3.9-1-8-1s-7.7-.5-8-1c-.4-.6-6.2-1-14-1s-13.6.4-14 1c-.3.5-3.5 1-7 1s-6.7.4-7 1c-.3.5-2.1 1-4 1s-3.7.4-4 1c-.3.5-1.8 1-3.4 1-4.4 0-19.9 8.4-25.3 13.7-2.6 2.6-4.8 5.2-4.8 5.9 0 .6-.9 1.9-2 2.9s-2 2.8-2 4.1c0 1.3-.4 2.6-1 2.9-.6.3-1 5.2-1 11s.4 10.7 1 11c.6.3 1 1.4 1 2.4 0 2.9 2.6 7.3 6.5 11.1 1.9 1.8 3.5 4 3.5 4.7 0 .7.6 1.3 1.3 1.3.7 0 3.1 1.8 5.2 4s4.4 4 5 4c.7 0 2 .9 3 2s2.4 2 3 2c.7 0 1.8.6 2.4 1.4 1.3 1.6 26.9 14.6 28.7 14.6.6 0 5.5 2.2 10.9 5 5.4 2.7 10.4 5 11 5 .7 0 4.7 1.8 9 4s8.3 4 8.9 4c1.5 0 22.2 10.4 24.4 12.2.9.8 4.2 2.7 7.3 4.2 3.2 1.4 6.2 3.3 6.9 4.1.7.8 1.8 1.5 2.4 1.5.7 0 2.5 1.3 4.1 3 1.6 1.6 3.4 3 4 3 .6 0 2.9 1.8 5 4s4.4 4 4.9 4c1.4 0 12.6 11.2 12.6 12.5 0 .6 1.8 2.9 4 5s4 4.4 4 5.1c0 .6.7 1.7 1.5 2.4.9.7 2.5 3.3 3.5 5.6 1.1 2.4 2.4 4.5 2.9 4.9 1.4.8 4.1 6.5 4.1 8.6 0 1 .5 2.1 1 2.4.6.3 1 1.7 1 3s.5 2.7 1 3c.6.3 1 1.7 1 3s.5 2.7 1 3c.6.3 1 2.6 1 5s.5 4.7 1 5c.6.4 1 9.8 1 25s-.4 24.6-1 25c-.5.3-1 2.6-1 5s-.4 4.7-1 5c-.5.3-1 1.7-1 3s-.4 2.7-1 3c-.5.3-1 1.7-1 3s-.4 2.7-1 3c-.5.3-1 1.4-1 2.3 0 2.2-6.7 15.7-8.5 17.2-.8.7-1.5 1.8-1.5 2.4 0 .7-1.3 2.5-3 4.1-1.6 1.6-3 3.4-3 4 0 1.3-17.2 18.5-18.6 18.5-.6 0-2.3 1.3-3.9 3s-3.4 3-4.1 3c-.6 0-1.7.6-2.3 1.4-1.6 1.9-27.1 14.6-29.3 14.6-.9 0-2 .4-2.3 1-.3.5-1.7 1-3 1s-2.7.4-3 1c-.3.5-1.7 1-3 1s-2.7.4-3 1c-.3.5-2.1 1-4 1s-3.7.4-4 1c-.3.5-2.6 1-5 1s-4.7.4-5 1c-.3.5-2.6 1-5 1s-4.7.4-5 1c-.3.5-3.5 1-7 1s-6.7.4-7 1c-.4.6-6.2 1-14 1s-13.6.4-14 1c-.8 1.3-21.2 1.3-22 0-.4-.6-6.2-1-14-1s-13.6-.4-14-1c-.3-.6-3.9-1-8-1s-7.7-.5-8-1c-.3-.6-3-1-6-1s-5.7-.5-6-1c-.3-.6-2.6-1-5-1s-4.7-.5-5-1c-.3-.6-2.1-1-4-1s-3.7-.5-4-1c-.3-.6-2.1-1-4-1s-3.7-.5-4-1c-.3-.6-1.7-1-3-1s-2.7-.5-3-1c-.3-.6-1.7-1-3-1s-2.7-.5-3-1c-.3-.6-1.4-1-2.5-1-1 0-4.4-1.4-7.5-3-3.1-1.7-6.4-3-7.3-3-.8 0-2.4-.7-3.4-1.7-1.7-1.5-1.8-4.4-1.8-49.5 0-26.3.2-47.8.3-47.8 1.4 0 6.7 3.4 8.7 5.5 1.3 1.4 2.9 2.5 3.5 2.5.7 0 2 .9 3 2s2.4 2 3 2c.7 0 1.8.6 2.4 1.4 1.4 1.6 31 16.6 32.8 16.6.7 0 2.8.9 4.8 2s4.9 2 6.5 2c1.6 0 3.2.4 3.5 1 .3.5 1.7 1 3 1s2.7.5 3 1c.3.6 2.1 1 4 1s3.7.4 4 1c.3.5 2.6 1 5 1s4.7.4 5 1c.3.5 4.4 1 9 1s8.7.4 9 1c.8 1.3 27.2 1.3 28 0 .3-.6 3.9-1 8-1s7.7-.5 8-1c.3-.6 2.1-1 4-1s3.7-.5 4-1c.3-.6 1.7-1 3-1s2.7-.4 3-1c.3-.5 1.4-1 2.4-1 2.3 0 7.5-2.6 9.1-4.5.7-.8 1.8-1.5 2.4-1.5 1.4 0 12.5-11.5 14.4-14.7.6-1.3 1.2-3.2 1.2-4.2 0-1.1.5-2.3 1-2.6.6-.3 1-5.2 1-11s-.4-10.7-1-11c-.5-.3-1-1.4-1-2.4 0-2.3-2.6-7.5-4.5-9.1-.8-.7-1.5-1.7-1.5-2.3 0-1.5-14.1-15.7-15.6-15.7-.6 0-1.9-.9-2.9-2s-2.4-2-3-2c-.7 0-1.8-.6-2.4-1.4-1.3-1.6-34.9-18.6-36.8-18.6-.6 0-3.7-1.4-6.8-3-3.1-1.7-6.3-3-7-3-.7 0-3.9-1.4-7-3-3.1-1.7-6.2-3-6.8-3-1.9 0-35.5-17-36.8-18.6-.6-.8-1.7-1.4-2.4-1.4-.6 0-2-.9-3-2s-2.3-2-3-2c-.7 0-2-.9-3-2s-2.3-2-3-2c-.6 0-2.9-1.8-5-4s-4.4-4-4.9-4c-1.4 0-16.6-15.2-16.6-16.5 0-.6-1.3-2.4-3-4-1.6-1.6-3-3.4-3-4.1 0-.6-.6-1.7-1.4-2.3-1.9-1.6-12.6-23.1-12.6-25.3 0-.9-.4-2-1-2.3-.5-.3-1-2.1-1-4s-.4-3.7-1-4c-.5-.3-1-2.1-1-4s-.4-3.7-1-4c-.5-.3-1-3.5-1-7s-.4-6.7-1-7c-.6-.3-1-4.8-1-10s.4-9.7 1-10c.6-.3 1-3.5 1-7s.5-6.7 1-7c.6-.3 1-2.6 1-5s.5-4.7 1-5c.6-.3 1-1.7 1-3s.5-2.7 1-3c.6-.3 1-1.4 1-2.3 0-2.2 8.7-19.7 10.6-21.2.8-.7 1.4-1.8 1.4-2.4 0-.7 1.4-2.5 3-4.1 1.7-1.6 3-3.4 3-4 0-1.3 17.2-18.5 18.6-18.5.6 0 2.3-1.4 3.9-3 1.6-1.7 3.4-3 4-3 .7 0 2-.9 3-2s2.4-2 3-2c.7 0 1.8-.6 2.5-1.4 1.3-1.7 18.9-10.6 20.7-10.6.7 0 2.8-.9 4.8-2s4.4-2 5.5-2c1 0 2.2-.5 2.5-1 .3-.6 1.7-1 3-1s2.7-.5 3-1c.3-.6 2.2-1 4.1-1 1.9 0 3.4-.5 3.4-1 0-.6 2.3-1 5-1 2.8 0 5-.5 5-1 0-.6 2.3-1 5-1 2.8 0 5-.5 5-1 0-.6 2.7-1 6-1s6-.4 6-1 5-1 13-1 13-.4 13-1 5.8-1 15.5-1 15.5.4 15.5 1zm-234.2 50.2-.3 41.3-64.7.3-64.8.2v366H363V569H235v-83h359l-.2 41.2z" fill="currentColor"/></svg>