<svg width="96" height="96" viewBox="0 0 96 96" fill="none" xmlns="http://www.w3.org/2000/svg">
<path d="M47.16 46H38.88V32.76H48.76C53.8 32.76 56.6 35 56.6 39.12C56.6 43.6 53.28 46 47.16 46ZM48.64 50.52H38.88V65.08H49.12C55.36 65.08 58.64 62.56 58.64 57.76C58.64 52.96 55.24 50.52 48.64 50.52ZM88 21.24V74.76C88 82 82 88 74.76 88H21.24C14 88 8 82 8 74.76V21.24C8 14 14 8 21.24 8H74.76C82 8 88 14 88 21.24ZM64 58C64 52.48 60.32 48.52 54.68 47.8V47.56C58.68 46.84 61.84 42.84 61.84 38.52C61.84 32.32 57.04 28.2 50 28.2H33.72V69.64H49.88C58.72 69.64 64 65.28 64 58Z" fill="currentColor"/>
</svg>
