<svg width="97" height="96" viewBox="0 0 97 96" fill="none" xmlns="http://www.w3.org/2000/svg">
<path d="M18.4179 18.3001C19.543 17.1752 21.0689 16.5433 22.6599 16.5433C24.2508 16.5433 25.7767 17.1752 26.9019 18.3001L48.1179 39.5161L69.3339 18.3001C70.4655 17.2071 71.9811 16.6023 73.5543 16.616C75.1274 16.6297 76.6323 17.2607 77.7448 18.3731C78.8572 19.4856 79.4882 20.9905 79.5019 22.5636C79.5156 24.1368 78.9108 25.6524 77.8179 26.7841L56.6018 48.0001L77.8179 69.2161C78.9108 70.3477 79.5156 71.8633 79.5019 73.4365C79.4882 75.0096 78.8572 76.5145 77.7448 77.627C76.6323 78.7394 75.1274 79.3704 73.5543 79.3841C71.9811 79.3978 70.4655 78.793 69.3339 77.7001L48.1179 56.4841L26.9019 77.7001C25.7702 78.793 24.2546 79.3978 22.6814 79.3841C21.1083 79.3704 19.6034 78.7394 18.4909 77.627C17.3785 76.5145 16.7475 75.0096 16.7338 73.4365C16.7201 71.8633 17.3249 70.3477 18.4179 69.2161L39.6339 48.0001L18.4179 26.7841C17.293 25.6589 16.6611 24.133 16.6611 22.5421C16.6611 20.9511 17.293 19.4252 18.4179 18.3001Z" fill="currentColor"/>
</svg>
