<svg width="96" height="96" viewBox="0 0 96 96" fill="none" xmlns="http://www.w3.org/2000/svg">
<path d="M44 20V4H52V20H44ZM70.6 31L65.1 25.5L76.3 14L81.9 19.7L70.6 31ZM76 52V44H92V52H76ZM44 92V76H52V92H44ZM25.4 30.8L14 19.7L19.7 14.1L31 25.4L25.4 30.8ZM76.2 82L65.1 70.5L70.5 65.1L81.9 76.1L76.2 82ZM4 52V44H20V52H4ZM19.7 82L14.1 76.3L25.3 65.1L28.2 67.8L31.1 70.6L19.7 82ZM48 72C41.3333 72 35.6667 69.6667 31 65C26.3333 60.3333 24 54.6667 24 48C24 41.3333 26.3333 35.6667 31 31C35.6667 26.3333 41.3333 24 48 24C54.6667 24 60.3333 26.3333 65 31C69.6667 35.6667 72 41.3333 72 48C72 54.6667 69.6667 60.3333 65 65C60.3333 69.6667 54.6667 72 48 72Z" fill="currentColor"/>
</svg>
