<svg width="96" height="96" viewBox="0 0 96 96" fill="none" xmlns="http://www.w3.org/2000/svg">
<path d="M33.1542 5H47.2516V33.1951H33.1544C14.5632 32.4684 14.3754 5.76329 33.1542 5ZM33.1542 62.5962H47.2516V34.4011H33.1544C14.3756 35.1644 14.5632 61.8694 33.1542 62.5962ZM62.5552 5H48.4575V33.1951H62.5552C81.3965 32.1868 81.1617 5.57553 62.5552 5ZM47.2516 77.8999V63.8021H33.1544C21.6503 63.8021 14.3756 77.2898 22.3764 86.9774C30.0045 96.5795 47.2517 91.7923 47.2517 77.8999M76.6815 48.4986C76.6815 37.6644 64.8723 30.8565 55.4761 36.2736C46.08 41.6907 46.0798 55.3067 55.4761 60.7238C64.8725 66.1409 76.6815 59.3328 76.6815 48.4986Z" fill="currentColor"/>
</svg>
