<svg width="136" height="136" viewBox="0 0 136 136" fill="none" xmlns="http://www.w3.org/2000/svg">
<g clip-path="url(#clip0_2000_4408)">
<path d="M39.7155 79.3137L73.6567 113.255L62.343 124.569L28.4018 90.6274L39.7155 79.3137ZM84.9704 101.941C83.4701 103.441 81.4352 104.284 79.3135 104.284C77.1918 104.284 75.157 103.441 73.6567 101.941L45.3724 73.6569C43.8168 72.1012 43.0248 70.0648 43.0531 68L43.0248 30.7496L49.0211 30.7496C50.5484 30.7496 52.0758 31.3153 53.2354 32.475L54.0557 33.4649L64.2946 49.0778L82.1419 31.2304C83.6422 29.7302 85.6771 28.8873 87.7988 28.8873C89.9205 28.8873 91.9554 29.7302 93.4557 31.2304L99.1125 36.8873C99.8479 37.6227 100.385 38.4429 100.781 39.348L112.18 67.8303C113.368 70.7153 112.774 74.1377 110.426 76.4853L84.9704 101.941ZM79.3135 96.2843L104.854 70.7436L93.4557 42.5442L87.7988 36.8873L62.9369 61.7492L51.0858 43.5058L51.1141 68.0849L79.3135 96.2843Z" fill="currentColor"/>
</g>
<defs>
<clipPath id="clip0_2000_4408">
<rect width="96" height="96" fill="white" transform="translate(0.117676 68) rotate(-45)"/>
</clipPath>
</defs>
</svg>
