<svg width="110" height="43" viewBox="0 0 110 43" fill="none" xmlns="http://www.w3.org/2000/svg">
<path d="M51.92 29H47.9825V24.32L44 14.555H48.0275L49.9175 20.6525L51.6725 14.555H55.6775L51.92 24.275V29ZM61.7875 17.7725H65.545V29H61.72V27.785C61.435 28.595 60.775 29 59.74 29H59.335C57.34 29 56.3425 28.07 56.3425 26.21V20.5625C56.3425 18.7025 57.34 17.7725 59.335 17.7725H59.74C60.895 17.7725 61.5775 18.2525 61.7875 19.2125V17.7725ZM60.73 26.1875H61.1125C61.5175 26.1875 61.72 25.9625 61.72 25.5125V21.26C61.72 20.81 61.5175 20.585 61.1125 20.585H60.73C60.355 20.585 60.1675 20.75 60.1675 21.08V25.6925C60.1675 26.0225 60.355 26.1875 60.73 26.1875ZM70.4166 17.7725H73.2741C74.4141 17.7725 75.2316 18.0125 75.7266 18.4925C76.2216 18.9725 76.4691 19.6625 76.4691 20.5625V26.21C76.4691 27.11 76.2216 27.8 75.7266 28.28C75.2316 28.76 74.4141 29 73.2741 29H70.4166C69.2766 29 68.4591 28.76 67.9641 28.28C67.4691 27.8 67.2216 27.11 67.2216 26.21V20.5625C67.2216 19.6625 67.4691 18.9725 67.9641 18.4925C68.4591 18.0125 69.2766 17.7725 70.4166 17.7725ZM72.7116 25.85V20.9225C72.7116 20.5925 72.5241 20.4275 72.1491 20.4275H71.5416C71.1666 20.4275 70.9791 20.5925 70.9791 20.9225V25.85C70.9791 26.18 71.1666 26.345 71.5416 26.345H72.1491C72.5241 26.345 72.7116 26.18 72.7116 25.85ZM83.7016 25.6925V23.645C83.7016 23.315 83.5141 23.15 83.1391 23.15H80.9791C79.8691 23.15 79.0816 22.91 78.6166 22.43C78.1666 21.935 77.9416 21.23 77.9416 20.315V17.345C77.9416 15.485 79.0366 14.555 81.2266 14.555H84.3091C86.4991 14.555 87.5941 15.485 87.5941 17.345V19.0775H83.6566V17.8625C83.6566 17.5325 83.4691 17.3675 83.0941 17.3675H82.4416C82.0666 17.3675 81.8791 17.5325 81.8791 17.8625V20C81.8791 20.33 82.0666 20.495 82.4416 20.495H84.5566C85.6666 20.495 86.4541 20.7275 86.9191 21.1925C87.3991 21.6575 87.6391 22.34 87.6391 23.24V26.21C87.6391 28.07 86.5441 29 84.3541 29H81.2941C79.0891 29 77.9866 28.07 77.9866 26.21V24.4775H81.9241V25.6925C81.9241 26.0225 82.1116 26.1875 82.4866 26.1875H83.1391C83.5141 26.1875 83.7016 26.0225 83.7016 25.6925ZM94.4388 17.7725H98.1963V29H94.3713V27.785C94.0863 28.595 93.4263 29 92.3913 29H91.9863C89.9913 29 88.9938 28.07 88.9938 26.21V20.5625C88.9938 18.7025 89.9913 17.7725 91.9863 17.7725H92.3913C93.5463 17.7725 94.2288 18.2525 94.4388 19.2125V17.7725ZM93.3813 26.1875H93.7638C94.1688 26.1875 94.3713 25.9625 94.3713 25.5125V21.26C94.3713 20.81 94.1688 20.585 93.7638 20.585H93.3813C93.0063 20.585 92.8188 20.75 92.8188 21.08V25.6925C92.8188 26.0225 93.0063 26.1875 93.3813 26.1875ZM105.79 17.7725H106.195C108.19 17.7725 109.188 18.7025 109.188 20.5625V29H105.363V21.08C105.363 20.75 105.175 20.585 104.8 20.585H104.418C104.013 20.585 103.81 20.81 103.81 21.26V29H99.9854V17.7725H103.743V19.2125C103.953 18.2525 104.635 17.7725 105.79 17.7725Z" fill="#283739"/>
<path d="M7.44141 8.03906C6.81641 8.16797 6.57813 8.2461 6.13281 8.46875C5.16016 8.94922 4.33984 9.9961 4.07422 11.1016C4.00781 11.3789 4.00391 11.9063 4.00391 22.0391V32.6836L4.09766 33.0156C4.44922 34.2734 5.30859 35.2539 6.48828 35.7383C6.76172 35.8477 6.86719 35.8789 7.30469 35.9648C7.74219 36.0508 32.1953 36.0508 32.6758 35.9648C33.418 35.832 34.0117 35.5469 34.6016 35.043C35.168 34.5625 35.6523 33.7813 35.8633 33.0156L35.957 32.6836V22.0195V11.3555L35.8633 11.0234C35.4336 9.47656 34.207 8.34375 32.6758 8.07422C32.4102 8.02344 30.5234 8.01953 19.9414 8.01953C13.1094 8.02344 7.48438 8.03125 7.44141 8.03906ZM12.5859 14.1094C12.7266 14.1523 12.9414 14.2539 13.0703 14.3398C13.2188 14.4375 14.4453 15.6367 16.4883 17.6875C19.2656 20.4766 19.6875 20.9141 19.7813 21.1133C20.0664 21.7109 20.0664 22.3281 19.7813 22.9258C19.6875 23.125 19.2656 23.5625 16.4688 26.3672C14.7031 28.1328 13.1797 29.6328 13.0781 29.6992C12.4609 30.0977 11.5547 30.1172 10.9609 29.7461C10.4648 29.4375 10.1523 29 10.0195 28.4375C9.94531 28.125 9.94531 27.9063 10.0234 27.5859C10.1641 26.9883 9.91016 27.2695 14.3086 22.8555C14.7539 22.4063 15.1172 22.0313 15.1172 22.0195C15.1172 22.0078 14.207 21.0898 13.0977 19.9766C10.4531 17.3281 10.3125 17.1836 10.1875 16.9219C10.0625 16.6641 9.96094 16.2656 9.96094 16.0234C9.96094 15.3516 10.3555 14.6719 10.9648 14.293C11.3867 14.0273 12.0742 13.9492 12.5859 14.1094ZM28.2656 26.0234C28.7656 26.1133 29.1094 26.3008 29.457 26.6797C29.707 26.9453 29.8555 27.2266 29.9375 27.5859C30.0156 27.9063 30.0156 28.125 29.9414 28.4375C29.793 29.0586 29.4219 29.5313 28.8672 29.8086C28.418 30.0352 28.5391 30.0273 24.9609 30.0273H21.6602L21.3867 29.9375C20.0469 29.4883 19.5391 27.9219 20.375 26.8203C20.6992 26.3945 21.0859 26.1523 21.6211 26.0391C21.9258 25.9766 27.9141 25.9648 28.2656 26.0234Z" fill="#283739"/>
</svg>
