<svg width="96" height="96" viewBox="0 0 96 96" fill="none" xmlns="http://www.w3.org/2000/svg">
<path d="M52.4 92C46.8 92 41.5507 90.9333 36.652 88.8C31.7533 86.6667 27.4867 83.7827 23.852 80.148C20.2173 76.516 17.3333 72.2493 15.2 67.348C13.0667 62.4467 12 57.1973 12 51.6C12 41.8667 15.1 33.2827 21.3 25.848C27.5 18.4133 35.4 13.7973 45 12C43.8 18.6 44.1667 25.0507 46.1 31.352C48.0333 37.6533 51.3667 43.1693 56.1 47.9C60.8333 52.6333 66.3507 55.9667 72.652 57.9C78.9533 59.8333 85.4027 60.2 92 59C90.2667 68.6 85.6667 76.5 78.2 82.7C70.7333 88.9 62.1333 92 52.4 92Z" fill="currentColor"/>
</svg>
