<svg width="96" height="96" viewBox="0 0 96 96" fill="none" xmlns="http://www.w3.org/2000/svg">
<path d="M45.4352 15.042C41.1932 14.817 36.4262 15.468 31.7642 17.085C24.3542 19.656 16.3382 23.7 10.5752 28.968C3.72915 35.238 2.63115 40.698 3.08115 42.978C4.68315 51.078 16.1011 56.358 20.6732 60.264C20.4482 60.384 20.2382 60.492 20.0402 60.603C17.7482 61.716 9.24315 66.09 7.06515 70.794C4.60515 76.128 7.47315 79.944 9.35715 80.466C15.2372 82.062 21.0512 79.275 24.2822 74.562C27.5162 69.846 27.1261 63.69 25.6321 60.882C25.6201 60.843 25.5901 60.816 25.5751 60.774C26.1661 60.429 26.7692 60.084 27.3752 59.736C28.5422 59.061 29.6822 58.446 30.6812 57.906C30.1172 59.394 29.7092 61.185 29.4962 63.768C29.2442 66.792 30.5222 70.704 32.1812 72.246C32.9132 72.921 33.7951 72.936 34.3411 72.936C36.2821 72.936 37.1552 71.37 38.1212 69.498C39.3152 67.215 40.3712 64.563 40.3712 64.563C40.3712 64.563 39.0511 71.736 42.6691 71.736C43.9891 71.736 45.3091 70.074 45.9031 69.222V69.234C45.9031 69.234 45.9242 69.18 45.9962 69.069C46.1372 68.862 46.2062 68.742 46.2062 68.742V68.7C46.7402 67.806 47.9131 65.76 49.6711 62.379C51.9481 58.008 54.1232 52.548 54.1232 52.548C54.3332 53.748 54.6242 54.93 54.9962 56.091C55.3892 57.396 56.2232 58.827 56.8832 60.216C56.3492 60.93 56.0222 61.341 56.0222 61.341C56.0222 61.353 56.0312 61.365 56.0402 61.371C55.6172 61.92 55.1372 62.511 54.6452 63.087C52.8452 65.178 50.7062 67.575 50.4272 68.262C50.0882 69.072 50.1721 69.672 50.8171 70.143C51.2971 70.5 52.1462 70.554 53.0282 70.488C54.1635 70.4297 55.2805 70.1781 56.3312 69.744C57.3396 69.3931 58.2946 68.9045 59.1691 68.292C60.9271 67.026 61.9981 65.208 61.8991 62.817C61.8391 61.497 61.4011 60.177 60.8671 58.938C61.0231 58.719 61.1971 58.488 61.3471 58.254C63.1759 55.59 64.8246 52.8068 66.2822 49.923C66.4922 51.123 66.7832 52.305 67.1522 53.466C67.4942 54.579 68.1542 55.803 68.7602 57C66.1472 59.076 64.5241 61.482 63.9601 63.063C62.9191 65.991 63.7411 67.308 65.2741 67.611C65.9641 67.749 66.9452 67.437 67.6742 67.137C68.7632 66.783 69.7831 66.267 70.7101 65.607C72.4681 64.341 74.1722 62.571 74.0582 60.165C74.0162 59.079 73.7102 57.99 73.3022 56.946C75.5102 56.04 78.3722 55.545 82.0322 55.956C89.8621 56.85 91.3952 61.635 91.1012 63.627C90.8072 65.622 89.1602 66.735 88.6112 67.065C88.0622 67.395 87.8971 67.521 87.9391 67.77C88.0081 68.127 88.2571 68.112 88.7221 68.028C89.3701 67.917 92.8261 66.408 92.9821 62.706C93.2071 58.035 88.6172 52.896 80.4782 52.935H80.4662C77.6432 52.935 74.8562 53.568 72.3212 54.792C71.4902 53.157 70.6321 51.726 70.4941 50.652C70.3261 49.404 70.1462 48.663 70.3442 47.181C70.5392 45.696 71.4241 43.59 71.4091 43.437C71.3941 43.287 71.2111 42.531 69.3991 42.516C67.5871 42.501 66.0212 42.858 65.8412 43.326C65.5202 44.178 65.2711 45.054 65.0971 45.948C64.7731 47.556 61.4702 53.307 59.6012 56.304C58.9832 55.134 58.4642 54.105 58.3532 53.28C58.1852 52.029 57.9992 51.288 58.1942 49.806C58.3922 48.321 59.2832 46.215 59.2682 46.062C59.2532 45.912 59.0702 45.156 57.2582 45.141C55.4462 45.126 53.8772 45.483 53.6942 45.951C53.5142 46.416 53.3131 47.514 52.9501 48.573C52.5841 49.632 48.1862 59.205 47.0342 61.692C46.5709 62.6945 46.0817 63.6848 45.5672 64.662C45.5102 64.776 45.4712 64.842 45.4472 64.899C45.4862 64.83 45.5162 64.761 45.5162 64.788C45.2072 65.379 45.0242 65.706 45.0242 65.706V65.718C44.7842 66.159 44.5142 66.564 44.3912 66.564C44.3072 66.564 44.1212 65.406 44.4332 63.825C45.0932 60.498 46.6532 55.329 46.6412 55.149C46.6262 55.053 46.9292 54.159 45.6092 53.679C44.3282 53.226 43.8692 53.982 43.7582 53.982C43.6442 53.982 43.5602 54.258 43.5602 54.258C43.5602 54.258 44.9731 48.429 40.8301 48.429C38.2381 48.429 34.6381 51.204 32.8712 53.718C31.7612 54.309 29.3552 55.59 26.8232 56.952L23.9192 58.518C23.8502 58.449 23.7902 58.38 23.7182 58.311C18.6842 53.061 9.39315 49.347 9.78615 42.291C9.92715 39.723 10.8451 32.976 27.6572 24.78C41.4391 18.072 52.4552 19.911 54.3512 24.006C57.0812 29.85 48.4592 40.728 34.1492 42.294C28.6952 42.885 26.1812 40.581 25.4642 39.81C24.7202 39 24.6032 38.955 24.3242 39.105C23.8562 39.351 24.1532 40.068 24.3242 40.494C24.7442 41.58 26.6252 43.281 29.6192 44.244C32.2502 45.084 38.2892 45.789 46.0262 42.864C54.7142 39.588 61.3501 30.696 59.3671 23.067C58.1071 18.222 52.5002 15.414 45.4352 15.042ZM40.8212 51.867C41.0432 51.882 41.2052 51.966 41.2982 52.119C41.7902 52.932 39.5882 58.917 39.0242 60.264C38.1242 62.424 36.2222 67.926 35.0672 67.635C34.0832 67.389 33.4772 63.195 34.8692 59.067C35.5712 56.991 37.0621 54.519 37.9501 53.556C39.0151 52.389 40.1642 51.816 40.8212 51.867ZM70.0412 58.653C70.2092 59.133 70.2962 59.637 70.3082 60.141C70.2932 63.237 68.0281 64.389 66.6691 64.869C66.3871 64.677 66.4232 64.029 67.3652 62.019C67.7312 61.239 68.5772 59.919 70.0412 58.653ZM22.8152 62.064C23.9822 66.243 22.8572 69.927 20.1302 72.834C17.5442 75.594 13.9142 76.641 12.3542 75.762C10.6802 74.811 11.3432 70.74 14.5352 67.794C16.4762 66.006 18.9812 64.356 20.6402 63.339C21.0212 63.12 21.5642 62.79 22.2392 62.391C22.2944 62.3568 22.3514 62.3258 22.4102 62.298C22.5362 62.217 22.6742 62.148 22.8152 62.064ZM58.1462 62.544C58.1462 62.613 58.1642 62.685 58.1642 62.766C58.1462 65.226 55.7222 66.888 54.6242 67.548H54.6362V67.554C54.2552 67.746 53.9012 67.866 53.7362 67.77C53.6072 67.701 53.8922 67.44 53.8922 67.44C53.8922 67.44 55.8451 65.388 56.6161 64.452C57.0661 63.903 57.5852 63.258 58.1462 62.544Z" fill="currentColor"/>
</svg>
