<svg width="96" height="96" viewBox="0 0 96 96" fill="none" xmlns="http://www.w3.org/2000/svg">
<path d="M27.0643 46.3338C26.7362 50.4652 30.3657 53.5082 32.8428 53.5082C35.3232 53.3926 44.9837 45.2516 44.9837 45.2516C49.5273 39.5053 49.5469 36.9502 49.5469 34.9419C49.168 26.0755 33.0144 39.58 27.0643 46.3338ZM67.0242 42.9019C69.2169 38.2612 66.2669 33.1069 59.8501 37.6342C54.751 40.8751 48.1496 47.5423 44.9903 50.1522C43.5249 53.112 47.2396 61.2348 53.1261 56.946C60.084 51.8909 65.165 47.1375 67.0242 42.9019ZM72.9961 14.8289L74.4091 6H90V22.1165L84.2862 22.1848L77.4062 45.4872C77.8344 53.7113 73.664 53.8452 73.1313 57.6188C71.7923 67.1033 61.1859 74.8638 57.1307 74.8638C54.4262 74.7853 52.449 71.6855 51.7849 68.9844C59.4105 60.55 69.6651 53.9217 69.6651 53.9217C70.3054 49.4859 68.8981 48.0737 73.631 44.2938L78.1473 20.5477C74.2902 18.0007 72.4904 18.0402 72.9961 14.8289ZM42.5646 54.1546C46.5188 62.1222 52.2323 62.3299 61.0905 52.1861C61.301 53.1238 61.5315 54.1064 61.1086 56.4656C43.0886 72.583 26.1164 88.2691 20.9502 90H6V85.9903C8.43141 82.6185 28.386 66.1599 42.5646 54.1546ZM69.1965 69.5814C68.3853 76.478 62.0976 82.5128 53.6956 90H27.0676L49.5159 71.091C53.3911 79.9102 60.2742 78.6326 69.1967 69.5814M37.7067 53.9276L6 80.9526V63.4193L24.6588 48.2297C25.657 53.8834 31.7718 58.8619 37.7067 53.9279" fill="currentColor"/>
</svg>
