<svg width="96" height="96" viewBox="0 0 96 96" fill="none" xmlns="http://www.w3.org/2000/svg">
<path d="M6 48V90H90V6H6V48ZM73.6882 44.6505C75.702 45.1246 77.5321 46.1798 78.9514 47.685C79.7179 48.504 80.865 50.0081 80.9621 50.3783C80.9884 50.4885 77.3396 52.935 75.1241 54.3026C75.0428 54.3577 74.7146 54.0165 74.3576 53.481C73.2788 51.9086 72.1421 51.2261 70.407 51.1027C67.8634 50.9374 66.2228 52.2656 66.2359 54.4943C66.2225 55.0396 66.3443 55.5797 66.5903 56.0666C67.152 57.2295 68.2046 57.9251 71.457 59.3348C77.4735 61.9178 80.0434 63.6266 81.642 66.0469C83.4322 68.7533 83.8286 73.074 82.6264 76.3001C81.2876 79.7861 77.9775 82.1644 73.3286 82.944C71.8928 83.2039 68.475 83.1619 66.9289 82.8757C63.5531 82.2746 60.3532 80.6051 58.3845 78.4185C57.6049 77.5706 56.1007 75.342 56.1979 75.1924C56.2399 75.1372 56.5811 74.9194 56.9644 74.6989L60.0829 72.8929L62.5031 71.4859L63.0098 72.2366C63.7211 73.3155 65.2646 74.7934 66.1965 75.2842C68.8766 76.707 72.5543 76.5023 74.3734 74.8748C75.111 74.2605 75.5231 73.3155 75.468 72.36C75.468 71.3888 75.3446 70.953 74.838 70.2259C74.1818 69.2966 72.8561 68.5039 69.0682 66.8633C64.7344 64.989 62.8601 63.8419 61.167 61.9965C60.1011 60.7819 59.3129 59.3495 58.857 57.7991C58.542 56.61 58.4606 53.628 58.7074 52.4389C59.5973 48.2415 62.7683 45.3304 67.32 44.4694C68.7979 44.1832 72.2419 44.2909 73.6909 44.6479L73.6882 44.6505ZM53.9745 48.1654L54.0007 51.5963H43.0624V82.6736H35.3239V51.5963H24.4013V48.2336C24.4013 46.3594 24.4433 44.8027 24.4958 44.7607C24.5378 44.7056 31.1816 44.6794 39.2483 44.6925L53.9325 44.7345L53.9745 48.1654Z" fill="currentColor"/>
</svg>
